0
SECTION
2
HEADER
9
$INSUNITS
70
4
0
ENDSEC
0
SECTION
2
TABLES
0
TABLE
2
LTYPE
0
LTYPE
72
65
70
64
2
CONTINUOUS
3
______
73
0
40
0
0
ENDTAB
0
TABLE
2
LAYER
0
ENDTAB
0
ENDSEC
0
SECTION
2
ENTITIES
0
LINE
8
0
10
10.4755111
20
-7.8669351
11
81.1006456
21
-1.6880364
0
LINE
8
0
10
7.910552
20
9.9769682
11
9.3921606
21
-6.9578961
0
ARC
8
0
10
10.3883553
20
-6.8707404
40
1
50
185
51
275
0
LINE
8
0
10
6.55956
20
25.418877
11
6.4289044
21
26.9122781
0
LINE
8
0
10
5.0779513
20
42.3537414
11
6.4288653
21
26.9127236
0
LINE
8
0
10
7.9105129
20
9.9774137
11
6.5595989
21
25.4184315
0
ARC
8
0
10
7.5557936
20
25.5055872
40
1
50
184.9743752
51
185
0
ARC
8
0
10
8.9067076
20
10.0645694
40
1
50
185
51
185.0256209
0
ARC
8
0
10
22.5113586
20
43.8789669
40
1
50
65.0000035
51
95
0
LINE
8
0
10
22.4242028
20
44.8751616
11
5.9869903
21
43.4370918
0
ARC
8
0
10
6.074146
20
42.4408971
40
1
50
95
51
185
0
ARC
8
0
10
7.42506
20
26.9998793
40
1
50
185
51
185.0256209
0
LINE
8
0
10
23.7703301
20
46.6994262
11
44.6006457
21
48.5218427
0
ARC
8
0
10
23.8574858
20
45.7032315
40
1
50
95
51
185
0
LINE
8
0
10
22.8612911
20
45.6160758
11
22.9339768
21
44.7852747
0
ARC
8
0
10
62.1006457
20
54.9937896
40
1
50
60.0000077
51
90
0
LINE
8
0
10
62.1006457
20
55.9937896
11
45.6006457
21
55.9937896
0
ARC
8
0
10
45.6006457
20
54.9937896
40
1
50
90
51
180
0
LINE
8
0
10
44.6006457
20
54.9937896
11
44.6006457
21
48.5218427
0
LINE
8
0
10
81.1006456
20
55.8598149
11
81.1006456
21
58.3937896
0
ARC
8
0
10
80.1006456
20
58.3937896
40
1
50
0
51
90
0
LINE
8
0
10
80.1006456
20
59.3937896
11
63.6006456
21
59.3937896
0
ARC
8
0
10
63.6006456
20
58.3937896
40
1
50
90
51
180
0
LINE
8
0
10
62.6006456
20
58.3937896
11
62.6006456
21
55.8598151
0
LINE
8
0
10
99.1006457
20
54.159815
11
99.1006457
21
54.9937896
0
ARC
8
0
10
98.1006457
20
54.9937896
40
1
50
0
51
90
0
LINE
8
0
10
98.1006457
20
55.9937896
11
81.6006457
21
55.9937896
0
ARC
8
0
10
81.6006457
20
54.9937896
40
1
50
90
51
120.0000079
0
LINE
8
0
10
142.3506456
20
41.2937897
11
142.3823998
21
41.2937897
0
LINE
8
0
10
144.3188916
20
41.2937897
11
144.3506458
21
41.2937897
0
LINE
8
0
10
142.3506456
20
5.7937897
11
142.3823999
21
5.7937897
0
LINE
8
0
10
144.3188915
20
5.7937897
11
144.3506458
21
5.7937897
0
LINE
8
0
10
99.6006457
20
54.2937896
11
141.3506456
21
54.2937896
0
ARC
8
0
10
99.6006457
20
53.2937896
40
1
50
90
51
120.0000001
0
LINE
8
0
10
205.6006458
20
-1.6880364
11
276.2257803
21
-7.8669351
0
ARC
8
0
10
276.3129361
20
-6.8707404
40
1
50
265
51
355
0
LINE
8
0
10
277.3091308
20
-6.9578961
11
278.7907394
21
9.9769682
0
LINE
8
0
10
280.2724261
20
26.9127236
11
281.6233401
21
42.3537414
0
LINE
8
0
10
280.272387
20
26.9122781
11
280.1417314
21
25.418877
0
LINE
8
0
10
280.1416925
20
25.4184315
11
278.7907785
21
9.9774137
0
ARC
8
0
10
277.7945838
20
10.0645694
40
1
50
354.9743791
51
355
0
ARC
8
0
10
279.1454978
20
25.5055872
40
1
50
355
51
355.0256248
0
ARC
8
0
10
279.2762314
20
26.9998793
40
1
50
354.9743791
51
355
0
ARC
8
0
10
280.6271454
20
42.4408971
40
1
50
355
51
85
0
LINE
8
0
10
280.7143011
20
43.4370918
11
264.2770886
21
44.8751616
0
ARC
8
0
10
264.1899328
20
43.8789669
40
1
50
85
51
114.9999965
0
LINE
8
0
10
263.7673146
20
44.7852747
11
263.8400003
21
45.6160758
0
ARC
8
0
10
262.8438056
20
45.7032315
40
1
50
355
51
85
0
LINE
8
0
10
242.1006457
20
48.5218427
11
262.9309613
21
46.6994262
0
LINE
8
0
10
242.1006457
20
48.5218427
11
242.1006457
21
54.9937896
0
ARC
8
0
10
241.1006457
20
54.9937896
40
1
50
0
51
90
0
LINE
8
0
10
241.1006457
20
55.9937896
11
224.6006457
21
55.9937896
0
ARC
8
0
10
224.6006457
20
54.9937896
40
1
50
90
51
119.9999923
0
LINE
8
0
10
224.1006458
20
55.8598151
11
224.1006458
21
58.3937896
0
ARC
8
0
10
223.1006458
20
58.3937896
40
1
50
0
51
90
0
LINE
8
0
10
223.1006458
20
59.3937896
11
206.6006458
21
59.3937896
0
ARC
8
0
10
206.6006458
20
58.3937896
40
1
50
90
51
180
0
LINE
8
0
10
205.6006458
20
58.3937896
11
205.6006458
21
55.8598149
0
ARC
8
0
10
205.1006457
20
54.9937896
40
1
50
59.9999921
51
90
0
LINE
8
0
10
205.1006457
20
55.9937896
11
188.6006457
21
55.9937896
0
ARC
8
0
10
188.6006457
20
54.9937896
40
1
50
90
51
180
0
LINE
8
0
10
187.6006457
20
54.9937896
11
187.6006457
21
54.159815
0
ARC
8
0
10
187.1006457
20
53.2937896
40
1
50
59.9999999
51
90
0
LINE
8
0
10
145.3506458
20
54.2937896
11
187.1006457
21
54.2937896
0
LINE
8
0
10
81.1006456
20
-23.3062103
11
81.1006456
21
-1.6880364
0
ARC
8
0
10
82.1006456
20
-23.3062103
40
1
50
180
51
270
0
LINE
8
0
10
82.1006456
20
-24.3062103
11
98.4591556
21
-24.3062103
0
LINE
8
0
10
98.4591556
20
-24.3062103
11
115.0781686
21
-28.1430118
0
LINE
8
0
10
130.9736849
20
-34.7831712
11
142.1521491
21
-11.863923
0
ARC
8
0
10
141.2533551
20
-11.4255519
40
1
50
334
51
335.725519
0
LINE
8
0
10
115.0781686
20
-28.1430118
11
129.6365197
21
-35.2435941
0
ARC
8
0
10
130.0748908
20
-34.3448001
40
1
50
244
51
334
0
LINE
8
0
10
188.2421358
20
-24.3062103
11
204.6006458
21
-24.3062103
0
ARC
8
0
10
204.6006458
20
-23.3062103
40
1
50
270
51
0
0
LINE
8
0
10
205.6006458
20
-23.3062103
11
205.6006458
21
-1.6880364
0
LINE
8
0
10
171.6231228
20
-28.1430118
11
188.2421358
21
-24.3062103
0
LINE
8
0
10
144.5491423
20
-11.863923
11
155.7276065
21
-34.7831712
0
ARC
8
0
10
156.6264006
20
-34.3448001
40
1
50
206
51
296
0
LINE
8
0
10
157.0647717
20
-35.2435941
11
171.6231228
21
-28.1430118
0
ARC
8
0
10
145.4479363
20
-11.4255519
40
1
50
204.274481
51
206
0
ARC
8
0
10
141.3506456
20
-11.2562104
40
1
50
324.5178088
51
360
0
LINE
8
0
10
142.3506456
20
-11.2562104
11
142.3506456
21
5.7937897
0
LINE
8
0
10
142.3506456
20
41.2937897
11
142.3506456
21
53.2937896
0
ARC
8
0
10
141.3506456
20
53.2937896
40
1
50
0
51
90
0
ARC
8
0
10
145.3506458
20
53.2937896
40
1
50
90
51
180
0
LINE
8
0
10
144.3506458
20
53.2937896
11
144.3506458
21
41.2937897
0
LINE
8
0
10
144.3506458
20
5.7937897
11
144.3506458
21
-11.2562104
0
ARC
8
0
10
145.3506458
20
-11.2562104
40
1
50
180
51
215.4821912
0
ARC
8
0
10
143.3506457
20
41.5437896
40
1
50
194.4775057
51
345.5224943
0
CIRCLE
8
0
10
143.3506457
20
37.5437896
40
1
0
CIRCLE
8
0
10
143.3506457
20
33.5437896
40
1
0
CIRCLE
8
0
10
143.3506457
20
29.5437896
40
1
0
CIRCLE
8
0
10
143.3506457
20
25.5437896
40
1
0
CIRCLE
8
0
10
143.3506457
20
21.5437896
40
1
0
CIRCLE
8
0
10
143.3506457
20
17.5437896
40
1
0
CIRCLE
8
0
10
143.3506457
20
13.5437896
40
1
0
CIRCLE
8
0
10
143.3506457
20
9.5437896
40
1
0
ARC
8
0
10
143.3506457
20
5.5437896
40
1
50
374.4775183
51
525.5224817
0
ENDSEC
0
EOF