0
SECTION
2
HEADER
9
$INSUNITS
70
4
0
ENDSEC
0
SECTION
2
TABLES
0
TABLE
2
LTYPE
0
LTYPE
72
65
70
64
2
CONTINUOUS
3
______
73
0
40
0
0
ENDTAB
0
TABLE
2
LAYER
0
ENDTAB
0
ENDSEC
0
SECTION
2
ENTITIES
0
LINE
8
0
10
9.7937319
20
-8.6794479
11
57.3506456
21
-4.518757
0
LINE
8
0
10
7.2287728
20
9.1644554
11
8.7103814
21
-7.770409
0
ARC
8
0
10
9.7065761
20
-7.6832532
40
1
50
185
51
545
0
LINE
8
0
10
5.7470861
20
26.1002107
11
7.2287338
21
9.1649009
0
LINE
8
0
10
4.2654385
20
43.0355206
11
5.7470472
21
26.1006562
0
ARC
8
0
10
6.7432808
20
26.1873664
40
1
50
184.9743752
51
544.9743752
0
ARC
8
0
10
8.2249284
20
9.2520566
40
1
50
185
51
545
0
LINE
8
0
10
5.1744775
20
44.118871
11
22.1097873
21
45.6005187
0
ARC
8
0
10
5.2616332
20
43.1226763
40
1
50
95
51
455
0
LINE
8
0
10
22.9578173
20
47.3812054
11
43.8506457
21
49.2090911
0
ARC
8
0
10
23.044973
20
46.3850107
40
1
50
95
51
455
0
LINE
8
0
10
22.0487783
20
46.297855
11
22.1097873
21
45.6005187
0
LINE
8
0
10
44.8506457
20
56.7437896
11
61.8506456
21
56.7437896
0
ARC
8
0
10
44.8506457
20
55.7437896
40
1
50
90
51
450
0
LINE
8
0
10
43.8506457
20
49.2090911
11
43.8506457
21
55.7437896
0
LINE
8
0
10
81.8506456
20
56.7437896
11
81.8506456
21
59.1437896
0
ARC
8
0
10
80.8506456
20
59.1437896
40
1
50
0
51
360
0
LINE
8
0
10
62.8506456
20
60.1437896
11
80.8506456
21
60.1437896
0
ARC
8
0
10
62.8506456
20
59.1437896
40
1
50
90
51
450
0
LINE
8
0
10
61.8506456
20
56.7437896
11
61.8506456
21
59.1437896
0
LINE
8
0
10
99.8506457
20
55.0437896
11
99.8506457
21
55.7437896
0
ARC
8
0
10
98.8506457
20
55.7437896
40
1
50
0
51
360
0
LINE
8
0
10
81.8506456
20
56.7437896
11
98.8506457
21
56.7437896
0
LINE
8
0
10
117.8506457
20
20.0437897
11
117.8506457
21
54.0437896
0
ARC
8
0
10
116.8506457
20
54.0437896
40
1
50
0
51
360
0
LINE
8
0
10
99.8506457
20
55.0437896
11
116.8506457
21
55.0437896
0
LINE
8
0
10
233.7506458
20
-4.518757
11
281.3075595
21
-8.6794479
0
ARC
8
0
10
281.3947153
20
-7.6832532
40
1
50
265
51
625
0
LINE
8
0
10
282.39091
20
-7.770409
11
283.8725186
21
9.1644554
0
LINE
8
0
10
285.3542442
20
26.1006562
11
286.8358529
21
43.0355206
0
LINE
8
0
10
283.8725576
20
9.1649009
11
285.3542053
21
26.1002107
0
ARC
8
0
10
282.876363
20
9.2520566
40
1
50
354.9743791
51
714.9743791
0
ARC
8
0
10
285.8396582
20
43.1226763
40
1
50
355
51
715
0
LINE
8
0
10
268.9915041
20
45.6005187
11
285.9268139
21
44.118871
0
LINE
8
0
10
268.9915041
20
45.6005187
11
269.0525131
21
46.297855
0
ARC
8
0
10
268.0563184
20
46.3850107
40
1
50
355
51
715
0
LINE
8
0
10
247.2506457
20
49.2090911
11
268.1434741
21
47.3812054
0
LINE
8
0
10
247.2506457
20
49.2090911
11
247.2506457
21
55.7437896
0
ARC
8
0
10
246.2506457
20
55.7437896
40
1
50
0
51
360
0
LINE
8
0
10
229.2506458
20
56.7437896
11
246.2506457
21
56.7437896
0
LINE
8
0
10
229.2506458
20
56.7437896
11
229.2506458
21
59.1437896
0
ARC
8
0
10
228.2506458
20
59.1437896
40
1
50
0
51
360
0
LINE
8
0
10
210.2506458
20
60.1437896
11
228.2506458
21
60.1437896
0
ARC
8
0
10
210.2506458
20
59.1437896
40
1
50
90
51
450
0
LINE
8
0
10
209.2506458
20
56.7437896
11
209.2506458
21
59.1437896
0
LINE
8
0
10
192.2506457
20
56.7437896
11
209.2506458
21
56.7437896
0
ARC
8
0
10
192.2506457
20
55.7437896
40
1
50
90
51
450
0
LINE
8
0
10
191.2506457
20
55.0437896
11
191.2506457
21
55.7437896
0
LINE
8
0
10
173.2506457
20
20.0437897
11
173.2506457
21
54.0437896
0
LINE
8
0
10
174.2506457
20
55.0437896
11
191.2506457
21
55.0437896
0
ARC
8
0
10
174.2506457
20
54.0437896
40
1
50
90
51
450
0
LINE
8
0
10
57.3506456
20
-25.0562103
11
98.3737039
21
-25.0562103
0
LINE
8
0
10
57.3506456
20
-25.0562103
11
57.3506456
21
-4.518757
0
LINE
8
0
10
98.3737039
20
-25.0562103
11
114.8261934
21
-28.8545668
0
LINE
8
0
10
131.3190021
20
-35.7860451
11
143.155023
21
-11.5186059
0
ARC
8
0
10
142.256229
20
-11.0802347
40
1
50
334
51
64
0
LINE
8
0
10
114.8261934
20
-28.8545668
11
129.9818369
21
-36.246468
0
ARC
8
0
10
130.420208
20
-35.347674
40
1
50
244
51
604
0
LINE
8
0
10
192.7275875
20
-25.0562103
11
233.7506458
21
-25.0562103
0
LINE
8
0
10
233.7506458
20
-25.0562103
11
233.7506458
21
-4.518757
0
LINE
8
0
10
176.275098
20
-28.8545668
11
192.7275875
21
-25.0562103
0
LINE
8
0
10
147.9462684
20
-11.5186059
11
159.7822893
21
-35.7860451
0
ARC
8
0
10
160.6810834
20
-35.347674
40
1
50
206
51
566
0
LINE
8
0
10
161.1194545
20
-36.246468
11
176.275098
21
-28.8545668
0
ARC
8
0
10
148.8450624
20
-11.0802347
40
1
50
197.8474855
51
557.8474855
0
ARC
8
0
10
56.3506456
20
-5.6100655
40
1
50
0
51
94.9999976
0
ARC
8
0
10
58.3506456
20
-24.0562103
40
1
50
180
51
270
0
ARC
8
0
10
98.2597681
20
-26.0562103
40
1
50
76.9999979
51
90
0
ARC
8
0
10
114.4902274
20
-29.8033071
40
1
50
64.0000012
51
76.9999979
0
ARC
8
0
10
82.8506456
20
57.7437896
40
1
50
180
51
270
0
ARC
8
0
10
60.8506456
20
57.7437896
40
1
50
270
51
0
0
ARC
8
0
10
42.8506457
20
50.1254223
40
1
50
274.9999976
51
0
0
ARC
8
0
10
248.2506457
20
50.1254223
40
1
50
180
51
265.0000024
0
ARC
8
0
10
230.2506458
20
57.7437896
40
1
50
180
51
270
0
ARC
8
0
10
208.2506458
20
57.7437896
40
1
50
270
51
0
0
ARC
8
0
10
176.611064
20
-29.8033071
40
1
50
103.0000021
51
115.9999988
0
ARC
8
0
10
192.8415233
20
-26.0562103
40
1
50
90
51
103.0000021
0
ARC
8
0
10
232.7506458
20
-24.0562103
40
1
50
270
51
0
0
ARC
8
0
10
234.7506458
20
-5.6100655
40
1
50
85.0000024
51
180
0
ARC
8
0
10
144.0506456
20
-7.2562104
40
1
50
338.0580195
51
360
0
LINE
8
0
10
145.0506456
20
-7.2562104
11
145.0506456
21
1.5437897
0
LINE
8
0
10
145.0506456
20
47.5437897
11
145.0506456
21
52.3437896
0
LINE
8
0
10
145.0506456
20
13.5437897
11
145.0506456
21
35.5437897
0
ARC
8
0
10
144.0506456
20
52.3437896
40
1
50
0
51
90
0
LINE
8
0
10
144.0506456
20
53.3437896
11
117.8506457
21
53.3437896
0
LINE
8
0
10
173.2506457
20
53.3437896
11
147.0506458
21
53.3437896
0
ARC
8
0
10
147.0506458
20
52.3437896
40
1
50
90
51
180
0
LINE
8
0
10
146.0506458
20
52.3437896
11
146.0506458
21
47.5437897
0
LINE
8
0
10
146.0506458
20
35.5437897
11
146.0506458
21
13.5437897
0
LINE
8
0
10
146.0506458
20
1.5437897
11
146.0506458
21
-7.2562104
0
ARC
8
0
10
147.0506458
20
-7.2562104
40
1
50
180
51
201.9419805
0
LINE
8
0
10
143.2081047
20
-11.386719
11
144.8839264
21
-7.9507755
0
ARC
8
0
10
143.9851323
20
-7.5124043
40
1
50
334
51
353.2536751
0
ARC
8
0
10
147.1161591
20
-7.5124043
40
1
50
186.7463249
51
206
0
LINE
8
0
10
146.217365
20
-7.9507755
11
147.8931867
21
-11.386719
0
ARC
8
0
10
145.5506457
20
35.5437897
40
0.5
50
360
51
540
0
CIRCLE
8
0
10
145.5506457
20
37.5437897
40
0.5
0
CIRCLE
8
0
10
145.5506457
20
39.5437897
40
0.5
0
CIRCLE
8
0
10
145.5506457
20
41.5437897
40
0.5
0
CIRCLE
8
0
10
145.5506457
20
43.5437897
40
0.5
0
CIRCLE
8
0
10
145.5506457
20
45.5437897
40
0.5
0
ARC
8
0
10
145.5506457
20
47.5437897
40
0.5
50
180
51
360
0
ARC
8
0
10
145.5506457
20
1.5437897
40
0.5
50
360
51
540
0
CIRCLE
8
0
10
145.5506457
20
3.5437897
40
0.5
0
CIRCLE
8
0
10
145.5506457
20
5.5437897
40
0.5
0
CIRCLE
8
0
10
145.5506457
20
7.5437897
40
0.5
0
CIRCLE
8
0
10
145.5506457
20
9.5437897
40
0.5
0
CIRCLE
8
0
10
145.5506457
20
11.5437897
40
0.5
0
ARC
8
0
10
145.5506457
20
13.5437897
40
0.5
50
180
51
360
0
LINE
8
0
10
117.8506456
20
0.2100025
11
117.8506456
21
20.0433425
0
ARC
8
0
10
116.8506457
20
20.0437897
40
1
50
359.9743773
51
360
0
LINE
8
0
10
173.2506458
20
0.2100025
11
173.2506458
21
20.0433425
0
ARC
8
0
10
174.2506457
20
20.0437897
40
1
50
180
51
180.0256227
0
LINE
8
0
10
117.8506456
20
0.2100025
11
124.4745215
21
-1.3192397
0
LINE
8
0
10
124.4745215
20
-1.3192397
11
124.4434901
21
-1.4536516
0
LINE
8
0
10
124.5119966
20
-1.3131924
11
142.6946001
21
-10.1814407
0
LINE
8
0
10
124.4434901
20
-1.4536516
11
124.5119966
21
-1.3131924
0
LINE
8
0
10
166.6267699
20
-1.3192397
11
173.2506458
21
0.2100025
0
LINE
8
0
10
166.6578013
20
-1.4536516
11
166.6267699
21
-1.3192397
0
LINE
8
0
10
148.4066913
20
-10.1814407
11
166.5892948
21
-1.3131924
0
LINE
8
0
10
166.5892948
20
-1.3131924
11
166.6578013
21
-1.4536516
0
LINE
8
0
10
10.9300306
20
-7.3252599
11
26.3710484
21
-5.9743459
0
ARC
8
0
10
26.2838926
20
-4.9781512
40
1
50
275
51
5
0
LINE
8
0
10
27.2800873
20
-4.8909954
11
26.0163291
21
9.5538277
0
ARC
8
0
10
25.0201344
20
9.466672
40
1
50
5
51
95
0
LINE
8
0
10
24.9329786
20
10.4628667
11
9.4919608
21
9.1119527
0
ARC
8
0
10
9.5791166
20
8.115758
40
1
50
95
51
185
0
LINE
8
0
10
8.5829219
20
8.0286022
11
9.8466801
21
-6.4162209
0
ARC
8
0
10
10.8428748
20
-6.3290652
40
1
50
185
51
275
0
LINE
8
0
10
9.4483829
20
9.6100499
11
24.8894007
21
10.9609639
0
ARC
8
0
10
24.8022449
20
11.9571586
40
1
50
275
51
5
0
LINE
8
0
10
25.7984396
20
12.0443144
11
24.5346814
21
26.4891375
0
ARC
8
0
10
23.5384867
20
26.4019818
40
1
50
5
51
95
0
LINE
8
0
10
23.4513309
20
27.3981765
11
8.0103131
21
26.0472625
0
ARC
8
0
10
8.0974689
20
25.0510678
40
1
50
95
51
185
0
LINE
8
0
10
7.1012742
20
24.963912
11
8.3650324
21
10.5190889
0
ARC
8
0
10
9.3612271
20
10.6062446
40
1
50
185
51
275
0
LINE
8
0
10
7.9667353
20
26.5453598
11
23.4077531
21
27.8962738
0
ARC
8
0
10
23.3205973
20
28.8924685
40
1
50
275
51
5
0
LINE
8
0
10
24.316792
20
28.9796243
11
23.0530338
21
43.4244474
0
ARC
8
0
10
22.0568391
20
43.3372917
40
1
50
5
51
95
0
LINE
8
0
10
21.9696833
20
44.3334864
11
6.5286655
21
42.9825724
0
ARC
8
0
10
6.6158213
20
41.9863777
40
1
50
95
51
185
0
LINE
8
0
10
5.6196266
20
41.8992219
11
6.8833848
21
27.4543988
0
ARC
8
0
10
7.8795795
20
27.5415545
40
1
50
185
51
275
0
LINE
8
0
10
28.7133704
20
-4.0629256
11
44.1543882
21
-2.7120116
0
ARC
8
0
10
44.0672324
20
-1.7158169
40
1
50
275
51
5
0
LINE
8
0
10
45.0634271
20
-1.6286611
11
43.7996689
21
12.816162
0
ARC
8
0
10
42.8034742
20
12.7290063
40
1
50
5
51
95
0
LINE
8
0
10
42.7163184
20
13.725201
11
27.2753006
21
12.374287
0
ARC
8
0
10
27.3624564
20
11.3780923
40
1
50
95
51
185
0
LINE
8
0
10
26.3662617
20
11.2909365
11
27.6300199
21
-3.1538866
0
ARC
8
0
10
28.6262146
20
-3.0667309
40
1
50
185
51
275
0
LINE
8
0
10
27.2317227
20
12.8723843
11
42.6727405
21
14.2232983
0
ARC
8
0
10
42.5855847
20
15.219493
40
1
50
275
51
5
0
LINE
8
0
10
43.5817794
20
15.3066488
11
42.3180212
21
29.7514719
0
ARC
8
0
10
41.3218265
20
29.6643162
40
1
50
5
51
95
0
LINE
8
0
10
41.2346707
20
30.6605109
11
25.7936529
21
29.3095969
0
ARC
8
0
10
25.8808087
20
28.3134022
40
1
50
95
51
185
0
LINE
8
0
10
24.884614
20
28.2262464
11
26.1483722
21
13.7814233
0
ARC
8
0
10
27.1445669
20
13.868579
40
1
50
185
51
275
0
LINE
8
0
10
25.7500751
20
29.8076942
11
41.1910929
21
31.1586082
0
ARC
8
0
10
41.1039371
20
32.1548029
40
1
50
275
51
5
0
LINE
8
0
10
42.1001318
20
32.2419587
11
40.8363736
21
46.6867818
0
ARC
8
0
10
39.8401789
20
46.5996261
40
1
50
5
51
95
0
LINE
8
0
10
39.7530231
20
47.5958208
11
24.3120053
21
46.2449068
0
ARC
8
0
10
24.3991611
20
45.2487121
40
1
50
95
51
185
0
LINE
8
0
10
23.4029664
20
45.1615563
11
24.6667246
21
30.7167332
0
ARC
8
0
10
25.6629193
20
30.8038889
40
1
50
185
51
275
0
LINE
8
0
10
46.1006456
20
4.9937896
11
61.6006456
21
4.9937896
0
ARC
8
0
10
61.6006456
20
5.9937896
40
1
50
270
51
360
0
LINE
8
0
10
62.6006456
20
5.9937896
11
62.6006456
21
20.4937896
0
ARC
8
0
10
61.6006456
20
20.4937896
40
1
50
0
51
90
0
LINE
8
0
10
61.6006456
20
21.4937896
11
46.1006456
21
21.4937896
0
ARC
8
0
10
46.1006456
20
20.4937896
40
1
50
90
51
180
0
LINE
8
0
10
45.1006456
20
20.4937896
11
45.1006456
21
5.9937896
0
ARC
8
0
10
46.1006456
20
5.9937896
40
1
50
180
51
270
0
LINE
8
0
10
46.1006456
20
21.9937897
11
61.6006456
21
21.9937897
0
ARC
8
0
10
61.6006456
20
22.9937897
40
1
50
270
51
360
0
LINE
8
0
10
62.6006456
20
22.9937897
11
62.6006456
21
37.4937897
0
ARC
8
0
10
61.6006456
20
37.4937897
40
1
50
0
51
90
0
LINE
8
0
10
61.6006456
20
38.4937897
11
46.1006456
21
38.4937897
0
ARC
8
0
10
46.1006456
20
37.4937897
40
1
50
90
51
180
0
LINE
8
0
10
45.1006456
20
37.4937897
11
45.1006456
21
22.9937897
0
ARC
8
0
10
46.1006456
20
22.9937897
40
1
50
180
51
270
0
LINE
8
0
10
46.1006457
20
38.9937896
11
61.6006457
21
38.9937896
0
ARC
8
0
10
61.6006457
20
39.9937896
40
1
50
270
51
360
0
LINE
8
0
10
62.6006457
20
39.9937896
11
62.6006457
21
54.4937896
0
ARC
8
0
10
61.6006457
20
54.4937896
40
1
50
0
51
90
0
LINE
8
0
10
61.6006457
20
55.4937896
11
46.1006457
21
55.4937896
0
ARC
8
0
10
46.1006457
20
54.4937896
40
1
50
90
51
180
0
LINE
8
0
10
45.1006457
20
54.4937896
11
45.1006457
21
39.9937896
0
ARC
8
0
10
46.1006457
20
39.9937896
40
1
50
180
51
270
0
LINE
8
0
10
64.1006457
20
8.3937896
11
79.6006457
21
8.3937896
0
ARC
8
0
10
79.6006457
20
9.3937896
40
1
50
270
51
360
0
LINE
8
0
10
80.6006457
20
9.3937896
11
80.6006457
21
23.8937896
0
ARC
8
0
10
79.6006457
20
23.8937896
40
1
50
0
51
90
0
LINE
8
0
10
79.6006457
20
24.8937896
11
64.1006457
21
24.8937896
0
ARC
8
0
10
64.1006457
20
23.8937896
40
1
50
90
51
180
0
LINE
8
0
10
63.1006457
20
23.8937896
11
63.1006457
21
9.3937896
0
ARC
8
0
10
64.1006457
20
9.3937896
40
1
50
180
51
270
0
LINE
8
0
10
64.1006456
20
25.3937897
11
79.6006456
21
25.3937897
0
ARC
8
0
10
79.6006456
20
26.3937897
40
1
50
270
51
360
0
LINE
8
0
10
80.6006456
20
26.3937897
11
80.6006456
21
40.8937897
0
ARC
8
0
10
79.6006456
20
40.8937897
40
1
50
0
51
90
0
LINE
8
0
10
79.6006456
20
41.8937897
11
64.1006456
21
41.8937897
0
ARC
8
0
10
64.1006456
20
40.8937897
40
1
50
90
51
180
0
LINE
8
0
10
63.1006456
20
40.8937897
11
63.1006456
21
26.3937897
0
ARC
8
0
10
64.1006456
20
26.3937897
40
1
50
180
51
270
0
LINE
8
0
10
64.1006456
20
42.3937896
11
79.6006456
21
42.3937896
0
ARC
8
0
10
79.6006456
20
43.3937896
40
1
50
270
51
360
0
LINE
8
0
10
80.6006456
20
43.3937896
11
80.6006456
21
57.8937896
0
ARC
8
0
10
79.6006456
20
57.8937896
40
1
50
0
51
90
0
LINE
8
0
10
79.6006456
20
58.8937896
11
64.1006456
21
58.8937896
0
ARC
8
0
10
64.1006456
20
57.8937896
40
1
50
90
51
180
0
LINE
8
0
10
63.1006456
20
57.8937896
11
63.1006456
21
43.3937896
0
ARC
8
0
10
64.1006456
20
43.3937896
40
1
50
180
51
270
0
LINE
8
0
10
82.1006456
20
4.9937897
11
97.6006456
21
4.9937897
0
ARC
8
0
10
97.6006456
20
5.9937897
40
1
50
270
51
360
0
LINE
8
0
10
98.6006456
20
5.9937897
11
98.6006456
21
20.4937897
0
ARC
8
0
10
97.6006456
20
20.4937897
40
1
50
0
51
90
0
LINE
8
0
10
97.6006456
20
21.4937897
11
82.1006456
21
21.4937897
0
ARC
8
0
10
82.1006456
20
20.4937897
40
1
50
90
51
180
0
LINE
8
0
10
81.1006456
20
20.4937897
11
81.1006456
21
5.9937897
0
ARC
8
0
10
82.1006456
20
5.9937897
40
1
50
180
51
270
0
LINE
8
0
10
82.1006457
20
21.9937896
11
97.6006457
21
21.9937896
0
ARC
8
0
10
97.6006457
20
22.9937896
40
1
50
270
51
360
0
LINE
8
0
10
98.6006457
20
22.9937896
11
98.6006457
21
37.4937896
0
ARC
8
0
10
97.6006457
20
37.4937896
40
1
50
0
51
90
0
LINE
8
0
10
97.6006457
20
38.4937896
11
82.1006457
21
38.4937896
0
ARC
8
0
10
82.1006457
20
37.4937896
40
1
50
90
51
180
0
LINE
8
0
10
81.1006457
20
37.4937896
11
81.1006457
21
22.9937896
0
ARC
8
0
10
82.1006457
20
22.9937896
40
1
50
180
51
270
0
LINE
8
0
10
82.1006457
20
38.9937896
11
97.6006457
21
38.9937896
0
ARC
8
0
10
97.6006457
20
39.9937896
40
1
50
270
51
360
0
LINE
8
0
10
98.6006457
20
39.9937896
11
98.6006457
21
54.4937896
0
ARC
8
0
10
97.6006457
20
54.4937896
40
1
50
0
51
90
0
LINE
8
0
10
97.6006457
20
55.4937896
11
82.1006457
21
55.4937896
0
ARC
8
0
10
82.1006457
20
54.4937896
40
1
50
90
51
180
0
LINE
8
0
10
81.1006457
20
54.4937896
11
81.1006457
21
39.9937896
0
ARC
8
0
10
82.1006457
20
39.9937896
40
1
50
180
51
270
0
LINE
8
0
10
100.1006456
20
3.2937896
11
115.6006456
21
3.2937896
0
ARC
8
0
10
115.6006456
20
4.2937896
40
1
50
270
51
360
0
LINE
8
0
10
116.6006456
20
4.2937896
11
116.6006456
21
18.7937896
0
ARC
8
0
10
115.6006456
20
18.7937896
40
1
50
0
51
90
0
LINE
8
0
10
115.6006456
20
19.7937896
11
100.1006456
21
19.7937896
0
ARC
8
0
10
100.1006456
20
18.7937896
40
1
50
90
51
180
0
LINE
8
0
10
99.1006456
20
18.7937896
11
99.1006456
21
4.2937896
0
ARC
8
0
10
100.1006456
20
4.2937896
40
1
50
180
51
270
0
LINE
8
0
10
100.1006457
20
20.2937897
11
115.6006457
21
20.2937897
0
ARC
8
0
10
115.6006457
20
21.2937897
40
1
50
270
51
360
0
LINE
8
0
10
116.6006457
20
21.2937897
11
116.6006457
21
35.7937897
0
ARC
8
0
10
115.6006457
20
35.7937897
40
1
50
0
51
90
0
LINE
8
0
10
115.6006457
20
36.7937897
11
100.1006457
21
36.7937897
0
ARC
8
0
10
100.1006457
20
35.7937897
40
1
50
90
51
180
0
LINE
8
0
10
99.1006457
20
35.7937897
11
99.1006457
21
21.2937897
0
ARC
8
0
10
100.1006457
20
21.2937897
40
1
50
180
51
270
0
LINE
8
0
10
100.1006457
20
37.2937896
11
115.6006457
21
37.2937896
0
ARC
8
0
10
115.6006457
20
38.2937896
40
1
50
270
51
360
0
LINE
8
0
10
116.6006457
20
38.2937896
11
116.6006457
21
52.7937896
0
ARC
8
0
10
115.6006457
20
52.7937896
40
1
50
0
51
90
0
LINE
8
0
10
115.6006457
20
53.7937896
11
100.1006457
21
53.7937896
0
ARC
8
0
10
100.1006457
20
52.7937896
40
1
50
90
51
180
0
LINE
8
0
10
99.1006457
20
52.7937896
11
99.1006457
21
38.2937896
0
ARC
8
0
10
100.1006457
20
38.2937896
40
1
50
180
51
270
0
LINE
8
0
10
264.730243
20
-5.9743459
11
280.1712608
21
-7.3252599
0
ARC
8
0
10
280.2584166
20
-6.3290652
40
1
50
265
51
355
0
LINE
8
0
10
281.2546113
20
-6.4162209
11
282.5183695
21
8.0286022
0
ARC
8
0
10
281.5221748
20
8.115758
40
1
50
355
51
85
0
LINE
8
0
10
281.6093306
20
9.1119527
11
266.1683128
21
10.4628667
0
ARC
8
0
10
266.081157
20
9.466672
40
1
50
85
51
175
0
LINE
8
0
10
265.0849623
20
9.5538277
11
263.8212041
21
-4.8909954
0
ARC
8
0
10
264.8173988
20
-4.9781512
40
1
50
175
51
265
0
LINE
8
0
10
266.2118907
20
10.9609639
11
281.6529085
21
9.6100499
0
ARC
8
0
10
281.7400643
20
10.6062446
40
1
50
265
51
355
0
LINE
8
0
10
282.736259
20
10.5190889
11
284.0000172
21
24.963912
0
ARC
8
0
10
283.0038225
20
25.0510678
40
1
50
355
51
85
0
LINE
8
0
10
283.0909783
20
26.0472625
11
267.6499605
21
27.3981765
0
ARC
8
0
10
267.5628047
20
26.4019818
40
1
50
85
51
175
0
LINE
8
0
10
266.56661
20
26.4891375
11
265.3028518
21
12.0443144
0
ARC
8
0
10
266.2990465
20
11.9571586
40
1
50
175
51
265
0
LINE
8
0
10
267.6935383
20
27.8962738
11
283.1345561
21
26.5453598
0
ARC
8
0
10
283.2217119
20
27.5415545
40
1
50
265
51
355
0
LINE
8
0
10
284.2179066
20
27.4543988
11
285.4816648
21
41.8992219
0
ARC
8
0
10
284.4854701
20
41.9863777
40
1
50
355
51
85
0
LINE
8
0
10
284.5726259
20
42.9825724
11
269.1316081
21
44.3334864
0
ARC
8
0
10
269.0444523
20
43.3372917
40
1
50
85
51
175
0
LINE
8
0
10
268.0482576
20
43.4244474
11
266.7844994
21
28.9796243
0
ARC
8
0
10
267.7806941
20
28.8924685
40
1
50
175
51
265
0
LINE
8
0
10
246.9469032
20
-2.7120116
11
262.387921
21
-4.0629256
0
ARC
8
0
10
262.4750768
20
-3.0667309
40
1
50
265
51
355
0
LINE
8
0
10
263.4712715
20
-3.1538866
11
264.7350297
21
11.2909365
0
ARC
8
0
10
263.738835
20
11.3780923
40
1
50
355
51
85
0
LINE
8
0
10
263.8259908
20
12.374287
11
248.384973
21
13.725201
0
ARC
8
0
10
248.2978172
20
12.7290063
40
1
50
85
51
175
0
LINE
8
0
10
247.3016225
20
12.816162
11
246.0378643
21
-1.6286611
0
ARC
8
0
10
247.034059
20
-1.7158169
40
1
50
175
51
265
0
LINE
8
0
10
248.4285509
20
14.2232983
11
263.8695687
21
12.8723843
0
ARC
8
0
10
263.9567245
20
13.868579
40
1
50
265
51
355
0
LINE
8
0
10
264.9529192
20
13.7814233
11
266.2166774
21
28.2262464
0
ARC
8
0
10
265.2204827
20
28.3134022
40
1
50
355
51
85
0
LINE
8
0
10
265.3076385
20
29.3095969
11
249.8666207
21
30.6605109
0
ARC
8
0
10
249.7794649
20
29.6643162
40
1
50
85
51
175
0
LINE
8
0
10
248.7832702
20
29.7514719
11
247.519512
21
15.3066488
0
ARC
8
0
10
248.5157067
20
15.219493
40
1
50
175
51
265
0
LINE
8
0
10
249.9101985
20
31.1586082
11
265.3512163
21
29.8076942
0
ARC
8
0
10
265.4383721
20
30.8038889
40
1
50
265
51
355
0
LINE
8
0
10
266.4345668
20
30.7167332
11
267.698325
21
45.1615563
0
ARC
8
0
10
266.7021303
20
45.2487121
40
1
50
355
51
85
0
LINE
8
0
10
266.7892861
20
46.2449068
11
251.3482683
21
47.5958208
0
ARC
8
0
10
251.2611125
20
46.5996261
40
1
50
85
51
175
0
LINE
8
0
10
250.2649178
20
46.6867818
11
249.0011596
21
32.2419587
0
ARC
8
0
10
249.9973543
20
32.1548029
40
1
50
175
51
265
0
LINE
8
0
10
229.5006458
20
4.9937896
11
245.0006458
21
4.9937896
0
ARC
8
0
10
245.0006458
20
5.9937896
40
1
50
270
51
360
0
LINE
8
0
10
246.0006458
20
5.9937896
11
246.0006458
21
20.4937896
0
ARC
8
0
10
245.0006458
20
20.4937896
40
1
50
0
51
90
0
LINE
8
0
10
245.0006458
20
21.4937896
11
229.5006458
21
21.4937896
0
ARC
8
0
10
229.5006458
20
20.4937896
40
1
50
90
51
180
0
LINE
8
0
10
228.5006458
20
20.4937896
11
228.5006458
21
5.9937896
0
ARC
8
0
10
229.5006458
20
5.9937896
40
1
50
180
51
270
0
LINE
8
0
10
229.5006458
20
21.9937897
11
245.0006458
21
21.9937897
0
ARC
8
0
10
245.0006458
20
22.9937897
40
1
50
270
51
360
0
LINE
8
0
10
246.0006458
20
22.9937897
11
246.0006458
21
37.4937897
0
ARC
8
0
10
245.0006458
20
37.4937897
40
1
50
0
51
90
0
LINE
8
0
10
245.0006458
20
38.4937897
11
229.5006458
21
38.4937897
0
ARC
8
0
10
229.5006458
20
37.4937897
40
1
50
90
51
180
0
LINE
8
0
10
228.5006458
20
37.4937897
11
228.5006458
21
22.9937897
0
ARC
8
0
10
229.5006458
20
22.9937897
40
1
50
180
51
270
0
LINE
8
0
10
229.5006457
20
38.9937896
11
245.0006457
21
38.9937896
0
ARC
8
0
10
245.0006457
20
39.9937896
40
1
50
270
51
360
0
LINE
8
0
10
246.0006457
20
39.9937896
11
246.0006457
21
54.4937896
0
ARC
8
0
10
245.0006457
20
54.4937896
40
1
50
0
51
90
0
LINE
8
0
10
245.0006457
20
55.4937896
11
229.5006457
21
55.4937896
0
ARC
8
0
10
229.5006457
20
54.4937896
40
1
50
90
51
180
0
LINE
8
0
10
228.5006457
20
54.4937896
11
228.5006457
21
39.9937896
0
ARC
8
0
10
229.5006457
20
39.9937896
40
1
50
180
51
270
0
LINE
8
0
10
211.5006457
20
8.3937896
11
227.0006457
21
8.3937896
0
ARC
8
0
10
227.0006457
20
9.3937896
40
1
50
270
51
360
0
LINE
8
0
10
228.0006457
20
9.3937896
11
228.0006457
21
23.8937896
0
ARC
8
0
10
227.0006457
20
23.8937896
40
1
50
0
51
90
0
LINE
8
0
10
227.0006457
20
24.8937896
11
211.5006457
21
24.8937896
0
ARC
8
0
10
211.5006457
20
23.8937896
40
1
50
90
51
180
0
LINE
8
0
10
210.5006457
20
23.8937896
11
210.5006457
21
9.3937896
0
ARC
8
0
10
211.5006457
20
9.3937896
40
1
50
180
51
270
0
LINE
8
0
10
211.5006458
20
25.3937897
11
227.0006458
21
25.3937897
0
ARC
8
0
10
227.0006458
20
26.3937897
40
1
50
270
51
360
0
LINE
8
0
10
228.0006458
20
26.3937897
11
228.0006458
21
40.8937897
0
ARC
8
0
10
227.0006458
20
40.8937897
40
1
50
0
51
90
0
LINE
8
0
10
227.0006458
20
41.8937897
11
211.5006458
21
41.8937897
0
ARC
8
0
10
211.5006458
20
40.8937897
40
1
50
90
51
180
0
LINE
8
0
10
210.5006458
20
40.8937897
11
210.5006458
21
26.3937897
0
ARC
8
0
10
211.5006458
20
26.3937897
40
1
50
180
51
270
0
LINE
8
0
10
211.5006458
20
42.3937896
11
227.0006458
21
42.3937896
0
ARC
8
0
10
227.0006458
20
43.3937896
40
1
50
270
51
360
0
LINE
8
0
10
228.0006458
20
43.3937896
11
228.0006458
21
57.8937896
0
ARC
8
0
10
227.0006458
20
57.8937896
40
1
50
0
51
90
0
LINE
8
0
10
227.0006458
20
58.8937896
11
211.5006458
21
58.8937896
0
ARC
8
0
10
211.5006458
20
57.8937896
40
1
50
90
51
180
0
LINE
8
0
10
210.5006458
20
57.8937896
11
210.5006458
21
43.3937896
0
ARC
8
0
10
211.5006458
20
43.3937896
40
1
50
180
51
270
0
LINE
8
0
10
193.5006458
20
4.9937897
11
209.0006458
21
4.9937897
0
ARC
8
0
10
209.0006458
20
5.9937897
40
1
50
270
51
360
0
LINE
8
0
10
210.0006458
20
5.9937897
11
210.0006458
21
20.4937897
0
ARC
8
0
10
209.0006458
20
20.4937897
40
1
50
0
51
90
0
LINE
8
0
10
209.0006458
20
21.4937897
11
193.5006458
21
21.4937897
0
ARC
8
0
10
193.5006458
20
20.4937897
40
1
50
90
51
180
0
LINE
8
0
10
192.5006458
20
20.4937897
11
192.5006458
21
5.9937897
0
ARC
8
0
10
193.5006458
20
5.9937897
40
1
50
180
51
270
0
LINE
8
0
10
193.5006457
20
21.9937896
11
209.0006457
21
21.9937896
0
ARC
8
0
10
209.0006457
20
22.9937896
40
1
50
270
51
360
0
LINE
8
0
10
210.0006457
20
22.9937896
11
210.0006457
21
37.4937896
0
ARC
8
0
10
209.0006457
20
37.4937896
40
1
50
0
51
90
0
LINE
8
0
10
209.0006457
20
38.4937896
11
193.5006457
21
38.4937896
0
ARC
8
0
10
193.5006457
20
37.4937896
40
1
50
90
51
180
0
LINE
8
0
10
192.5006457
20
37.4937896
11
192.5006457
21
22.9937896
0
ARC
8
0
10
193.5006457
20
22.9937896
40
1
50
180
51
270
0
LINE
8
0
10
193.5006457
20
38.9937896
11
209.0006457
21
38.9937896
0
ARC
8
0
10
209.0006457
20
39.9937896
40
1
50
270
51
360
0
LINE
8
0
10
210.0006457
20
39.9937896
11
210.0006457
21
54.4937896
0
ARC
8
0
10
209.0006457
20
54.4937896
40
1
50
0
51
90
0
LINE
8
0
10
209.0006457
20
55.4937896
11
193.5006457
21
55.4937896
0
ARC
8
0
10
193.5006457
20
54.4937896
40
1
50
90
51
180
0
LINE
8
0
10
192.5006457
20
54.4937896
11
192.5006457
21
39.9937896
0
ARC
8
0
10
193.5006457
20
39.9937896
40
1
50
180
51
270
0
LINE
8
0
10
175.5006458
20
3.2937896
11
191.0006458
21
3.2937896
0
ARC
8
0
10
191.0006458
20
4.2937896
40
1
50
270
51
360
0
LINE
8
0
10
192.0006458
20
4.2937896
11
192.0006458
21
18.7937896
0
ARC
8
0
10
191.0006458
20
18.7937896
40
1
50
0
51
90
0
LINE
8
0
10
191.0006458
20
19.7937896
11
175.5006458
21
19.7937896
0
ARC
8
0
10
175.5006458
20
18.7937896
40
1
50
90
51
180
0
LINE
8
0
10
174.5006458
20
18.7937896
11
174.5006458
21
4.2937896
0
ARC
8
0
10
175.5006458
20
4.2937896
40
1
50
180
51
270
0
LINE
8
0
10
175.5006457
20
20.2937897
11
191.0006457
21
20.2937897
0
ARC
8
0
10
191.0006457
20
21.2937897
40
1
50
270
51
360
0
LINE
8
0
10
192.0006457
20
21.2937897
11
192.0006457
21
35.7937897
0
ARC
8
0
10
191.0006457
20
35.7937897
40
1
50
0
51
90
0
LINE
8
0
10
191.0006457
20
36.7937897
11
175.5006457
21
36.7937897
0
ARC
8
0
10
175.5006457
20
35.7937897
40
1
50
90
51
180
0
LINE
8
0
10
174.5006457
20
35.7937897
11
174.5006457
21
21.2937897
0
ARC
8
0
10
175.5006457
20
21.2937897
40
1
50
180
51
270
0
LINE
8
0
10
175.5006457
20
37.2937896
11
191.0006457
21
37.2937896
0
ARC
8
0
10
191.0006457
20
38.2937896
40
1
50
270
51
360
0
LINE
8
0
10
192.0006457
20
38.2937896
11
192.0006457
21
52.7937896
0
ARC
8
0
10
191.0006457
20
52.7937896
40
1
50
0
51
90
0
LINE
8
0
10
191.0006457
20
53.7937896
11
175.5006457
21
53.7937896
0
ARC
8
0
10
175.5006457
20
52.7937896
40
1
50
90
51
180
0
LINE
8
0
10
174.5006457
20
52.7937896
11
174.5006457
21
38.2937896
0
ARC
8
0
10
175.5006457
20
38.2937896
40
1
50
180
51
270
0
LINE
8
0
10
98.1006456
20
-22.6812103
11
98.1006456
21
1.5687897
0
ARC
8
0
10
97.1006456
20
1.5687897
40
1
50
0
51
90
0
LINE
8
0
10
97.1006456
20
2.5687897
11
82.6006456
21
2.5687897
0
ARC
8
0
10
82.6006456
20
1.5687897
40
1
50
90
51
180
0
LINE
8
0
10
81.6006456
20
1.5687897
11
81.6006456
21
-22.6812103
0
ARC
8
0
10
82.6006456
20
-22.6812103
40
1
50
180
51
270
0
LINE
8
0
10
82.6006456
20
-23.6812103
11
97.1006456
21
-23.6812103
0
ARC
8
0
10
97.1006456
20
-22.6812103
40
1
50
270
51
0
0
LINE
8
0
10
115.0943919
20
-26.479013
11
120.549455
21
-2.850539
0
ARC
8
0
10
119.5750849
20
-2.6255879
40
1
50
347
51
77
0
LINE
8
0
10
119.800036
20
-1.6512178
11
105.67167
21
1.6105724
0
ARC
8
0
10
105.446719
20
0.6362024
40
1
50
77
51
167
0
LINE
8
0
10
104.4723489
20
0.8611534
11
99.0172858
21
-22.7673206
0
ARC
8
0
10
99.9916559
20
-22.9922717
40
1
50
167
51
257
0
LINE
8
0
10
99.7667048
20
-23.9666418
11
113.8950708
21
-27.228432
0
ARC
8
0
10
114.1200218
20
-26.254062
40
1
50
257
51
347
0
LINE
8
0
10
130.7982698
20
-34.0022394
11
141.4287701
21
-12.2064837
0
ARC
8
0
10
140.5299761
20
-11.7681126
40
1
50
334
51
64
0
LINE
8
0
10
140.9683472
20
-10.8693186
11
127.9358336
21
-4.5129369
0
ARC
8
0
10
127.4974624
20
-5.411731
40
1
50
64
51
154
0
LINE
8
0
10
126.5986684
20
-4.9733598
11
115.9681681
21
-26.7691155
0
ARC
8
0
10
116.8669621
20
-27.2074866
40
1
50
154
51
244
0
LINE
8
0
10
116.428591
20
-28.1062806
11
129.4611046
21
-34.4626623
0
ARC
8
0
10
129.8994758
20
-33.5638682
40
1
50
244
51
334
0
LINE
8
0
10
193.0006458
20
1.5687897
11
193.0006458
21
-22.6812103
0
ARC
8
0
10
194.0006458
20
-22.6812103
40
1
50
180
51
270
0
LINE
8
0
10
194.0006458
20
-23.6812103
11
208.5006458
21
-23.6812103
0
ARC
8
0
10
208.5006458
20
-22.6812103
40
1
50
270
51
0
0
LINE
8
0
10
209.5006458
20
-22.6812103
11
209.5006458
21
1.5687897
0
ARC
8
0
10
208.5006458
20
1.5687897
40
1
50
0
51
90
0
LINE
8
0
10
208.5006458
20
2.5687897
11
194.0006458
21
2.5687897
0
ARC
8
0
10
194.0006458
20
1.5687897
40
1
50
90
51
180
0
LINE
8
0
10
170.5518364
20
-2.850539
11
176.0068995
21
-26.479013
0
ARC
8
0
10
176.9812696
20
-26.254062
40
1
50
193
51
283
0
LINE
8
0
10
177.2062206
20
-27.228432
11
191.3345866
21
-23.9666418
0
ARC
8
0
10
191.1096355
20
-22.9922717
40
1
50
283
51
13
0
LINE
8
0
10
192.0840056
20
-22.7673206
11
186.6289425
21
0.8611534
0
ARC
8
0
10
185.6545724
20
0.6362024
40
1
50
13
51
103
0
LINE
8
0
10
185.4296214
20
1.6105724
11
171.3012554
21
-1.6512178
0
ARC
8
0
10
171.5262065
20
-2.6255879
40
1
50
103
51
193
0
LINE
8
0
10
149.6725213
20
-12.2064837
11
160.3030216
21
-34.0022394
0
ARC
8
0
10
161.2018156
20
-33.5638682
40
1
50
206
51
296
0
LINE
8
0
10
161.6401868
20
-34.4626623
11
174.6727004
21
-28.1062806
0
ARC
8
0
10
174.2343293
20
-27.2074866
40
1
50
296
51
26
0
LINE
8
0
10
175.1331233
20
-26.7691155
11
164.502623
21
-4.9733598
0
ARC
8
0
10
163.603829
20
-5.411731
40
1
50
26
51
116
0
LINE
8
0
10
163.1654578
20
-4.5129369
11
150.1329442
21
-10.8693186
0
ARC
8
0
10
150.5713153
20
-11.7681126
40
1
50
116
51
206
0
ENDSEC
0
EOF