0
SECTION
2
HEADER
9
$INSUNITS
70
4
0
ENDSEC
0
SECTION
2
TABLES
0
TABLE
2
LTYPE
0
LTYPE
72
65
70
64
2
CONTINUOUS
3
______
73
0
40
0
0
ENDTAB
0
TABLE
2
LAYER
0
ENDTAB
0
ENDSEC
0
SECTION
2
ENTITIES
0
LINE
8
0
10
9.7937319
20
-8.6794479
11
57.3506456
21
-4.518757
0
LINE
8
0
10
7.2287728
20
9.1644554
11
8.7103814
21
-7.770409
0
ARC
8
0
10
9.7065761
20
-7.6832532
40
1
50
185
51
275
0
LINE
8
0
10
7.2287338
20
9.1649009
11
5.7470861
21
26.1002107
0
LINE
8
0
10
4.2654385
20
43.0355206
11
5.7470472
21
26.1006562
0
ARC
8
0
10
6.7432808
20
26.1873664
40
1
50
184.9743752
51
185
0
ARC
8
0
10
8.2249284
20
9.2520566
40
1
50
185
51
185.0256209
0
LINE
8
0
10
22.1097873
20
45.6005187
11
5.1744775
21
44.118871
0
ARC
8
0
10
5.2616332
20
43.1226763
40
1
50
95
51
185
0
LINE
8
0
10
22.9578173
20
47.3812054
11
43.8506457
21
49.2090911
0
ARC
8
0
10
23.044973
20
46.3850107
40
1
50
95
51
185
0
LINE
8
0
10
22.0487783
20
46.297855
11
22.1097873
21
45.6005187
0
LINE
8
0
10
61.8506456
20
56.7437896
11
44.8506457
21
56.7437896
0
ARC
8
0
10
44.8506457
20
55.7437896
40
1
50
90
51
180
0
LINE
8
0
10
43.8506457
20
55.7437896
11
43.8506457
21
49.2090911
0
LINE
8
0
10
81.8506456
20
56.7437896
11
81.8506456
21
59.1437896
0
ARC
8
0
10
80.8506456
20
59.1437896
40
1
50
0
51
90
0
LINE
8
0
10
80.8506456
20
60.1437896
11
62.8506456
21
60.1437896
0
ARC
8
0
10
62.8506456
20
59.1437896
40
1
50
90
51
180
0
LINE
8
0
10
61.8506456
20
59.1437896
11
61.8506456
21
56.7437896
0
LINE
8
0
10
99.8506457
20
55.0437896
11
99.8506457
21
55.7437896
0
ARC
8
0
10
98.8506457
20
55.7437896
40
1
50
0
51
90
0
LINE
8
0
10
98.8506457
20
56.7437896
11
81.8506456
21
56.7437896
0
LINE
8
0
10
117.8506456
20
0.2100025
11
117.8506456
21
20.0433425
0
ARC
8
0
10
116.8506457
20
20.0437897
40
1
50
359.9743773
51
360
0
LINE
8
0
10
117.8506457
20
20.0437897
11
117.8506457
21
54.0437896
0
ARC
8
0
10
116.8506457
20
54.0437896
40
1
50
0
51
90
0
LINE
8
0
10
116.8506457
20
55.0437896
11
99.8506457
21
55.0437896
0
LINE
8
0
10
233.7506458
20
-4.518757
11
281.3075595
21
-8.6794479
0
ARC
8
0
10
281.3947153
20
-7.6832532
40
1
50
265
51
355
0
LINE
8
0
10
282.39091
20
-7.770409
11
283.8725186
21
9.1644554
0
LINE
8
0
10
285.3542442
20
26.1006562
11
286.8358529
21
43.0355206
0
LINE
8
0
10
285.3542053
20
26.1002107
11
283.8725576
21
9.1649009
0
ARC
8
0
10
282.876363
20
9.2520566
40
1
50
354.9743791
51
355
0
ARC
8
0
10
285.8396582
20
43.1226763
40
1
50
355
51
85
0
LINE
8
0
10
285.9268139
20
44.118871
11
268.9915041
21
45.6005187
0
LINE
8
0
10
268.9915041
20
45.6005187
11
269.0525131
21
46.297855
0
ARC
8
0
10
268.0563184
20
46.3850107
40
1
50
355
51
85
0
LINE
8
0
10
247.2506457
20
49.2090911
11
268.1434741
21
47.3812054
0
LINE
8
0
10
247.2506457
20
49.2090911
11
247.2506457
21
55.7437896
0
ARC
8
0
10
246.2506457
20
55.7437896
40
1
50
0
51
90
0
LINE
8
0
10
246.2506457
20
56.7437896
11
229.2506458
21
56.7437896
0
LINE
8
0
10
229.2506458
20
56.7437896
11
229.2506458
21
59.1437896
0
ARC
8
0
10
228.2506458
20
59.1437896
40
1
50
0
51
90
0
LINE
8
0
10
228.2506458
20
60.1437896
11
210.2506458
21
60.1437896
0
ARC
8
0
10
210.2506458
20
59.1437896
40
1
50
90
51
180
0
LINE
8
0
10
209.2506458
20
59.1437896
11
209.2506458
21
56.7437896
0
LINE
8
0
10
209.2506458
20
56.7437896
11
192.2506457
21
56.7437896
0
ARC
8
0
10
192.2506457
20
55.7437896
40
1
50
90
51
180
0
LINE
8
0
10
191.2506457
20
55.7437896
11
191.2506457
21
55.0437896
0
LINE
8
0
10
173.2506458
20
0.2100025
11
173.2506458
21
20.0433425
0
LINE
8
0
10
173.2506457
20
20.0437897
11
173.2506457
21
54.0437896
0
ARC
8
0
10
174.2506457
20
20.0437897
40
1
50
180
51
180.0256227
0
LINE
8
0
10
191.2506457
20
55.0437896
11
174.2506457
21
55.0437896
0
ARC
8
0
10
174.2506457
20
54.0437896
40
1
50
90
51
180
0
LINE
8
0
10
57.3506456
20
-25.0562103
11
98.3737039
21
-25.0562103
0
LINE
8
0
10
57.3506456
20
-25.0562103
11
57.3506456
21
-4.518757
0
LINE
8
0
10
117.8506456
20
0.2100025
11
124.4745215
21
-1.3192397
0
LINE
8
0
10
98.3737039
20
-25.0562103
11
114.8261934
21
-28.8545668
0
LINE
8
0
10
124.4745215
20
-1.3192397
11
124.4434901
21
-1.4536516
0
LINE
8
0
10
131.3190021
20
-35.7860451
11
143.155023
21
-11.5186059
0
ARC
8
0
10
142.256229
20
-11.0802347
40
1
50
334
51
64
0
LINE
8
0
10
124.5119966
20
-1.3131924
11
142.6946001
21
-10.1814407
0
LINE
8
0
10
114.8261934
20
-28.8545668
11
129.9818369
21
-36.246468
0
ARC
8
0
10
130.420208
20
-35.347674
40
1
50
244
51
334
0
LINE
8
0
10
124.4434901
20
-1.4536516
11
124.5119966
21
-1.3131924
0
LINE
8
0
10
192.7275875
20
-25.0562103
11
233.7506458
21
-25.0562103
0
LINE
8
0
10
233.7506458
20
-25.0562103
11
233.7506458
21
-4.518757
0
LINE
8
0
10
176.275098
20
-28.8545668
11
192.7275875
21
-25.0562103
0
LINE
8
0
10
166.6267699
20
-1.3192397
11
173.2506458
21
0.2100025
0
LINE
8
0
10
166.6578013
20
-1.4536516
11
166.6267699
21
-1.3192397
0
LINE
8
0
10
147.9462684
20
-11.5186059
11
159.7822893
21
-35.7860451
0
ARC
8
0
10
160.6810834
20
-35.347674
40
1
50
206
51
296
0
LINE
8
0
10
161.1194545
20
-36.246468
11
176.275098
21
-28.8545668
0
LINE
8
0
10
148.4066913
20
-10.1814407
11
166.5892948
21
-1.3131924
0
ARC
8
0
10
148.8450624
20
-11.0802347
40
1
50
116
51
206
0
LINE
8
0
10
166.5892948
20
-1.3131924
11
166.6578013
21
-1.4536516
0
ENDSEC
0
EOF