0
SECTION
2
HEADER
9
$INSUNITS
70
4
0
ENDSEC
0
SECTION
2
TABLES
0
TABLE
2
LTYPE
0
LTYPE
72
65
70
64
2
CONTINUOUS
3
______
73
0
40
0
0
ENDTAB
0
TABLE
2
LAYER
0
ENDTAB
0
ENDSEC
0
SECTION
2
ENTITIES
0
LINE
8
0
10
10.9300306
20
-7.3252599
11
26.3710484
21
-5.9743459
0
ARC
8
0
10
26.2838926
20
-4.9781512
40
1
50
275
51
5
0
LINE
8
0
10
27.2800873
20
-4.8909954
11
26.0163291
21
9.5538277
0
ARC
8
0
10
25.0201344
20
9.466672
40
1
50
5
51
95
0
LINE
8
0
10
24.9329786
20
10.4628667
11
9.4919608
21
9.1119527
0
ARC
8
0
10
9.5791166
20
8.115758
40
1
50
95
51
185
0
LINE
8
0
10
8.5829219
20
8.0286022
11
9.8466801
21
-6.4162209
0
ARC
8
0
10
10.8428748
20
-6.3290652
40
1
50
185
51
275
0
LINE
8
0
10
9.4483829
20
9.6100499
11
24.8894007
21
10.9609639
0
ARC
8
0
10
24.8022449
20
11.9571586
40
1
50
275
51
5
0
LINE
8
0
10
25.7984396
20
12.0443144
11
24.5346814
21
26.4891375
0
ARC
8
0
10
23.5384867
20
26.4019818
40
1
50
5
51
95
0
LINE
8
0
10
23.4513309
20
27.3981765
11
8.0103131
21
26.0472625
0
ARC
8
0
10
8.0974689
20
25.0510678
40
1
50
95
51
185
0
LINE
8
0
10
7.1012742
20
24.963912
11
8.3650324
21
10.5190889
0
ARC
8
0
10
9.3612271
20
10.6062446
40
1
50
185
51
275
0
LINE
8
0
10
7.9667353
20
26.5453598
11
23.4077531
21
27.8962738
0
ARC
8
0
10
23.3205973
20
28.8924685
40
1
50
275
51
5
0
LINE
8
0
10
24.316792
20
28.9796243
11
23.0530338
21
43.4244474
0
ARC
8
0
10
22.0568391
20
43.3372917
40
1
50
5
51
95
0
LINE
8
0
10
21.9696833
20
44.3334864
11
6.5286655
21
42.9825724
0
ARC
8
0
10
6.6158213
20
41.9863777
40
1
50
95
51
185
0
LINE
8
0
10
5.6196266
20
41.8992219
11
6.8833848
21
27.4543988
0
ARC
8
0
10
7.8795795
20
27.5415545
40
1
50
185
51
275
0
LINE
8
0
10
28.7133704
20
-4.0629256
11
44.1543882
21
-2.7120116
0
ARC
8
0
10
44.0672324
20
-1.7158169
40
1
50
275
51
5
0
LINE
8
0
10
45.0634271
20
-1.6286611
11
43.7996689
21
12.816162
0
ARC
8
0
10
42.8034742
20
12.7290063
40
1
50
5
51
95
0
LINE
8
0
10
42.7163184
20
13.725201
11
27.2753006
21
12.374287
0
ARC
8
0
10
27.3624564
20
11.3780923
40
1
50
95
51
185
0
LINE
8
0
10
26.3662617
20
11.2909365
11
27.6300199
21
-3.1538866
0
ARC
8
0
10
28.6262146
20
-3.0667309
40
1
50
185
51
275
0
LINE
8
0
10
27.2317227
20
12.8723843
11
42.6727405
21
14.2232983
0
ARC
8
0
10
42.5855847
20
15.219493
40
1
50
275
51
5
0
LINE
8
0
10
43.5817794
20
15.3066488
11
42.3180212
21
29.7514719
0
ARC
8
0
10
41.3218265
20
29.6643162
40
1
50
5
51
95
0
LINE
8
0
10
41.2346707
20
30.6605109
11
25.7936529
21
29.3095969
0
ARC
8
0
10
25.8808087
20
28.3134022
40
1
50
95
51
185
0
LINE
8
0
10
24.884614
20
28.2262464
11
26.1483722
21
13.7814233
0
ARC
8
0
10
27.1445669
20
13.868579
40
1
50
185
51
275
0
LINE
8
0
10
25.7500751
20
29.8076942
11
41.1910929
21
31.1586082
0
ARC
8
0
10
41.1039371
20
32.1548029
40
1
50
275
51
5
0
LINE
8
0
10
42.1001318
20
32.2419587
11
40.8363736
21
46.6867818
0
ARC
8
0
10
39.8401789
20
46.5996261
40
1
50
5
51
95
0
LINE
8
0
10
39.7530231
20
47.5958208
11
24.3120053
21
46.2449068
0
ARC
8
0
10
24.3991611
20
45.2487121
40
1
50
95
51
185
0
LINE
8
0
10
23.4029664
20
45.1615563
11
24.6667246
21
30.7167332
0
ARC
8
0
10
25.6629193
20
30.8038889
40
1
50
185
51
275
0
LINE
8
0
10
46.1006456
20
4.9937896
11
61.6006456
21
4.9937896
0
ARC
8
0
10
61.6006456
20
5.9937896
40
1
50
270
51
360
0
LINE
8
0
10
62.6006456
20
5.9937896
11
62.6006456
21
20.4937896
0
ARC
8
0
10
61.6006456
20
20.4937896
40
1
50
0
51
90
0
LINE
8
0
10
61.6006456
20
21.4937896
11
46.1006456
21
21.4937896
0
ARC
8
0
10
46.1006456
20
20.4937896
40
1
50
90
51
180
0
LINE
8
0
10
45.1006456
20
20.4937896
11
45.1006456
21
5.9937896
0
ARC
8
0
10
46.1006456
20
5.9937896
40
1
50
180
51
270
0
LINE
8
0
10
46.1006456
20
21.9937897
11
61.6006456
21
21.9937897
0
ARC
8
0
10
61.6006456
20
22.9937897
40
1
50
270
51
360
0
LINE
8
0
10
62.6006456
20
22.9937897
11
62.6006456
21
37.4937897
0
ARC
8
0
10
61.6006456
20
37.4937897
40
1
50
0
51
90
0
LINE
8
0
10
61.6006456
20
38.4937897
11
46.1006456
21
38.4937897
0
ARC
8
0
10
46.1006456
20
37.4937897
40
1
50
90
51
180
0
LINE
8
0
10
45.1006456
20
37.4937897
11
45.1006456
21
22.9937897
0
ARC
8
0
10
46.1006456
20
22.9937897
40
1
50
180
51
270
0
LINE
8
0
10
46.1006457
20
38.9937896
11
61.6006457
21
38.9937896
0
ARC
8
0
10
61.6006457
20
39.9937896
40
1
50
270
51
360
0
LINE
8
0
10
62.6006457
20
39.9937896
11
62.6006457
21
54.4937896
0
ARC
8
0
10
61.6006457
20
54.4937896
40
1
50
0
51
90
0
LINE
8
0
10
61.6006457
20
55.4937896
11
46.1006457
21
55.4937896
0
ARC
8
0
10
46.1006457
20
54.4937896
40
1
50
90
51
180
0
LINE
8
0
10
45.1006457
20
54.4937896
11
45.1006457
21
39.9937896
0
ARC
8
0
10
46.1006457
20
39.9937896
40
1
50
180
51
270
0
LINE
8
0
10
64.1006457
20
8.3937896
11
79.6006457
21
8.3937896
0
ARC
8
0
10
79.6006457
20
9.3937896
40
1
50
270
51
360
0
LINE
8
0
10
80.6006457
20
9.3937896
11
80.6006457
21
23.8937896
0
ARC
8
0
10
79.6006457
20
23.8937896
40
1
50
0
51
90
0
LINE
8
0
10
79.6006457
20
24.8937896
11
64.1006457
21
24.8937896
0
ARC
8
0
10
64.1006457
20
23.8937896
40
1
50
90
51
180
0
LINE
8
0
10
63.1006457
20
23.8937896
11
63.1006457
21
9.3937896
0
ARC
8
0
10
64.1006457
20
9.3937896
40
1
50
180
51
270
0
LINE
8
0
10
64.1006456
20
25.3937897
11
79.6006456
21
25.3937897
0
ARC
8
0
10
79.6006456
20
26.3937897
40
1
50
270
51
360
0
LINE
8
0
10
80.6006456
20
26.3937897
11
80.6006456
21
40.8937897
0
ARC
8
0
10
79.6006456
20
40.8937897
40
1
50
0
51
90
0
LINE
8
0
10
79.6006456
20
41.8937897
11
64.1006456
21
41.8937897
0
ARC
8
0
10
64.1006456
20
40.8937897
40
1
50
90
51
180
0
LINE
8
0
10
63.1006456
20
40.8937897
11
63.1006456
21
26.3937897
0
ARC
8
0
10
64.1006456
20
26.3937897
40
1
50
180
51
270
0
LINE
8
0
10
64.1006456
20
42.3937896
11
79.6006456
21
42.3937896
0
ARC
8
0
10
79.6006456
20
43.3937896
40
1
50
270
51
360
0
LINE
8
0
10
80.6006456
20
43.3937896
11
80.6006456
21
57.8937896
0
ARC
8
0
10
79.6006456
20
57.8937896
40
1
50
0
51
90
0
LINE
8
0
10
79.6006456
20
58.8937896
11
64.1006456
21
58.8937896
0
ARC
8
0
10
64.1006456
20
57.8937896
40
1
50
90
51
180
0
LINE
8
0
10
63.1006456
20
57.8937896
11
63.1006456
21
43.3937896
0
ARC
8
0
10
64.1006456
20
43.3937896
40
1
50
180
51
270
0
LINE
8
0
10
82.1006456
20
4.9937897
11
97.6006456
21
4.9937897
0
ARC
8
0
10
97.6006456
20
5.9937897
40
1
50
270
51
360
0
LINE
8
0
10
98.6006456
20
5.9937897
11
98.6006456
21
20.4937897
0
ARC
8
0
10
97.6006456
20
20.4937897
40
1
50
0
51
90
0
LINE
8
0
10
97.6006456
20
21.4937897
11
82.1006456
21
21.4937897
0
ARC
8
0
10
82.1006456
20
20.4937897
40
1
50
90
51
180
0
LINE
8
0
10
81.1006456
20
20.4937897
11
81.1006456
21
5.9937897
0
ARC
8
0
10
82.1006456
20
5.9937897
40
1
50
180
51
270
0
LINE
8
0
10
82.1006457
20
21.9937896
11
97.6006457
21
21.9937896
0
ARC
8
0
10
97.6006457
20
22.9937896
40
1
50
270
51
360
0
LINE
8
0
10
98.6006457
20
22.9937896
11
98.6006457
21
37.4937896
0
ARC
8
0
10
97.6006457
20
37.4937896
40
1
50
0
51
90
0
LINE
8
0
10
97.6006457
20
38.4937896
11
82.1006457
21
38.4937896
0
ARC
8
0
10
82.1006457
20
37.4937896
40
1
50
90
51
180
0
LINE
8
0
10
81.1006457
20
37.4937896
11
81.1006457
21
22.9937896
0
ARC
8
0
10
82.1006457
20
22.9937896
40
1
50
180
51
270
0
LINE
8
0
10
82.1006457
20
38.9937896
11
97.6006457
21
38.9937896
0
ARC
8
0
10
97.6006457
20
39.9937896
40
1
50
270
51
360
0
LINE
8
0
10
98.6006457
20
39.9937896
11
98.6006457
21
54.4937896
0
ARC
8
0
10
97.6006457
20
54.4937896
40
1
50
0
51
90
0
LINE
8
0
10
97.6006457
20
55.4937896
11
82.1006457
21
55.4937896
0
ARC
8
0
10
82.1006457
20
54.4937896
40
1
50
90
51
180
0
LINE
8
0
10
81.1006457
20
54.4937896
11
81.1006457
21
39.9937896
0
ARC
8
0
10
82.1006457
20
39.9937896
40
1
50
180
51
270
0
LINE
8
0
10
100.1006456
20
3.2937896
11
115.6006456
21
3.2937896
0
ARC
8
0
10
115.6006456
20
4.2937896
40
1
50
270
51
360
0
LINE
8
0
10
116.6006456
20
4.2937896
11
116.6006456
21
18.7937896
0
ARC
8
0
10
115.6006456
20
18.7937896
40
1
50
0
51
90
0
LINE
8
0
10
115.6006456
20
19.7937896
11
100.1006456
21
19.7937896
0
ARC
8
0
10
100.1006456
20
18.7937896
40
1
50
90
51
180
0
LINE
8
0
10
99.1006456
20
18.7937896
11
99.1006456
21
4.2937896
0
ARC
8
0
10
100.1006456
20
4.2937896
40
1
50
180
51
270
0
LINE
8
0
10
100.1006457
20
20.2937897
11
115.6006457
21
20.2937897
0
ARC
8
0
10
115.6006457
20
21.2937897
40
1
50
270
51
360
0
LINE
8
0
10
116.6006457
20
21.2937897
11
116.6006457
21
35.7937897
0
ARC
8
0
10
115.6006457
20
35.7937897
40
1
50
0
51
90
0
LINE
8
0
10
115.6006457
20
36.7937897
11
100.1006457
21
36.7937897
0
ARC
8
0
10
100.1006457
20
35.7937897
40
1
50
90
51
180
0
LINE
8
0
10
99.1006457
20
35.7937897
11
99.1006457
21
21.2937897
0
ARC
8
0
10
100.1006457
20
21.2937897
40
1
50
180
51
270
0
LINE
8
0
10
100.1006457
20
37.2937896
11
115.6006457
21
37.2937896
0
ARC
8
0
10
115.6006457
20
38.2937896
40
1
50
270
51
360
0
LINE
8
0
10
116.6006457
20
38.2937896
11
116.6006457
21
52.7937896
0
ARC
8
0
10
115.6006457
20
52.7937896
40
1
50
0
51
90
0
LINE
8
0
10
115.6006457
20
53.7937896
11
100.1006457
21
53.7937896
0
ARC
8
0
10
100.1006457
20
52.7937896
40
1
50
90
51
180
0
LINE
8
0
10
99.1006457
20
52.7937896
11
99.1006457
21
38.2937896
0
ARC
8
0
10
100.1006457
20
38.2937896
40
1
50
180
51
270
0
LINE
8
0
10
98.1006456
20
-22.6812103
11
98.1006456
21
1.5687897
0
ARC
8
0
10
97.1006456
20
1.5687897
40
1
50
0
51
90
0
LINE
8
0
10
97.1006456
20
2.5687897
11
82.6006456
21
2.5687897
0
ARC
8
0
10
82.6006456
20
1.5687897
40
1
50
90
51
180
0
LINE
8
0
10
81.6006456
20
1.5687897
11
81.6006456
21
-22.6812103
0
ARC
8
0
10
82.6006456
20
-22.6812103
40
1
50
180
51
270
0
LINE
8
0
10
82.6006456
20
-23.6812103
11
97.1006456
21
-23.6812103
0
ARC
8
0
10
97.1006456
20
-22.6812103
40
1
50
270
51
0
0
LINE
8
0
10
115.0943919
20
-26.479013
11
120.549455
21
-2.850539
0
ARC
8
0
10
119.5750849
20
-2.6255879
40
1
50
347
51
77
0
LINE
8
0
10
119.800036
20
-1.6512178
11
105.67167
21
1.6105724
0
ARC
8
0
10
105.446719
20
0.6362024
40
1
50
77
51
167
0
LINE
8
0
10
104.4723489
20
0.8611534
11
99.0172858
21
-22.7673206
0
ARC
8
0
10
99.9916559
20
-22.9922717
40
1
50
167
51
257
0
LINE
8
0
10
99.7667048
20
-23.9666418
11
113.8950708
21
-27.228432
0
ARC
8
0
10
114.1200218
20
-26.254062
40
1
50
257
51
347
0
LINE
8
0
10
130.7982698
20
-34.0022394
11
141.4287701
21
-12.2064837
0
ARC
8
0
10
140.5299761
20
-11.7681126
40
1
50
334
51
64
0
LINE
8
0
10
140.9683472
20
-10.8693186
11
127.9358336
21
-4.5129369
0
ARC
8
0
10
127.4974624
20
-5.411731
40
1
50
64
51
154
0
LINE
8
0
10
126.5986684
20
-4.9733598
11
115.9681681
21
-26.7691155
0
ARC
8
0
10
116.8669621
20
-27.2074866
40
1
50
154
51
244
0
LINE
8
0
10
116.428591
20
-28.1062806
11
129.4611046
21
-34.4626623
0
ARC
8
0
10
129.8994758
20
-33.5638682
40
1
50
244
51
334
0
ENDSEC
0
EOF