0
SECTION
2
HEADER
9
$INSUNITS
70
4
0
ENDSEC
0
SECTION
2
TABLES
0
TABLE
2
LTYPE
0
LTYPE
72
65
70
64
2
CONTINUOUS
3
______
73
0
40
0
0
ENDTAB
0
TABLE
2
LAYER
0
ENDTAB
0
ENDSEC
0
SECTION
2
ENTITIES
0
LINE
8
0
10
9.7937319
20
-8.6794479
11
80.3506456
21
-2.5065178
0
LINE
8
0
10
7.2287728
20
9.1644554
11
8.7103814
21
-7.770409
0
ARC
8
0
10
9.7065761
20
-7.6832532
40
1
50
185
51
275
0
LINE
8
0
10
7.2287338
20
9.1649009
11
5.7470861
21
26.1002107
0
LINE
8
0
10
4.2654385
20
43.0355206
11
5.7470472
21
26.1006562
0
ARC
8
0
10
6.7432808
20
26.1873664
40
1
50
184.9743752
51
185
0
ARC
8
0
10
8.2249284
20
9.2520566
40
1
50
185
51
185.0256209
0
LINE
8
0
10
22.1097873
20
45.6005187
11
5.1744775
21
44.118871
0
ARC
8
0
10
5.2616332
20
43.1226763
40
1
50
95
51
185
0
LINE
8
0
10
22.9578173
20
47.3812054
11
43.8506457
21
49.2090911
0
ARC
8
0
10
23.044973
20
46.3850107
40
1
50
95
51
185
0
LINE
8
0
10
22.0487783
20
46.297855
11
22.1097873
21
45.6005187
0
LINE
8
0
10
61.8506456
20
56.7437896
11
44.8506457
21
56.7437896
0
ARC
8
0
10
44.8506457
20
55.7437896
40
1
50
90
51
180
0
LINE
8
0
10
43.8506457
20
55.7437896
11
43.8506457
21
49.2090911
0
LINE
8
0
10
81.8506456
20
56.7437896
11
81.8506456
21
59.1437896
0
ARC
8
0
10
80.8506456
20
59.1437896
40
1
50
0
51
90
0
LINE
8
0
10
80.8506456
20
60.1437896
11
62.8506456
21
60.1437896
0
ARC
8
0
10
62.8506456
20
59.1437896
40
1
50
90
51
180
0
LINE
8
0
10
61.8506456
20
59.1437896
11
61.8506456
21
56.7437896
0
LINE
8
0
10
99.8506457
20
55.0437896
11
99.8506457
21
55.7437896
0
ARC
8
0
10
98.8506457
20
55.7437896
40
1
50
0
51
90
0
LINE
8
0
10
98.8506457
20
56.7437896
11
81.8506456
21
56.7437896
0
LINE
8
0
10
117.8506456
20
0.2100025
11
117.8506456
21
20.0433425
0
ARC
8
0
10
116.8506457
20
20.0437897
40
1
50
359.9743773
51
360
0
LINE
8
0
10
117.8506457
20
20.0437897
11
117.8506457
21
54.0437896
0
ARC
8
0
10
116.8506457
20
54.0437896
40
1
50
0
51
90
0
LINE
8
0
10
116.8506457
20
55.0437896
11
99.8506457
21
55.0437896
0
LINE
8
0
10
80.3506456
20
-24.0562103
11
80.3506456
21
-2.5065178
0
ARC
8
0
10
81.3506456
20
-24.0562103
40
1
50
180
51
270
0
LINE
8
0
10
81.3506456
20
-25.0562103
11
98.3737039
21
-25.0562103
0
LINE
8
0
10
117.8506456
20
0.2100025
11
123.785553
21
-1.1601788
0
LINE
8
0
10
98.3737039
20
-25.0562103
11
114.8261934
21
-28.8545668
0
LINE
8
0
10
124.5692216
20
-1.3411029
11
125.2247865
21
-1.492452
0
LINE
8
0
10
125.2247865
20
-1.492452
11
125.1898448
21
-1.6438011
0
LINE
8
0
10
131.3190021
20
-35.7860451
11
143.155023
21
-11.5186059
0
ARC
8
0
10
142.256229
20
-11.0802347
40
1
50
334
51
64
0
LINE
8
0
10
125.1898448
20
-1.6438011
11
142.6946001
21
-10.1814407
0
LINE
8
0
10
114.8261934
20
-28.8545668
11
129.9818369
21
-36.246468
0
ARC
8
0
10
130.420208
20
-35.347674
40
1
50
244
51
334
0
LINE
8
0
10
123.785553
20
-1.1601788
11
123.8648649
21
-0.9975652
0
LINE
8
0
10
123.8648649
20
-0.9975652
11
124.5692216
21
-1.3411029
0
ENDSEC
0
EOF