%TF.GenerationSoftware,KiCad,Pcbnew,(6.0.6)*%
%TF.CreationDate,2022-07-14T02:02:08+02:00*%
%TF.ProjectId,main_wired2,6d61696e-5f77-4697-9265-64322e6b6963,v1.0.0*%
%TF.SameCoordinates,Original*%
%TF.FileFunction,Legend,Bot*%
%TF.FilePolarity,Positive*%
%FSLAX46Y46*%
G04 Gerber Fmt 4.6, Leading zero omitted, Abs format (unit mm)*
G04 Created by KiCad (PCBNEW (6.0.6)) date 2022-07-14 02:02:08*
%MOMM*%
%LPD*%
G01*
G04 APERTURE LIST*
%ADD10C,0.100000*%
%ADD11C,0.150000*%
%ADD12C,1.000000*%
G04 APERTURE END LIST*
D10*
%TO.C,D21*%
X125016183Y-21726082D02*
X124521846Y-21484978D01*
X124840835Y-22085600D02*
X125016183Y-21726082D01*
X125016183Y-21726082D02*
X124919688Y-21011457D01*
X125016183Y-21726082D02*
X125510520Y-21967186D01*
X125638723Y-21362154D02*
X125016183Y-21726082D01*
X124919688Y-21011457D02*
X125638723Y-21362154D01*
X125279206Y-21186805D02*
X125498391Y-20737408D01*
%TO.C,D12*%
X63477819Y45911938D02*
X63477819Y45361938D01*
X64077819Y45511938D02*
X63477819Y45911938D01*
X63077819Y45911938D02*
X63477819Y45911938D01*
X64077819Y45911938D02*
X64577819Y45911938D01*
X63477819Y45911938D02*
X63477819Y46461938D01*
X63477819Y45911938D02*
X64077819Y46311938D01*
X64077819Y46311938D02*
X64077819Y45511938D01*
%TO.C,D6*%
X25378687Y34409202D02*
X25448412Y33612246D01*
X25413550Y34010724D02*
X25911647Y34054302D01*
X24417355Y33923568D02*
X24815833Y33958430D01*
X24815833Y33958430D02*
X24863769Y33410523D01*
X25448412Y33612246D02*
X24815833Y33958430D01*
X24815833Y33958430D02*
X24767897Y34506338D01*
X24815833Y33958430D02*
X25378687Y34409202D01*
%TO.C,D9*%
X45077820Y42511937D02*
X45477820Y42511937D01*
X46077820Y42911937D02*
X46077820Y42111937D01*
X45477820Y42511937D02*
X45477820Y41961937D01*
X45477820Y42511937D02*
X46077820Y42911937D01*
X45477820Y42511937D02*
X45477820Y43061937D01*
X46077820Y42111937D02*
X45477820Y42511937D01*
X46077820Y42511937D02*
X46577820Y42511937D01*
%TO.C,D14*%
X81477820Y25511940D02*
X82077820Y25911940D01*
X81077820Y25511940D02*
X81477820Y25511940D01*
X82077820Y25511940D02*
X82577820Y25511940D01*
X81477820Y25511940D02*
X81477820Y24961940D01*
X82077820Y25911940D02*
X82077820Y25111940D01*
X81477820Y25511940D02*
X81477820Y26061940D01*
X82077820Y25111940D02*
X81477820Y25511940D01*
D11*
%TO.C,MCU1*%
X128377817Y51951935D02*
X130917817Y51951935D01*
X128377817Y49411935D02*
X130917817Y49411935D01*
X130917817Y49411935D02*
X130917817Y51951935D01*
X128377817Y51951935D02*
X128377817Y49411935D01*
D10*
%TO.C,D19*%
X86827818Y-10638061D02*
X86427818Y-10038061D01*
X86827818Y-10638061D02*
X86277818Y-10638061D01*
X86827818Y-10038061D02*
X86827818Y-9538061D01*
X86827818Y-11038061D02*
X86827818Y-10638061D01*
X86427818Y-10038061D02*
X87227818Y-10038061D01*
X87227818Y-10038061D02*
X86827818Y-10638061D01*
X86827818Y-10638061D02*
X87377818Y-10638061D01*
%TO.C,D3*%
X7595347Y31146863D02*
X7665072Y30349907D01*
X7032493Y30696091D02*
X6984557Y31243999D01*
X7032493Y30696091D02*
X7595347Y31146863D01*
X7665072Y30349907D02*
X7032493Y30696091D01*
X6634015Y30661229D02*
X7032493Y30696091D01*
X7032493Y30696091D02*
X7080429Y30148184D01*
X7630210Y30748385D02*
X8128307Y30791963D01*
%TO.C,D4*%
X28341982Y538579D02*
X28411707Y-258377D01*
X27779128Y87807D02*
X27827064Y-460100D01*
X27779128Y87807D02*
X28341982Y538579D01*
X27380650Y52945D02*
X27779128Y87807D01*
X27779128Y87807D02*
X27731192Y635715D01*
X28411707Y-258377D02*
X27779128Y87807D01*
X28376845Y140101D02*
X28874942Y183679D01*
%TO.C,D22*%
X119477820Y-188061D02*
X119877820Y-188061D01*
X120477820Y211939D02*
X120477820Y-588061D01*
X119877820Y-188061D02*
X119877820Y361939D01*
X120477820Y-588061D02*
X119877820Y-188061D01*
X119877820Y-188061D02*
X119877820Y-738061D01*
X120477820Y-188061D02*
X120977820Y-188061D01*
X119877820Y-188061D02*
X120477820Y211939D01*
%TO.C,D11*%
X63477817Y28911940D02*
X64077817Y29311940D01*
X63477817Y28911940D02*
X63477817Y28361940D01*
X63477817Y28911940D02*
X63477817Y29461940D01*
X64077817Y28911940D02*
X64577817Y28911940D01*
X63077817Y28911940D02*
X63477817Y28911940D01*
X64077817Y29311940D02*
X64077817Y28511940D01*
X64077817Y28511940D02*
X63477817Y28911940D01*
%TO.C,D15*%
X82077819Y42111939D02*
X81477819Y42511939D01*
X81477819Y42511939D02*
X81477819Y41961939D01*
X82077819Y42511939D02*
X82577819Y42511939D01*
X81077819Y42511939D02*
X81477819Y42511939D01*
X82077819Y42911939D02*
X82077819Y42111939D01*
X81477819Y42511939D02*
X82077819Y42911939D01*
X81477819Y42511939D02*
X81477819Y43061939D01*
%TO.C,D5*%
X25899002Y16988259D02*
X26297480Y17023121D01*
X26860334Y17473893D02*
X26930059Y16676937D01*
X26297480Y17023121D02*
X26345416Y16475214D01*
X26297480Y17023121D02*
X26860334Y17473893D01*
X26297480Y17023121D02*
X26249544Y17571029D01*
X26895197Y17075415D02*
X27393294Y17118993D01*
X26930059Y16676937D02*
X26297480Y17023121D01*
%TO.C,D17*%
X99477819Y23811936D02*
X99477819Y23261936D01*
X100077819Y24211936D02*
X100077819Y23411936D01*
X99477819Y23811936D02*
X100077819Y24211936D01*
X99077819Y23811936D02*
X99477819Y23811936D01*
X99477819Y23811936D02*
X99477819Y24361936D01*
X100077819Y23411936D02*
X99477819Y23811936D01*
X100077819Y23811936D02*
X100577819Y23811936D01*
%TO.C,D8*%
X45477818Y25511938D02*
X45477818Y24961938D01*
X45077818Y25511938D02*
X45477818Y25511938D01*
X46077818Y25911938D02*
X46077818Y25111938D01*
X46077818Y25111938D02*
X45477818Y25511938D01*
X45477818Y25511938D02*
X46077818Y25911938D01*
X46077818Y25511938D02*
X46577818Y25511938D01*
X45477818Y25511938D02*
X45477818Y26061938D01*
%TO.C,D16*%
X99077820Y6811937D02*
X99477820Y6811937D01*
X100077820Y6811937D02*
X100577820Y6811937D01*
X99477820Y6811937D02*
X99477820Y7361937D01*
X100077820Y7211937D02*
X100077820Y6411937D01*
X100077820Y6411937D02*
X99477820Y6811937D01*
X99477820Y6811937D02*
X100077820Y7211937D01*
X99477820Y6811937D02*
X99477820Y6261937D01*
%TO.C,D10*%
X63077817Y11911938D02*
X63477817Y11911938D01*
X63477817Y11911938D02*
X63477817Y12461938D01*
X64077817Y11911938D02*
X64577817Y11911938D01*
X63477817Y11911938D02*
X63477817Y11361938D01*
X63477817Y11911938D02*
X64077817Y12311938D01*
X64077817Y12311938D02*
X64077817Y11511938D01*
X64077817Y11511938D02*
X63477817Y11911938D01*
%TO.C,D2*%
X8514141Y13760785D02*
X8562077Y13212878D01*
X8514141Y13760785D02*
X9076995Y14211557D01*
X8115663Y13725923D02*
X8514141Y13760785D01*
X8514141Y13760785D02*
X8466205Y14308693D01*
X9076995Y14211557D02*
X9146720Y13414601D01*
X9146720Y13414601D02*
X8514141Y13760785D01*
X9111858Y13813079D02*
X9609955Y13856657D01*
%TO.C,D18*%
X99477818Y40811939D02*
X100077818Y41211939D01*
X100077818Y41211939D02*
X100077818Y40411939D01*
X100077818Y40811939D02*
X100577818Y40811939D01*
X100077818Y40411939D02*
X99477818Y40811939D01*
X99077818Y40811939D02*
X99477818Y40811939D01*
X99477818Y40811939D02*
X99477818Y40261939D01*
X99477818Y40811939D02*
X99477818Y41361939D01*
%TO.C,D7*%
X45477821Y8511938D02*
X45477821Y7961938D01*
X45477821Y8511938D02*
X46077821Y8911938D01*
X46077821Y8511938D02*
X46577821Y8511938D01*
X45077821Y8511938D02*
X45477821Y8511938D01*
X45477821Y8511938D02*
X45477821Y9061938D01*
X46077821Y8111938D02*
X45477821Y8511938D01*
X46077821Y8911938D02*
X46077821Y8111938D01*
%TO.C,D13*%
X82077821Y8111940D02*
X81477821Y8511940D01*
X81077821Y8511940D02*
X81477821Y8511940D01*
X81477821Y8511940D02*
X81477821Y7961940D01*
X82077821Y8911940D02*
X82077821Y8111940D01*
X81477821Y8511940D02*
X81477821Y9061940D01*
X81477821Y8511940D02*
X82077821Y8911940D01*
X82077821Y8511940D02*
X82577821Y8511940D01*
%TO.C,D20*%
X106298883Y-13331965D02*
X107078379Y-13511926D01*
X106688631Y-13421945D02*
X106801106Y-12934760D01*
X107078379Y-13511926D02*
X106553660Y-14006568D01*
X106463680Y-14396316D02*
X106553660Y-14006568D01*
X106553660Y-14006568D02*
X106017757Y-13882844D01*
X106553660Y-14006568D02*
X107089564Y-14130291D01*
X106553660Y-14006568D02*
X106298883Y-13331965D01*
%TO.C,D1*%
X9995789Y-3174526D02*
X10043725Y-3722433D01*
X10593506Y-3122232D02*
X11091603Y-3078654D01*
X10628368Y-3520710D02*
X9995789Y-3174526D01*
X9597311Y-3209388D02*
X9995789Y-3174526D01*
X9995789Y-3174526D02*
X9947853Y-2626618D01*
X10558643Y-2723754D02*
X10628368Y-3520710D01*
X9995789Y-3174526D02*
X10558643Y-2723754D01*
%TD*%
D12*
%TO.C,*%
X132777817Y14411938D03*
X131277817Y14411938D03*
%TD*%
M02*
