%TF.GenerationSoftware,KiCad,Pcbnew,(6.0.6)*%
%TF.CreationDate,2022-07-14T02:02:07+02:00*%
%TF.ProjectId,main_wired2,6d61696e-5f77-4697-9265-64322e6b6963,v1.0.0*%
%TF.SameCoordinates,Original*%
%TF.FileFunction,Copper,L2,Bot*%
%TF.FilePolarity,Positive*%
%FSLAX46Y46*%
G04 Gerber Fmt 4.6, Leading zero omitted, Abs format (unit mm)*
G04 Created by KiCad (PCBNEW (6.0.6)) date 2022-07-14 02:02:07*
%MOMM*%
%LPD*%
G01*
G04 APERTURE LIST*
G04 Aperture macros list*
%AMRotRect*
0 Rectangle, with rotation*
0 The origin of the aperture is its center*
0 $1 length*
0 $2 width*
0 $3 Rotation angle, in degrees counterclockwise*
0 Add horizontal line*
21,1,$1,$2,0,0,$3*%
%AMFreePoly0*
4,1,29,2.195502,0.119853,2.254624,0.081678,2.283753,0.017613,2.273655,-0.052035,2.227530,-0.105189,2.160000,-0.125000,0.000000,-0.125000,-0.035502,-0.119852,-0.047057,-0.112391,-0.062500,-0.108253,-0.078963,-0.091790,-0.094624,-0.081678,-0.099251,-0.071502,-0.108253,-0.062500,-0.115298,-0.036209,-0.123752,-0.017613,-0.122534,-0.009204,-0.125000,0.000000,-0.116718,0.030909,-0.113655,0.052035,
-0.109897,0.056366,-0.108253,0.062500,-0.080431,0.090323,-0.067530,0.105188,-0.064748,0.106005,-0.062500,0.108253,0.000000,0.125000,2.160000,0.125001,2.195502,0.119853,2.195502,0.119853,$1*%
%AMFreePoly1*
4,1,30,0.035502,0.119852,0.047057,0.112391,0.062500,0.108253,0.078963,0.091790,0.094624,0.081678,0.099251,0.071502,0.108253,0.062500,0.115298,0.036209,0.123752,0.017613,0.122534,0.009204,0.125000,0.000000,0.120281,-0.017613,0.116718,-0.030908,0.113655,-0.052035,0.109897,-0.056366,0.108253,-0.062500,0.080431,-0.090323,0.067530,-0.105188,0.064748,-0.106005,0.062500,-0.108253,
0.000000,-0.125000,-2.160000,-0.125001,-2.195502,-0.119853,-2.254624,-0.081678,-2.283753,-0.017613,-2.273655,0.052035,-2.227530,0.105189,-2.160000,0.125000,0.000000,0.125000,0.035502,0.119852,0.035502,0.119852,$1*%
%AMFreePoly2*
4,1,42,0.035502,4.219852,0.043090,4.214952,0.052035,4.213655,0.072198,4.196157,0.094624,4.181678,0.098364,4.173453,0.105189,4.167530,0.112704,4.141914,0.123753,4.117613,0.122456,4.108670,0.125000,4.100000,0.125000,0.000000,0.119852,-0.035502,0.112391,-0.047057,0.108253,-0.062500,0.091790,-0.078962,0.081678,-0.094624,0.071502,-0.099251,0.062501,-0.108253,0.036209,-0.115298,
0.017613,-0.123753,0.009204,-0.122534,0.000000,-0.125000,-0.030909,-0.116719,-0.052035,-0.113655,-0.056366,-0.109897,-0.062500,-0.108253,-0.090322,-0.080431,-0.105189,-0.067530,-0.106005,-0.064748,-0.108253,-0.062501,-0.125000,0.000000,-0.125000,3.975000,-1.170001,3.975000,-1.205502,3.980148,-1.264624,4.018322,-1.293753,4.082387,-1.283655,4.152035,-1.237530,4.205189,-1.170000,4.225000,
0.000000,4.225000,0.035502,4.219852,0.035502,4.219852,$1*%
%AMFreePoly3*
4,1,31,0.588388,0.088388,6.138388,-5.461611,6.151709,-5.479450,6.155189,-5.482470,6.155982,-5.485172,6.159852,-5.490355,6.166332,-5.520453,6.175000,-5.550000,6.175000,-9.948224,7.138389,-10.911612,7.159852,-10.940356,7.174665,-11.009155,7.149961,-11.075053,7.093572,-11.117161,7.023371,-11.122131,6.961612,-11.088389,5.961612,-10.088388,5.948293,-10.070552,5.944811,-10.067530,5.944018,-10.064826,
5.940148,-10.059644,5.933669,-10.029549,5.925000,-10.000000,5.925000,-5.601777,0.411612,-0.088388,0.390149,-0.059644,0.375336,0.009154,0.400039,0.075052,0.456428,0.117161,0.526629,0.122131,0.588388,0.088388,0.588388,0.088388,$1*%
%AMFreePoly4*
4,1,13,0.062500,0.108253,0.108253,0.062501,0.125000,0.000000,0.108253,-0.062500,0.062501,-0.108253,0.000000,-0.125000,-0.062500,-0.108253,-0.108253,-0.062501,-0.125000,0.000000,-0.108253,0.062500,-0.062501,0.108253,0.000000,0.125000,0.062500,0.108253,0.062500,0.108253,$1*%
%AMFreePoly5*
4,1,5,0.125000,-0.500000,-0.125000,-0.500000,-0.125000,0.500000,0.125000,0.500000,0.125000,-0.500000,0.125000,-0.500000,$1*%
%AMFreePoly6*
4,1,6,0.600000,0.200000,0.000000,-0.400000,-0.600000,0.200000,-0.600000,0.400000,0.600000,0.400000,0.600000,0.200000,0.600000,0.200000,$1*%
%AMFreePoly7*
4,1,6,0.600000,-0.250000,-0.600000,-0.250000,-0.600000,1.000000,0.000000,0.400000,0.600000,1.000000,0.600000,-0.250000,0.600000,-0.250000,$1*%
%AMFreePoly8*
4,1,49,0.004773,0.123721,0.009154,0.124665,0.028961,0.117240,0.062500,0.108253,0.068237,0.102516,0.075053,0.099961,0.087617,0.083136,0.108253,0.062500,0.111178,0.051584,0.117161,0.043572,0.118539,0.024114,0.125000,0.000000,0.121239,-0.014035,0.122131,-0.026629,0.113759,-0.041951,0.108253,-0.062500,0.095644,-0.075109,0.088389,-0.088388,-0.641000,-0.817776,-0.641000,-4.770224,
0.088389,-5.499612,0.109852,-5.528356,0.124665,-5.597154,0.099961,-5.663053,0.043572,-5.705161,-0.026629,-5.710131,-0.088388,-5.676389,-0.854388,-4.910388,-0.867707,-4.892552,-0.871189,-4.889530,-0.871982,-4.886826,-0.875852,-4.881644,-0.882331,-4.851549,-0.891000,-4.822000,-0.891000,-0.766000,-0.887805,-0.743969,-0.888131,-0.739371,-0.886780,-0.736898,-0.885852,-0.730498,-0.869151,-0.704632,
-0.854388,-0.677612,-0.088388,0.088389,-0.064606,0.106147,-0.062500,0.108253,-0.061385,0.108552,-0.059644,0.109852,-0.043806,0.113262,0.000000,0.125000,0.004773,0.123721,0.004773,0.123721,$1*%
G04 Aperture macros list end*
%TA.AperFunction,ComponentPad*%
%ADD10C,1.000000*%
%TD*%
%TA.AperFunction,SMDPad,CuDef*%
%ADD11FreePoly0,64.000000*%
%TD*%
%TA.AperFunction,SMDPad,CuDef*%
%ADD12FreePoly1,64.000000*%
%TD*%
%TA.AperFunction,SMDPad,CuDef*%
%ADD13RotRect,0.900000X1.200000X64.000000*%
%TD*%
%TA.AperFunction,ComponentPad*%
%ADD14C,1.905000*%
%TD*%
%TA.AperFunction,ComponentPad*%
%ADD15RotRect,1.778000X1.778000X64.000000*%
%TD*%
%TA.AperFunction,SMDPad,CuDef*%
%ADD16FreePoly0,0.000000*%
%TD*%
%TA.AperFunction,SMDPad,CuDef*%
%ADD17FreePoly1,0.000000*%
%TD*%
%TA.AperFunction,SMDPad,CuDef*%
%ADD18R,0.900000X1.200000*%
%TD*%
%TA.AperFunction,ComponentPad*%
%ADD19R,1.778000X1.778000*%
%TD*%
%TA.AperFunction,SMDPad,CuDef*%
%ADD20FreePoly2,77.000000*%
%TD*%
%TA.AperFunction,SMDPad,CuDef*%
%ADD21FreePoly3,77.000000*%
%TD*%
%TA.AperFunction,SMDPad,CuDef*%
%ADD22FreePoly4,77.000000*%
%TD*%
%TA.AperFunction,SMDPad,CuDef*%
%ADD23RotRect,2.600000X2.600000X77.000000*%
%TD*%
%TA.AperFunction,ComponentPad*%
%ADD24C,0.600000*%
%TD*%
%TA.AperFunction,SMDPad,CuDef*%
%ADD25FreePoly1,5.000000*%
%TD*%
%TA.AperFunction,SMDPad,CuDef*%
%ADD26FreePoly0,5.000000*%
%TD*%
%TA.AperFunction,SMDPad,CuDef*%
%ADD27RotRect,0.900000X1.200000X5.000000*%
%TD*%
%TA.AperFunction,ComponentPad*%
%ADD28RotRect,1.778000X1.778000X5.000000*%
%TD*%
%TA.AperFunction,SMDPad,CuDef*%
%ADD29FreePoly2,64.000000*%
%TD*%
%TA.AperFunction,SMDPad,CuDef*%
%ADD30FreePoly3,64.000000*%
%TD*%
%TA.AperFunction,SMDPad,CuDef*%
%ADD31FreePoly4,64.000000*%
%TD*%
%TA.AperFunction,SMDPad,CuDef*%
%ADD32RotRect,2.600000X2.600000X64.000000*%
%TD*%
%TA.AperFunction,SMDPad,CuDef*%
%ADD33FreePoly2,0.000000*%
%TD*%
%TA.AperFunction,SMDPad,CuDef*%
%ADD34FreePoly3,0.000000*%
%TD*%
%TA.AperFunction,SMDPad,CuDef*%
%ADD35FreePoly4,0.000000*%
%TD*%
%TA.AperFunction,SMDPad,CuDef*%
%ADD36R,2.600000X2.600000*%
%TD*%
%TA.AperFunction,SMDPad,CuDef*%
%ADD37FreePoly5,270.000000*%
%TD*%
%TA.AperFunction,SMDPad,CuDef*%
%ADD38FreePoly6,270.000000*%
%TD*%
%TA.AperFunction,ComponentPad*%
%ADD39C,1.600000*%
%TD*%
%TA.AperFunction,SMDPad,CuDef*%
%ADD40FreePoly6,90.000000*%
%TD*%
%TA.AperFunction,SMDPad,CuDef*%
%ADD41FreePoly5,90.000000*%
%TD*%
%TA.AperFunction,ComponentPad*%
%ADD42R,1.600000X1.600000*%
%TD*%
%TA.AperFunction,SMDPad,CuDef*%
%ADD43FreePoly7,90.000000*%
%TD*%
%TA.AperFunction,SMDPad,CuDef*%
%ADD44FreePoly8,270.000000*%
%TD*%
%TA.AperFunction,ComponentPad*%
%ADD45C,0.800000*%
%TD*%
%TA.AperFunction,SMDPad,CuDef*%
%ADD46FreePoly8,90.000000*%
%TD*%
%TA.AperFunction,SMDPad,CuDef*%
%ADD47FreePoly7,270.000000*%
%TD*%
%TA.AperFunction,SMDPad,CuDef*%
%ADD48FreePoly1,90.000000*%
%TD*%
%TA.AperFunction,SMDPad,CuDef*%
%ADD49FreePoly0,90.000000*%
%TD*%
%TA.AperFunction,SMDPad,CuDef*%
%ADD50R,1.200000X0.900000*%
%TD*%
%TA.AperFunction,SMDPad,CuDef*%
%ADD51FreePoly3,5.000000*%
%TD*%
%TA.AperFunction,SMDPad,CuDef*%
%ADD52FreePoly4,5.000000*%
%TD*%
%TA.AperFunction,SMDPad,CuDef*%
%ADD53FreePoly2,5.000000*%
%TD*%
%TA.AperFunction,SMDPad,CuDef*%
%ADD54RotRect,2.600000X2.600000X5.000000*%
%TD*%
%TA.AperFunction,ComponentPad*%
%ADD55R,1.700000X1.700000*%
%TD*%
%TA.AperFunction,ComponentPad*%
%ADD56O,1.700000X1.700000*%
%TD*%
%TA.AperFunction,SMDPad,CuDef*%
%ADD57R,0.900000X1.700000*%
%TD*%
%TA.AperFunction,SMDPad,CuDef*%
%ADD58R,1.000000X0.800000*%
%TD*%
%TA.AperFunction,SMDPad,CuDef*%
%ADD59R,0.700000X1.500000*%
%TD*%
%TA.AperFunction,SMDPad,CuDef*%
%ADD60FreePoly3,90.000000*%
%TD*%
%TA.AperFunction,SMDPad,CuDef*%
%ADD61FreePoly4,90.000000*%
%TD*%
%TA.AperFunction,SMDPad,CuDef*%
%ADD62FreePoly2,90.000000*%
%TD*%
%TA.AperFunction,ComponentPad*%
%ADD63R,3.200000X2.000000*%
%TD*%
%TA.AperFunction,ComponentPad*%
%ADD64C,1.500000*%
%TD*%
%TA.AperFunction,ComponentPad*%
%ADD65R,2.000000X2.000000*%
%TD*%
%TA.AperFunction,ComponentPad*%
%ADD66C,2.000000*%
%TD*%
%TA.AperFunction,SMDPad,CuDef*%
%ADD67FreePoly1,77.000000*%
%TD*%
%TA.AperFunction,SMDPad,CuDef*%
%ADD68FreePoly0,77.000000*%
%TD*%
%TA.AperFunction,SMDPad,CuDef*%
%ADD69RotRect,0.900000X1.200000X77.000000*%
%TD*%
%TA.AperFunction,ComponentPad*%
%ADD70RotRect,1.778000X1.778000X77.000000*%
%TD*%
%TA.AperFunction,ViaPad*%
%ADD71C,0.800000*%
%TD*%
%TA.AperFunction,Conductor*%
%ADD72C,0.250000*%
%TD*%
G04 APERTURE END LIST*
D10*
%TO.P,,1*%
%TO.N,pos*%
X132777817Y14411938D03*
%TO.P,,2*%
%TO.N,GND*%
X131277817Y14411938D03*
%TD*%
D11*
%TO.P,D21,*%
%TO.N,P7*%
X123499419Y-24835909D03*
D12*
%TO.N,inner_thumb*%
X126839807Y-17987099D03*
D13*
%TO.P,D21,1*%
%TO.N,P7*%
X124446301Y-22894514D03*
D14*
%TO.N,inner_thumb*%
X126839807Y-17987099D03*
D13*
%TO.P,D21,2*%
X125892925Y-19928494D03*
D15*
%TO.N,P7*%
X123499419Y-24835909D03*
%TD*%
D16*
%TO.P,D12,*%
%TO.N,P4*%
X60017819Y45911938D03*
D17*
%TO.N,middle_top*%
X67637819Y45911938D03*
D14*
%TO.P,D12,1*%
X67637819Y45911938D03*
D18*
%TO.N,P4*%
X62177819Y45911938D03*
%TO.P,D12,2*%
%TO.N,middle_top*%
X65477819Y45911938D03*
D19*
%TO.N,P4*%
X60017819Y45911938D03*
%TD*%
D20*
%TO.P,S20,*%
%TO.N,P15*%
X99968125Y-3634304D03*
D21*
%TO.N,home_thumb*%
X95226326Y-14393386D03*
D22*
X95226326Y-14393386D03*
D23*
%TO.P,S20,1*%
X95226326Y-14393386D03*
D24*
%TO.N,P15*%
X95686395Y-3954327D03*
D23*
%TO.P,S20,2*%
X99968125Y-3634304D03*
%TD*%
D25*
%TO.P,D6,*%
%TO.N,pinky_top*%
X28960003Y34320998D03*
D26*
%TO.N,P4*%
X21368999Y33656872D03*
D14*
%TO.P,D6,1*%
%TO.N,pinky_top*%
X28960003Y34320998D03*
D27*
%TO.N,P4*%
X23520780Y33845128D03*
D28*
%TO.P,D6,2*%
X21368999Y33656872D03*
D27*
%TO.N,pinky_top*%
X26808222Y34132742D03*
%TD*%
D17*
%TO.P,D9,*%
%TO.N,ring_top*%
X49637820Y42511937D03*
D16*
%TO.N,P4*%
X42017820Y42511937D03*
D14*
%TO.P,D9,1*%
%TO.N,ring_top*%
X49637820Y42511937D03*
D18*
%TO.N,P4*%
X44177820Y42511937D03*
D19*
%TO.P,D9,2*%
X42017820Y42511937D03*
D18*
%TO.N,ring_top*%
X47477820Y42511937D03*
%TD*%
D29*
%TO.P,S21,*%
%TO.N,P14*%
X120932686Y-10138238D03*
D30*
%TO.N,inner_thumb*%
X113892152Y-19554893D03*
D31*
X113892152Y-19554893D03*
D32*
%TO.P,S21,1*%
X113892152Y-19554893D03*
D24*
%TO.N,P14*%
X116688707Y-9486879D03*
D32*
%TO.P,S21,2*%
X120932686Y-10138238D03*
%TD*%
D17*
%TO.P,D14,*%
%TO.N,index_home*%
X85637820Y25511940D03*
D16*
%TO.N,P5*%
X78017820Y25511940D03*
D18*
%TO.P,D14,1*%
X80177820Y25511940D03*
D14*
%TO.N,index_home*%
X85637820Y25511940D03*
D19*
%TO.P,D14,2*%
%TO.N,P5*%
X78017820Y25511940D03*
D18*
%TO.N,index_home*%
X83477820Y25511940D03*
%TD*%
D33*
%TO.P,S12,*%
%TO.N,P18*%
X72102818Y54661937D03*
D34*
%TO.N,middle_top*%
X60552818Y56861937D03*
D35*
X60552818Y56861937D03*
D24*
%TO.P,S12,1*%
%TO.N,P18*%
X70827818Y58761937D03*
D36*
%TO.N,middle_top*%
X60552818Y56861937D03*
%TO.P,S12,2*%
%TO.N,P18*%
X72102818Y54661937D03*
%TD*%
D37*
%TO.P,MCU1,*%
%TO.N,*%
X128377817Y48141935D03*
D38*
X127869817Y30361935D03*
D39*
X129647817Y43061935D03*
D37*
X128377817Y45601935D03*
D38*
X127869817Y48141935D03*
D37*
X128377817Y27821935D03*
D40*
X116185817Y43061935D03*
X116185817Y45601935D03*
X116185817Y22741935D03*
D39*
X114407817Y22741935D03*
D40*
X116185817Y30361935D03*
D39*
X114407817Y48141935D03*
X114407817Y45601935D03*
D37*
X128377817Y40521935D03*
D41*
X115677817Y35441935D03*
D39*
X129647817Y22741935D03*
D41*
X115677817Y45601935D03*
D37*
X128377817Y35441935D03*
D42*
X129647817Y50681935D03*
D40*
X116185817Y40521935D03*
D38*
X127869817Y43061935D03*
D40*
X116185817Y25281935D03*
D37*
X128377817Y50681935D03*
X128377817Y32901935D03*
D39*
X129647817Y50681935D03*
D41*
X115677817Y27821935D03*
D38*
X127869817Y27821935D03*
D41*
X115677817Y50681935D03*
D39*
X129647817Y37981935D03*
X114407817Y30361935D03*
X114407817Y50681935D03*
X114407817Y35441935D03*
D38*
X127869817Y50681935D03*
D41*
X115677817Y40521935D03*
X115677817Y32901935D03*
D39*
X114407817Y25281935D03*
D40*
X116185817Y35441935D03*
D38*
X127869817Y37981935D03*
X127869817Y40521935D03*
D41*
X115677817Y30361935D03*
D37*
X128377817Y30361935D03*
D39*
X129647817Y30361935D03*
X114407817Y37981935D03*
X114407817Y40521935D03*
D41*
X115677817Y25281935D03*
D38*
X127869817Y25281935D03*
D39*
X129647817Y25281935D03*
D40*
X116185817Y27821935D03*
X116185817Y37981935D03*
D38*
X127869817Y45601935D03*
D39*
X114407817Y43061935D03*
X129647817Y48141935D03*
X129647817Y27821935D03*
X114407817Y27821935D03*
D38*
X127869817Y35441935D03*
D37*
X128377817Y25281935D03*
D39*
X129647817Y35441935D03*
D41*
X115677817Y22741935D03*
X115677817Y43061935D03*
D37*
X128377817Y37981935D03*
D41*
X115677817Y37981935D03*
D40*
X116185817Y32901935D03*
D37*
X128377817Y22741935D03*
X128377817Y43061935D03*
D40*
X116185817Y50681935D03*
D39*
X114407817Y32901935D03*
X129647817Y45601935D03*
D38*
X127869817Y32901935D03*
D39*
X129647817Y32901935D03*
D38*
X127869817Y22741935D03*
D40*
X116185817Y48141935D03*
D39*
X129647817Y40521935D03*
D41*
X115677817Y48141935D03*
D43*
%TO.P,MCU1,1*%
%TO.N,RAW*%
X117201817Y50681935D03*
D44*
X122789817Y50681935D03*
D45*
X122789817Y50681935D03*
%TO.P,MCU1,2*%
%TO.N,GND*%
X122789817Y48141935D03*
D43*
%TO.N,N/C*%
X117201817Y48141935D03*
D44*
%TO.N,GND*%
X122789817Y48141935D03*
D43*
%TO.P,MCU1,3*%
%TO.N,RST*%
X117201817Y45601935D03*
D44*
X122789817Y45601935D03*
D45*
X122789817Y45601935D03*
%TO.P,MCU1,4*%
%TO.N,VCC*%
X122789817Y43061935D03*
D43*
X117201817Y43061935D03*
D44*
X122789817Y43061935D03*
D45*
%TO.P,MCU1,5*%
%TO.N,P21*%
X122789817Y40521935D03*
D43*
X117201817Y40521935D03*
D44*
X122789817Y40521935D03*
D45*
%TO.P,MCU1,6*%
%TO.N,P20*%
X122789817Y37981935D03*
D44*
X122789817Y37981935D03*
D43*
X117201817Y37981935D03*
D44*
%TO.P,MCU1,7*%
%TO.N,P19*%
X122789817Y35441935D03*
D43*
X117201817Y35441935D03*
D45*
X122789817Y35441935D03*
%TO.P,MCU1,8*%
%TO.N,P18*%
X122789817Y32901935D03*
D43*
X117201817Y32901935D03*
D44*
X122789817Y32901935D03*
D45*
%TO.P,MCU1,9*%
%TO.N,P15*%
X122789817Y30361935D03*
D43*
X117201817Y30361935D03*
D44*
X122789817Y30361935D03*
%TO.P,MCU1,10*%
%TO.N,P14*%
X122789817Y27821935D03*
D43*
X117201817Y27821935D03*
D45*
X122789817Y27821935D03*
D44*
%TO.P,MCU1,11*%
%TO.N,P16*%
X122789817Y25281935D03*
D45*
X122789817Y25281935D03*
D43*
X117201817Y25281935D03*
%TO.P,MCU1,12*%
%TO.N,P10*%
X117201817Y22741935D03*
D44*
X122789817Y22741935D03*
D45*
X122789817Y22741935D03*
%TO.P,MCU1,13*%
%TO.N,P9*%
X121265817Y22741935D03*
D46*
X121265817Y22741935D03*
D47*
X126853817Y22741935D03*
D46*
%TO.P,MCU1,14*%
%TO.N,P8*%
X121265817Y25281935D03*
D47*
X126853817Y25281935D03*
D45*
X121265817Y25281935D03*
D47*
%TO.P,MCU1,15*%
%TO.N,P7*%
X126853817Y27821935D03*
D45*
X121265817Y27821935D03*
D46*
X121265817Y27821935D03*
%TO.P,MCU1,16*%
%TO.N,P6*%
X121265817Y30361935D03*
D47*
X126853817Y30361935D03*
D45*
X121265817Y30361935D03*
%TO.P,MCU1,17*%
%TO.N,P5*%
X121265817Y32901935D03*
D46*
X121265817Y32901935D03*
D47*
X126853817Y32901935D03*
D46*
%TO.P,MCU1,18*%
%TO.N,P4*%
X121265817Y35441935D03*
D45*
X121265817Y35441935D03*
D47*
X126853817Y35441935D03*
D45*
%TO.P,MCU1,19*%
%TO.N,P3*%
X121265817Y37981935D03*
D47*
X126853817Y37981935D03*
D46*
X121265817Y37981935D03*
%TO.P,MCU1,20*%
%TO.N,P2*%
X121265817Y40521935D03*
D45*
X121265817Y40521935D03*
D47*
X126853817Y40521935D03*
D46*
%TO.P,MCU1,21*%
%TO.N,GND*%
X121265817Y43061935D03*
D45*
X121265817Y43061935D03*
D47*
X126853817Y43061935D03*
D46*
%TO.P,MCU1,22*%
X121265817Y45601935D03*
D47*
X126853817Y45601935D03*
D45*
X121265817Y45601935D03*
D46*
%TO.P,MCU1,23*%
%TO.N,P0*%
X121265817Y48141935D03*
D47*
X126853817Y48141935D03*
D45*
X121265817Y48141935D03*
D46*
%TO.P,MCU1,24*%
%TO.N,P1*%
X121265817Y50681935D03*
D45*
X121265817Y50681935D03*
D47*
X126853817Y50681935D03*
%TD*%
D33*
%TO.P,S18,*%
%TO.N,P14*%
X108102820Y49561940D03*
D34*
%TO.N,inner_top*%
X96552820Y51761940D03*
D35*
X96552820Y51761940D03*
D24*
%TO.P,S18,1*%
%TO.N,P14*%
X106827820Y53661940D03*
D36*
%TO.N,inner_top*%
X96552820Y51761940D03*
%TO.P,S18,2*%
%TO.N,P14*%
X108102820Y49561940D03*
%TD*%
D48*
%TO.P,D19,*%
%TO.N,outer_thumb*%
X86827818Y-6478061D03*
D49*
%TO.N,P7*%
X86827818Y-14098061D03*
D14*
%TO.P,D19,1*%
%TO.N,outer_thumb*%
X86827818Y-6478061D03*
D50*
%TO.N,P7*%
X86827818Y-11938061D03*
D19*
%TO.P,D19,2*%
X86827818Y-14098061D03*
D50*
%TO.N,outer_thumb*%
X86827818Y-8638061D03*
%TD*%
D26*
%TO.P,D3,*%
%TO.N,P4*%
X3585659Y30394533D03*
D25*
%TO.N,outer_top*%
X11176663Y31058659D03*
D14*
%TO.P,D3,1*%
X11176663Y31058659D03*
D27*
%TO.N,P4*%
X5737440Y30582789D03*
D28*
%TO.P,D3,2*%
X3585659Y30394533D03*
D27*
%TO.N,outer_top*%
X9024882Y30870403D03*
%TD*%
D51*
%TO.P,S2,*%
%TO.N,outer_home*%
X4645916Y24414182D03*
D52*
X4645916Y24414182D03*
D53*
%TO.N,P21*%
X16343707Y23229203D03*
D54*
%TO.P,S2,1*%
%TO.N,outer_home*%
X4645916Y24414182D03*
D24*
%TO.N,P21*%
X14716220Y27202478D03*
D54*
%TO.P,S2,2*%
X16343707Y23229203D03*
%TD*%
D33*
%TO.P,S9,*%
%TO.N,P19*%
X54102820Y51261938D03*
D34*
%TO.N,ring_top*%
X42552820Y53461938D03*
D35*
X42552820Y53461938D03*
D24*
%TO.P,S9,1*%
%TO.N,P19*%
X52827820Y55361938D03*
D36*
%TO.N,ring_top*%
X42552820Y53461938D03*
%TO.P,S9,2*%
%TO.N,P19*%
X54102820Y51261938D03*
%TD*%
D55*
%TO.P,OLED1,1*%
%TO.N,GND*%
X125827817Y20411938D03*
D56*
%TO.P,OLED1,2*%
%TO.N,VCC*%
X123287817Y20411938D03*
%TO.P,OLED1,3*%
%TO.N,P3*%
X120747817Y20411938D03*
%TO.P,OLED1,4*%
%TO.N,P2*%
X118207817Y20411938D03*
%TD*%
D25*
%TO.P,D4,*%
%TO.N,pinky_bottom*%
X31923298Y450375D03*
D26*
%TO.N,P6*%
X24332294Y-213751D03*
D14*
%TO.P,D4,1*%
%TO.N,pinky_bottom*%
X31923298Y450375D03*
D27*
%TO.N,P6*%
X26484075Y-25495D03*
D28*
%TO.P,D4,2*%
X24332294Y-213751D03*
D27*
%TO.N,pinky_bottom*%
X29771517Y262119D03*
%TD*%
D57*
%TO.P,,1*%
%TO.N,RST*%
X130327819Y11511938D03*
%TO.P,,2*%
%TO.N,GND*%
X133727819Y11511938D03*
%TD*%
D51*
%TO.P,S6,*%
%TO.N,pinky_top*%
X20947607Y44611831D03*
D52*
X20947607Y44611831D03*
D53*
%TO.N,P20*%
X32645398Y43426852D03*
D24*
%TO.P,S6,1*%
X31017911Y47400127D03*
D54*
%TO.N,pinky_top*%
X20947607Y44611831D03*
%TO.P,S6,2*%
%TO.N,P20*%
X32645398Y43426852D03*
%TD*%
D16*
%TO.P,D22,*%
%TO.N,P6*%
X116417820Y-188061D03*
D17*
%TO.N,enc_diode*%
X124037820Y-188061D03*
D14*
%TO.P,D22,1*%
X124037820Y-188061D03*
D18*
%TO.N,P6*%
X118577820Y-188061D03*
%TO.P,D22,2*%
%TO.N,enc_diode*%
X121877820Y-188061D03*
D19*
%TO.N,P6*%
X116417820Y-188061D03*
%TD*%
D51*
%TO.P,S1,*%
%TO.N,outer_bottom*%
X6127566Y7478871D03*
D52*
X6127566Y7478871D03*
D53*
%TO.N,P21*%
X17825357Y6293892D03*
D54*
%TO.P,S1,1*%
%TO.N,outer_bottom*%
X6127566Y7478871D03*
D24*
%TO.N,P21*%
X16197870Y10267167D03*
D54*
%TO.P,S1,2*%
X17825357Y6293892D03*
%TD*%
D16*
%TO.P,D11,*%
%TO.N,P5*%
X60017817Y28911940D03*
D17*
%TO.N,middle_home*%
X67637817Y28911940D03*
D14*
%TO.P,D11,1*%
X67637817Y28911940D03*
D18*
%TO.N,P5*%
X62177817Y28911940D03*
D19*
%TO.P,D11,2*%
X60017817Y28911940D03*
D18*
%TO.N,middle_home*%
X65477817Y28911940D03*
%TD*%
D53*
%TO.P,S4,*%
%TO.N,P20*%
X35608692Y9556230D03*
D51*
%TO.N,pinky_bottom*%
X23910901Y10741209D03*
D52*
X23910901Y10741209D03*
D54*
%TO.P,S4,1*%
X23910901Y10741209D03*
D24*
%TO.N,P20*%
X33981205Y13529505D03*
D54*
%TO.P,S4,2*%
X35608692Y9556230D03*
%TD*%
D17*
%TO.P,D15,*%
%TO.N,index_top*%
X85637819Y42511939D03*
D16*
%TO.N,P4*%
X78017819Y42511939D03*
D18*
%TO.P,D15,1*%
X80177819Y42511939D03*
D14*
%TO.N,index_top*%
X85637819Y42511939D03*
D19*
%TO.P,D15,2*%
%TO.N,P4*%
X78017819Y42511939D03*
D18*
%TO.N,index_top*%
X83477819Y42511939D03*
%TD*%
D25*
%TO.P,D5,*%
%TO.N,pinky_home*%
X30441650Y17385689D03*
D26*
%TO.N,P5*%
X22850646Y16721563D03*
D27*
%TO.P,D5,1*%
X25002427Y16909819D03*
D14*
%TO.N,pinky_home*%
X30441650Y17385689D03*
D28*
%TO.P,D5,2*%
%TO.N,P5*%
X22850646Y16721563D03*
D27*
%TO.N,pinky_home*%
X28289869Y17197433D03*
%TD*%
D17*
%TO.P,D17,*%
%TO.N,inner_home*%
X103637819Y23811936D03*
D16*
%TO.N,P5*%
X96017819Y23811936D03*
D14*
%TO.P,D17,1*%
%TO.N,inner_home*%
X103637819Y23811936D03*
D18*
%TO.N,P5*%
X98177819Y23811936D03*
%TO.P,D17,2*%
%TO.N,inner_home*%
X101477819Y23811936D03*
D19*
%TO.N,P5*%
X96017819Y23811936D03*
%TD*%
D16*
%TO.P,D8,*%
%TO.N,P5*%
X42017818Y25511938D03*
D17*
%TO.N,ring_home*%
X49637818Y25511938D03*
D14*
%TO.P,D8,1*%
X49637818Y25511938D03*
D18*
%TO.N,P5*%
X44177818Y25511938D03*
%TO.P,D8,2*%
%TO.N,ring_home*%
X47477818Y25511938D03*
D19*
%TO.N,P5*%
X42017818Y25511938D03*
%TD*%
D16*
%TO.P,D16,*%
%TO.N,P6*%
X96017820Y6811937D03*
D17*
%TO.N,inner_bottom*%
X103637820Y6811937D03*
D18*
%TO.P,D16,1*%
%TO.N,P6*%
X98177820Y6811937D03*
D14*
%TO.N,inner_bottom*%
X103637820Y6811937D03*
D19*
%TO.P,D16,2*%
%TO.N,P6*%
X96017820Y6811937D03*
D18*
%TO.N,inner_bottom*%
X101477820Y6811937D03*
%TD*%
D33*
%TO.P,S8,*%
%TO.N,P19*%
X54102817Y34261940D03*
D34*
%TO.N,ring_home*%
X42552817Y36461940D03*
D35*
X42552817Y36461940D03*
D36*
%TO.P,S8,1*%
X42552817Y36461940D03*
D24*
%TO.N,P19*%
X52827817Y38361940D03*
D36*
%TO.P,S8,2*%
X54102817Y34261940D03*
%TD*%
D33*
%TO.P,S17,*%
%TO.N,P14*%
X108102820Y32561939D03*
D34*
%TO.N,inner_home*%
X96552820Y34761939D03*
D35*
X96552820Y34761939D03*
D24*
%TO.P,S17,1*%
%TO.N,P14*%
X106827820Y36661939D03*
D36*
%TO.N,inner_home*%
X96552820Y34761939D03*
%TO.P,S17,2*%
%TO.N,P14*%
X108102820Y32561939D03*
%TD*%
D58*
%TO.P,,*%
%TO.N,*%
X134457821Y8961939D03*
X132247821Y8961939D03*
X132247821Y1661939D03*
X134457821Y1661939D03*
D59*
%TO.P,,1*%
%TO.N,pos*%
X131597821Y7561939D03*
%TO.P,,2*%
%TO.N,RAW*%
X131597821Y4561939D03*
%TO.P,,3*%
%TO.N,N/C*%
X131597821Y3061939D03*
%TD*%
D17*
%TO.P,D10,*%
%TO.N,middle_bottom*%
X67637817Y11911938D03*
D16*
%TO.N,P6*%
X60017817Y11911938D03*
D14*
%TO.P,D10,1*%
%TO.N,middle_bottom*%
X67637817Y11911938D03*
D18*
%TO.N,P6*%
X62177817Y11911938D03*
%TO.P,D10,2*%
%TO.N,middle_bottom*%
X65477817Y11911938D03*
D19*
%TO.N,P6*%
X60017817Y11911938D03*
%TD*%
D34*
%TO.P,S11,*%
%TO.N,middle_home*%
X60552819Y39861939D03*
D35*
X60552819Y39861939D03*
D33*
%TO.N,P18*%
X72102819Y37661939D03*
D36*
%TO.P,S11,1*%
%TO.N,middle_home*%
X60552819Y39861939D03*
D24*
%TO.N,P18*%
X70827819Y41761939D03*
D36*
%TO.P,S11,2*%
X72102819Y37661939D03*
%TD*%
D39*
%TO.P,REF\u002A\u002A,A*%
%TO.N,P8*%
X125052819Y14621939D03*
%TO.P,REF\u002A\u002A,B*%
%TO.N,P9*%
X125052819Y12081939D03*
%TO.P,REF\u002A\u002A,C*%
%TO.N,GND*%
X125052819Y9541939D03*
%TO.P,REF\u002A\u002A,D*%
%TO.N,N/C*%
X125052819Y7001939D03*
%TO.P,REF\u002A\u002A,S1*%
%TO.N,P10*%
X126277819Y17011939D03*
%TO.P,REF\u002A\u002A,S2*%
%TO.N,enc_diode*%
X124427819Y17011939D03*
%TD*%
D34*
%TO.P,S16,*%
%TO.N,inner_bottom*%
X96552820Y17761938D03*
D35*
X96552820Y17761938D03*
D33*
%TO.N,P14*%
X108102820Y15561938D03*
D36*
%TO.P,S16,1*%
%TO.N,inner_bottom*%
X96552820Y17761938D03*
D24*
%TO.N,P14*%
X106827820Y19661938D03*
D36*
%TO.P,S16,2*%
X108102820Y15561938D03*
%TD*%
D60*
%TO.P,S19,*%
%TO.N,outer_thumb*%
X75877821Y-13563060D03*
D61*
X75877821Y-13563060D03*
D62*
%TO.N,P18*%
X78077821Y-2013060D03*
D36*
%TO.P,S19,1*%
%TO.N,outer_thumb*%
X75877821Y-13563060D03*
D24*
%TO.N,P18*%
X73977821Y-3288060D03*
D36*
%TO.P,S19,2*%
X78077821Y-2013060D03*
%TD*%
D26*
%TO.P,D2,*%
%TO.N,P5*%
X5067307Y13459227D03*
D25*
%TO.N,outer_home*%
X12658311Y14123353D03*
D27*
%TO.P,D2,1*%
%TO.N,P5*%
X7219088Y13647483D03*
D14*
%TO.N,outer_home*%
X12658311Y14123353D03*
D27*
%TO.P,D2,2*%
X10506530Y13935097D03*
D28*
%TO.N,P5*%
X5067307Y13459227D03*
%TD*%
D51*
%TO.P,S5,*%
%TO.N,pinky_home*%
X22429257Y27676516D03*
D52*
X22429257Y27676516D03*
D53*
%TO.N,P20*%
X34127048Y26491537D03*
D24*
%TO.P,S5,1*%
X32499561Y30464812D03*
D54*
%TO.N,pinky_home*%
X22429257Y27676516D03*
%TO.P,S5,2*%
%TO.N,P20*%
X34127048Y26491537D03*
%TD*%
D17*
%TO.P,D18,*%
%TO.N,inner_top*%
X103637818Y40811939D03*
D16*
%TO.N,P4*%
X96017818Y40811939D03*
D18*
%TO.P,D18,1*%
X98177818Y40811939D03*
D14*
%TO.N,inner_top*%
X103637818Y40811939D03*
D18*
%TO.P,D18,2*%
X101477818Y40811939D03*
D19*
%TO.N,P4*%
X96017818Y40811939D03*
%TD*%
D34*
%TO.P,S14,*%
%TO.N,index_home*%
X78552819Y36461935D03*
D35*
X78552819Y36461935D03*
D33*
%TO.N,P15*%
X90102819Y34261935D03*
D36*
%TO.P,S14,1*%
%TO.N,index_home*%
X78552819Y36461935D03*
D24*
%TO.N,P15*%
X88827819Y38361935D03*
D36*
%TO.P,S14,2*%
X90102819Y34261935D03*
%TD*%
D63*
%TO.P,ROT1,*%
%TO.N,*%
X120607394Y2271825D03*
X120607394Y13471825D03*
D64*
%TO.P,ROT1,1*%
%TO.N,P10*%
X113607394Y5371825D03*
%TO.P,ROT1,2*%
%TO.N,enc_diode*%
X113607394Y10371825D03*
D65*
%TO.P,ROT1,A*%
%TO.N,P8*%
X128107394Y5371825D03*
D66*
%TO.P,ROT1,B*%
%TO.N,GND*%
X128107394Y10371825D03*
%TO.P,ROT1,C*%
%TO.N,P9*%
X128107394Y7871825D03*
%TD*%
D17*
%TO.P,D7,*%
%TO.N,ring_bottom*%
X49637821Y8511938D03*
D16*
%TO.N,P6*%
X42017821Y8511938D03*
D14*
%TO.P,D7,1*%
%TO.N,ring_bottom*%
X49637821Y8511938D03*
D18*
%TO.N,P6*%
X44177821Y8511938D03*
%TO.P,D7,2*%
%TO.N,ring_bottom*%
X47477821Y8511938D03*
D19*
%TO.N,P6*%
X42017821Y8511938D03*
%TD*%
D16*
%TO.P,D13,*%
%TO.N,P6*%
X78017821Y8511940D03*
D17*
%TO.N,index_bottom*%
X85637821Y8511940D03*
D14*
%TO.P,D13,1*%
X85637821Y8511940D03*
D18*
%TO.N,P6*%
X80177821Y8511940D03*
%TO.P,D13,2*%
%TO.N,index_bottom*%
X83477821Y8511940D03*
D19*
%TO.N,P6*%
X78017821Y8511940D03*
%TD*%
D33*
%TO.P,S15,*%
%TO.N,P15*%
X90102820Y51261935D03*
D34*
%TO.N,index_top*%
X78552820Y53461935D03*
D35*
X78552820Y53461935D03*
D24*
%TO.P,S15,1*%
%TO.N,P15*%
X88827820Y55361935D03*
D36*
%TO.N,index_top*%
X78552820Y53461935D03*
%TO.P,S15,2*%
%TO.N,P15*%
X90102820Y51261935D03*
%TD*%
D34*
%TO.P,S10,*%
%TO.N,middle_bottom*%
X60552818Y22861938D03*
D35*
X60552818Y22861938D03*
D33*
%TO.N,P18*%
X72102818Y20661938D03*
D24*
%TO.P,S10,1*%
X70827818Y24761938D03*
D36*
%TO.N,middle_bottom*%
X60552818Y22861938D03*
%TO.P,S10,2*%
%TO.N,P18*%
X72102818Y20661938D03*
%TD*%
D67*
%TO.P,D20,*%
%TO.N,home_thumb*%
X107489457Y-9953188D03*
D68*
%TO.N,P7*%
X105775329Y-17377888D03*
D69*
%TO.P,D20,1*%
X106261224Y-15273249D03*
D14*
%TO.N,home_thumb*%
X107489457Y-9953188D03*
D69*
%TO.P,D20,2*%
X107003562Y-12057827D03*
D70*
%TO.N,P7*%
X105775329Y-17377888D03*
%TD*%
D34*
%TO.P,S13,*%
%TO.N,index_bottom*%
X78552818Y19461937D03*
D35*
X78552818Y19461937D03*
D33*
%TO.N,P15*%
X90102818Y17261937D03*
D36*
%TO.P,S13,1*%
%TO.N,index_bottom*%
X78552818Y19461937D03*
D24*
%TO.N,P15*%
X88827818Y21361937D03*
D36*
%TO.P,S13,2*%
X90102818Y17261937D03*
%TD*%
D33*
%TO.P,S7,*%
%TO.N,P19*%
X54102817Y17261941D03*
D34*
%TO.N,ring_bottom*%
X42552817Y19461941D03*
D35*
X42552817Y19461941D03*
D36*
%TO.P,S7,1*%
X42552817Y19461941D03*
D24*
%TO.N,P19*%
X52827817Y21361941D03*
D36*
%TO.P,S7,2*%
X54102817Y17261941D03*
%TD*%
D25*
%TO.P,D1,*%
%TO.N,outer_bottom*%
X14139959Y-2811958D03*
D26*
%TO.N,P6*%
X6548955Y-3476084D03*
D14*
%TO.P,D1,1*%
%TO.N,outer_bottom*%
X14139959Y-2811958D03*
D27*
%TO.N,P6*%
X8700736Y-3287828D03*
%TO.P,D1,2*%
%TO.N,outer_bottom*%
X11988178Y-3000214D03*
D28*
%TO.N,P6*%
X6548955Y-3476084D03*
%TD*%
D51*
%TO.P,S3,*%
%TO.N,outer_top*%
X3164269Y41349494D03*
D52*
X3164269Y41349494D03*
D53*
%TO.N,P21*%
X14862060Y40164515D03*
D54*
%TO.P,S3,1*%
%TO.N,outer_top*%
X3164269Y41349494D03*
D24*
%TO.N,P21*%
X13234573Y44137790D03*
D54*
%TO.P,S3,2*%
X14862060Y40164515D03*
%TD*%
D71*
%TO.N,P4*%
X109200000Y36700000D03*
%TO.N,P5*%
X109325500Y30300000D03*
%TO.N,RST*%
X132000000Y11600000D03*
%TD*%
D72*
%TO.N,P5*%
X119963882Y31600000D02*
X121265817Y32901935D01*
X110400000Y31600000D02*
X119963882Y31600000D01*
X109325500Y30525500D02*
X110400000Y31600000D01*
X109325500Y30300000D02*
X109325500Y30525500D01*
%TO.N,RAW*%
X124507882Y52400000D02*
X122789817Y50681935D01*
X131700000Y50700000D02*
X130000000Y52400000D01*
X131700000Y16656482D02*
X131700000Y50700000D01*
X130000000Y52400000D02*
X124507882Y52400000D01*
X134952819Y13403663D02*
X131700000Y16656482D01*
X133400000Y9300000D02*
X133986938Y9886938D01*
X134689215Y9886938D02*
X134952819Y10150542D01*
X134952819Y10150542D02*
X134952819Y13403663D01*
X132339998Y7339998D02*
X133400000Y8400000D01*
X132339998Y5304116D02*
X132339998Y7339998D01*
X133400000Y8400000D02*
X133400000Y9300000D01*
X131597821Y4561939D02*
X132339998Y5304116D01*
X133986938Y9886938D02*
X134689215Y9886938D01*
%TO.N,P4*%
X109200000Y35500000D02*
X109200000Y36700000D01*
X110383065Y34316935D02*
X109200000Y35500000D01*
X120140817Y34316935D02*
X110383065Y34316935D01*
X121265817Y35441935D02*
X120140817Y34316935D01*
%TO.N,P9*%
X126500000Y10634758D02*
X125052819Y12081939D01*
X128107394Y7871825D02*
X126500000Y9479219D01*
X126500000Y9479219D02*
X126500000Y10634758D01*
%TO.N,pos*%
X134502819Y10336938D02*
X134502819Y12686938D01*
X131422821Y9686939D02*
X132072820Y10336938D01*
X132072820Y10336938D02*
X134502819Y10336938D01*
X131422821Y7736939D02*
X131422821Y9686939D01*
X134502819Y12686938D02*
X132777817Y14411938D01*
X131597821Y7561939D02*
X131422821Y7736939D01*
%TO.N,RST*%
X131911938Y11511938D02*
X130327819Y11511938D01*
X132000000Y11600000D02*
X131911938Y11511938D01*
%TO.N,GND*%
X133688061Y11511939D02*
X133727820Y11511939D01*
X131277817Y13922183D02*
X133688061Y11511939D01*
X131277817Y14411938D02*
X131277817Y13922183D01*
%TO.N,P10*%
X125152819Y18136939D02*
X126277819Y17011939D01*
X118682394Y14796825D02*
X122022508Y18136939D01*
X113607394Y5371825D02*
X118682394Y10446825D01*
X118682394Y10446825D02*
X118682394Y14796825D01*
X122022508Y18136939D02*
X125152819Y18136939D01*
%TO.N,enc_diode*%
X123700000Y149759D02*
X123700000Y16284120D01*
X123700000Y16284120D02*
X124427819Y17011939D01*
X124037820Y-188061D02*
X123700000Y149759D01*
%TO.N,P8*%
X126278061Y14621939D02*
X125052819Y14621939D01*
X129552819Y11347181D02*
X126278061Y14621939D01*
X129552819Y6817250D02*
X129552819Y11347181D01*
X128107394Y5371825D02*
X129552819Y6817250D01*
%TO.N,VCC*%
X123914817Y44186935D02*
X122789817Y43061935D01*
X131250000Y43150000D02*
X130213065Y44186935D01*
X130213065Y44186935D02*
X123914817Y44186935D01*
X131250000Y22113604D02*
X131250000Y43150000D01*
X128336396Y19200000D02*
X131250000Y22113604D01*
X124499755Y19200000D02*
X128336396Y19200000D01*
X123287817Y20411938D02*
X124499755Y19200000D01*
%TO.N,GND*%
X122527752Y41800000D02*
X121265817Y43061935D01*
X129960743Y41800000D02*
X122527752Y41800000D01*
X130800000Y40960743D02*
X129960743Y41800000D01*
X128911938Y20411938D02*
X130800000Y22300000D01*
X130800000Y22300000D02*
X130800000Y40960743D01*
X125827817Y20411938D02*
X128911938Y20411938D01*
%TO.N,P6*%
X119941812Y29037935D02*
X121265815Y30361938D01*
X114032826Y29037935D02*
X119941812Y29037935D01*
X112227819Y4001936D02*
X112227819Y27232928D01*
X112227819Y27232928D02*
X114032826Y29037935D01*
X116417818Y-188063D02*
X112227819Y4001936D01*
%TO.N,P21*%
X17825353Y6293895D02*
X16343708Y23229206D01*
X14862060Y40164518D02*
X16343708Y23229206D01*
%TO.N,P20*%
X34127049Y26491540D02*
X35608693Y9556228D01*
X35630413Y9582113D02*
X35608695Y9556231D01*
X32645399Y43426851D02*
X34127049Y26491540D01*
X32645399Y43426851D02*
X32671284Y43405130D01*
%TO.N,P19*%
X54102818Y17261937D02*
X54102821Y34261937D01*
X54102819Y51261936D02*
X54102821Y34261937D01*
%TO.N,P18*%
X72102820Y3961941D02*
X78077819Y-2013060D01*
X72102819Y20661940D02*
X72102820Y37661939D01*
X72102820Y54661937D02*
X72102820Y37661939D01*
X72102819Y20661940D02*
X72102820Y3961941D01*
%TO.N,P15*%
X90102818Y34261937D02*
X90102818Y51261937D01*
X90102820Y17261939D02*
X90102821Y6231004D01*
X90102820Y17261939D02*
X90102818Y34261937D01*
X90102821Y6231004D02*
X99968125Y-3634300D01*
%TO.N,P14*%
X108102818Y2691630D02*
X120932686Y-10138238D01*
X108102819Y49561939D02*
X108102821Y32561938D01*
X108102821Y15561939D02*
X108102818Y2691630D01*
X108102821Y32561938D02*
X108102821Y15561939D01*
%TD*%
M02*
