%TF.GenerationSoftware,KiCad,Pcbnew,(6.0.6)*%
%TF.CreationDate,2022-07-14T02:02:08+02:00*%
%TF.ProjectId,main_wired2,6d61696e-5f77-4697-9265-64322e6b6963,v1.0.0*%
%TF.SameCoordinates,Original*%
%TF.FileFunction,Soldermask,Bot*%
%TF.FilePolarity,Negative*%
%FSLAX46Y46*%
G04 Gerber Fmt 4.6, Leading zero omitted, Abs format (unit mm)*
G04 Created by KiCad (PCBNEW (6.0.6)) date 2022-07-14 02:02:08*
%MOMM*%
%LPD*%
G01*
G04 APERTURE LIST*
G04 Aperture macros list*
%AMRoundRect*
0 Rectangle with rounded corners*
0 $1 Rounding radius*
0 $2 $3 $4 $5 $6 $7 $8 $9 X,Y pos of 4 corners*
0 Add a 4 corners polygon primitive as box body*
4,1,4,$2,$3,$4,$5,$6,$7,$8,$9,$2,$3,0*
0 Add four circle primitives for the rounded corners*
1,1,$1+$1,$2,$3*
1,1,$1+$1,$4,$5*
1,1,$1+$1,$6,$7*
1,1,$1+$1,$8,$9*
0 Add four rect primitives between the rounded corners*
20,1,$1+$1,$2,$3,$4,$5,0*
20,1,$1+$1,$4,$5,$6,$7,0*
20,1,$1+$1,$6,$7,$8,$9,0*
20,1,$1+$1,$8,$9,$2,$3,0*%
%AMFreePoly0*
4,1,14,0.635355,0.435355,0.650000,0.400000,0.650000,0.200000,0.635355,0.164645,0.035355,-0.435355,0.000000,-0.450000,-0.035355,-0.435355,-0.635355,0.164645,-0.650000,0.200000,-0.650000,0.400000,-0.635355,0.435355,-0.600000,0.450000,0.600000,0.450000,0.635355,0.435355,0.635355,0.435355,$1*%
%AMFreePoly1*
4,1,16,0.635355,1.035355,0.650000,1.000000,0.650000,-0.250000,0.635355,-0.285355,0.600000,-0.300000,-0.600000,-0.300000,-0.635355,-0.285355,-0.650000,-0.250000,-0.650000,1.000000,-0.635355,1.035355,-0.600000,1.050000,-0.564645,1.035355,0.000000,0.470710,0.564645,1.035355,0.600000,1.050000,0.635355,1.035355,0.635355,1.035355,$1*%
G04 Aperture macros list end*
%ADD10C,0.250000*%
%ADD11C,0.100000*%
%ADD12C,1.100000*%
%ADD13RoundRect,0.050000X0.342009X-0.667480X0.736543X0.141435X-0.342009X0.667480X-0.736543X-0.141435X0*%
%ADD14C,2.005000*%
%ADD15RoundRect,0.050000X0.409316X-1.188740X1.188740X0.409316X-0.409316X1.188740X-1.188740X-0.409316X0*%
%ADD16RoundRect,0.050000X-0.450000X-0.600000X0.450000X-0.600000X0.450000X0.600000X-0.450000X0.600000X0*%
%ADD17RoundRect,0.050000X-0.889000X-0.889000X0.889000X-0.889000X0.889000X0.889000X-0.889000X0.889000X0*%
%ADD18C,3.100000*%
%ADD19C,3.529000*%
%ADD20C,1.801800*%
%ADD21RoundRect,0.050000X0.974245X-1.559117X1.559117X0.974245X-0.974245X1.559117X-1.559117X-0.974245X0*%
%ADD22RoundRect,0.050000X-0.395994X-0.636937X0.500581X-0.558497X0.395994X0.636937X-0.500581X0.558497X0*%
%ADD23RoundRect,0.050000X-0.808136X-0.963099X0.963099X-0.808136X0.808136X0.963099X-0.963099X0.808136X0*%
%ADD24RoundRect,0.050000X0.598550X-1.738315X1.738315X0.598550X-0.598550X1.738315X-1.738315X-0.598550X0*%
%ADD25RoundRect,0.050000X-1.300000X-1.300000X1.300000X-1.300000X1.300000X1.300000X-1.300000X1.300000X0*%
%ADD26FreePoly0,270.000000*%
%ADD27C,1.700000*%
%ADD28FreePoly0,90.000000*%
%ADD29RoundRect,0.050000X-0.800000X0.800000X-0.800000X-0.800000X0.800000X-0.800000X0.800000X0.800000X0*%
%ADD30FreePoly1,90.000000*%
%ADD31FreePoly1,270.000000*%
%ADD32RoundRect,0.050000X0.600000X-0.450000X0.600000X0.450000X-0.600000X0.450000X-0.600000X-0.450000X0*%
%ADD33RoundRect,0.050000X0.889000X-0.889000X0.889000X0.889000X-0.889000X0.889000X-0.889000X-0.889000X0*%
%ADD34RoundRect,0.050000X-1.181751X-1.408356X1.408356X-1.181751X1.181751X1.408356X-1.408356X1.181751X0*%
%ADD35RoundRect,0.050000X-0.850000X-0.850000X0.850000X-0.850000X0.850000X0.850000X-0.850000X0.850000X0*%
%ADD36O,1.800000X1.800000*%
%ADD37RoundRect,0.050000X-0.450000X-0.850000X0.450000X-0.850000X0.450000X0.850000X-0.450000X0.850000X0*%
%ADD38RoundRect,0.050000X-0.500000X-0.400000X0.500000X-0.400000X0.500000X0.400000X-0.500000X0.400000X0*%
%ADD39C,1.000000*%
%ADD40RoundRect,0.050000X-0.350000X-0.750000X0.350000X-0.750000X0.350000X0.750000X-0.350000X0.750000X0*%
%ADD41C,1.600000*%
%ADD42RoundRect,0.050000X1.300000X-1.300000X1.300000X1.300000X-1.300000X1.300000X-1.300000X-1.300000X0*%
%ADD43RoundRect,0.050000X1.600000X1.000000X-1.600000X1.000000X-1.600000X-1.000000X1.600000X-1.000000X0*%
%ADD44RoundRect,0.050000X1.000000X1.000000X-1.000000X1.000000X-1.000000X-1.000000X1.000000X-1.000000X0*%
%ADD45C,2.100000*%
%ADD46RoundRect,0.050000X0.483394X-0.573437X0.685850X0.303496X-0.483394X0.573437X-0.685850X-0.303496X0*%
%ADD47RoundRect,0.050000X0.666234X-1.066196X1.066196X0.666234X-0.666234X1.066196X-1.066196X-0.666234X0*%
G04 APERTURE END LIST*
D10*
%TO.C,MCU1*%
X121390817Y50681935D02*
G75*
G03*
X121390817Y50681935I-125000J0D01*
G01*
X121390817Y25281935D02*
G75*
G03*
X121390817Y25281935I-125000J0D01*
G01*
X121390817Y37981935D02*
G75*
G03*
X121390817Y37981935I-125000J0D01*
G01*
X122914817Y48141935D02*
G75*
G03*
X122914817Y48141935I-125000J0D01*
G01*
X121390817Y45601935D02*
G75*
G03*
X121390817Y45601935I-125000J0D01*
G01*
X122914817Y32901935D02*
G75*
G03*
X122914817Y32901935I-125000J0D01*
G01*
X122914817Y35441935D02*
G75*
G03*
X122914817Y35441935I-125000J0D01*
G01*
X121390817Y35441935D02*
G75*
G03*
X121390817Y35441935I-125000J0D01*
G01*
X122914817Y25281935D02*
G75*
G03*
X122914817Y25281935I-125000J0D01*
G01*
X121390817Y40521935D02*
G75*
G03*
X121390817Y40521935I-125000J0D01*
G01*
X122914817Y22741935D02*
G75*
G03*
X122914817Y22741935I-125000J0D01*
G01*
X121390817Y43061935D02*
G75*
G03*
X121390817Y43061935I-125000J0D01*
G01*
X122914817Y30361935D02*
G75*
G03*
X122914817Y30361935I-125000J0D01*
G01*
X122914817Y40521935D02*
G75*
G03*
X122914817Y40521935I-125000J0D01*
G01*
X122914817Y27821935D02*
G75*
G03*
X122914817Y27821935I-125000J0D01*
G01*
X122914817Y50681935D02*
G75*
G03*
X122914817Y50681935I-125000J0D01*
G01*
X121390817Y30361935D02*
G75*
G03*
X121390817Y30361935I-125000J0D01*
G01*
X122914817Y37981935D02*
G75*
G03*
X122914817Y37981935I-125000J0D01*
G01*
X121390817Y22741935D02*
G75*
G03*
X121390817Y22741935I-125000J0D01*
G01*
X122914817Y45601935D02*
G75*
G03*
X122914817Y45601935I-125000J0D01*
G01*
X122914817Y43061935D02*
G75*
G03*
X122914817Y43061935I-125000J0D01*
G01*
X121390817Y27821935D02*
G75*
G03*
X121390817Y27821935I-125000J0D01*
G01*
X121390817Y48141935D02*
G75*
G03*
X121390817Y48141935I-125000J0D01*
G01*
X121390817Y32901935D02*
G75*
G03*
X121390817Y32901935I-125000J0D01*
G01*
G36*
X116947817Y22233935D02*
G01*
X115931817Y22233935D01*
X115931817Y23249935D01*
X116947817Y23249935D01*
X116947817Y22233935D01*
G37*
D11*
X116947817Y22233935D02*
X115931817Y22233935D01*
X115931817Y23249935D01*
X116947817Y23249935D01*
X116947817Y22233935D01*
G36*
X116947817Y45093935D02*
G01*
X115931817Y45093935D01*
X115931817Y46109935D01*
X116947817Y46109935D01*
X116947817Y45093935D01*
G37*
X116947817Y45093935D02*
X115931817Y45093935D01*
X115931817Y46109935D01*
X116947817Y46109935D01*
X116947817Y45093935D01*
G36*
X116947817Y32393935D02*
G01*
X115931817Y32393935D01*
X115931817Y33409935D01*
X116947817Y33409935D01*
X116947817Y32393935D01*
G37*
X116947817Y32393935D02*
X115931817Y32393935D01*
X115931817Y33409935D01*
X116947817Y33409935D01*
X116947817Y32393935D01*
G36*
X116947817Y27313935D02*
G01*
X115931817Y27313935D01*
X115931817Y28329935D01*
X116947817Y28329935D01*
X116947817Y27313935D01*
G37*
X116947817Y27313935D02*
X115931817Y27313935D01*
X115931817Y28329935D01*
X116947817Y28329935D01*
X116947817Y27313935D01*
G36*
X128123817Y47633935D02*
G01*
X127107817Y47633935D01*
X127107817Y48649935D01*
X128123817Y48649935D01*
X128123817Y47633935D01*
G37*
X128123817Y47633935D02*
X127107817Y47633935D01*
X127107817Y48649935D01*
X128123817Y48649935D01*
X128123817Y47633935D01*
G36*
X116947817Y42553935D02*
G01*
X115931817Y42553935D01*
X115931817Y43569935D01*
X116947817Y43569935D01*
X116947817Y42553935D01*
G37*
X116947817Y42553935D02*
X115931817Y42553935D01*
X115931817Y43569935D01*
X116947817Y43569935D01*
X116947817Y42553935D01*
G36*
X128123817Y29853935D02*
G01*
X127107817Y29853935D01*
X127107817Y30869935D01*
X128123817Y30869935D01*
X128123817Y29853935D01*
G37*
X128123817Y29853935D02*
X127107817Y29853935D01*
X127107817Y30869935D01*
X128123817Y30869935D01*
X128123817Y29853935D01*
G36*
X116947817Y50173935D02*
G01*
X115931817Y50173935D01*
X115931817Y51189935D01*
X116947817Y51189935D01*
X116947817Y50173935D01*
G37*
X116947817Y50173935D02*
X115931817Y50173935D01*
X115931817Y51189935D01*
X116947817Y51189935D01*
X116947817Y50173935D01*
G36*
X128123817Y24773935D02*
G01*
X127107817Y24773935D01*
X127107817Y25789935D01*
X128123817Y25789935D01*
X128123817Y24773935D01*
G37*
X128123817Y24773935D02*
X127107817Y24773935D01*
X127107817Y25789935D01*
X128123817Y25789935D01*
X128123817Y24773935D01*
G36*
X128123817Y32393935D02*
G01*
X127107817Y32393935D01*
X127107817Y33409935D01*
X128123817Y33409935D01*
X128123817Y32393935D01*
G37*
X128123817Y32393935D02*
X127107817Y32393935D01*
X127107817Y33409935D01*
X128123817Y33409935D01*
X128123817Y32393935D01*
G36*
X128123817Y45093935D02*
G01*
X127107817Y45093935D01*
X127107817Y46109935D01*
X128123817Y46109935D01*
X128123817Y45093935D01*
G37*
X128123817Y45093935D02*
X127107817Y45093935D01*
X127107817Y46109935D01*
X128123817Y46109935D01*
X128123817Y45093935D01*
G36*
X116947817Y47633935D02*
G01*
X115931817Y47633935D01*
X115931817Y48649935D01*
X116947817Y48649935D01*
X116947817Y47633935D01*
G37*
X116947817Y47633935D02*
X115931817Y47633935D01*
X115931817Y48649935D01*
X116947817Y48649935D01*
X116947817Y47633935D01*
G36*
X116947817Y40013935D02*
G01*
X115931817Y40013935D01*
X115931817Y41029935D01*
X116947817Y41029935D01*
X116947817Y40013935D01*
G37*
X116947817Y40013935D02*
X115931817Y40013935D01*
X115931817Y41029935D01*
X116947817Y41029935D01*
X116947817Y40013935D01*
G36*
X116947817Y29853935D02*
G01*
X115931817Y29853935D01*
X115931817Y30869935D01*
X116947817Y30869935D01*
X116947817Y29853935D01*
G37*
X116947817Y29853935D02*
X115931817Y29853935D01*
X115931817Y30869935D01*
X116947817Y30869935D01*
X116947817Y29853935D01*
G36*
X128123817Y42553935D02*
G01*
X127107817Y42553935D01*
X127107817Y43569935D01*
X128123817Y43569935D01*
X128123817Y42553935D01*
G37*
X128123817Y42553935D02*
X127107817Y42553935D01*
X127107817Y43569935D01*
X128123817Y43569935D01*
X128123817Y42553935D01*
G36*
X116947817Y24773935D02*
G01*
X115931817Y24773935D01*
X115931817Y25789935D01*
X116947817Y25789935D01*
X116947817Y24773935D01*
G37*
X116947817Y24773935D02*
X115931817Y24773935D01*
X115931817Y25789935D01*
X116947817Y25789935D01*
X116947817Y24773935D01*
G36*
X128123817Y37473935D02*
G01*
X127107817Y37473935D01*
X127107817Y38489935D01*
X128123817Y38489935D01*
X128123817Y37473935D01*
G37*
X128123817Y37473935D02*
X127107817Y37473935D01*
X127107817Y38489935D01*
X128123817Y38489935D01*
X128123817Y37473935D01*
G36*
X116947817Y34933935D02*
G01*
X115931817Y34933935D01*
X115931817Y35949935D01*
X116947817Y35949935D01*
X116947817Y34933935D01*
G37*
X116947817Y34933935D02*
X115931817Y34933935D01*
X115931817Y35949935D01*
X116947817Y35949935D01*
X116947817Y34933935D01*
G36*
X128123817Y40013935D02*
G01*
X127107817Y40013935D01*
X127107817Y41029935D01*
X128123817Y41029935D01*
X128123817Y40013935D01*
G37*
X128123817Y40013935D02*
X127107817Y40013935D01*
X127107817Y41029935D01*
X128123817Y41029935D01*
X128123817Y40013935D01*
G36*
X128123817Y27313935D02*
G01*
X127107817Y27313935D01*
X127107817Y28329935D01*
X128123817Y28329935D01*
X128123817Y27313935D01*
G37*
X128123817Y27313935D02*
X127107817Y27313935D01*
X127107817Y28329935D01*
X128123817Y28329935D01*
X128123817Y27313935D01*
G36*
X128123817Y50173935D02*
G01*
X127107817Y50173935D01*
X127107817Y51189935D01*
X128123817Y51189935D01*
X128123817Y50173935D01*
G37*
X128123817Y50173935D02*
X127107817Y50173935D01*
X127107817Y51189935D01*
X128123817Y51189935D01*
X128123817Y50173935D01*
G36*
X128123817Y22233935D02*
G01*
X127107817Y22233935D01*
X127107817Y23249935D01*
X128123817Y23249935D01*
X128123817Y22233935D01*
G37*
X128123817Y22233935D02*
X127107817Y22233935D01*
X127107817Y23249935D01*
X128123817Y23249935D01*
X128123817Y22233935D01*
G36*
X116947817Y37473935D02*
G01*
X115931817Y37473935D01*
X115931817Y38489935D01*
X116947817Y38489935D01*
X116947817Y37473935D01*
G37*
X116947817Y37473935D02*
X115931817Y37473935D01*
X115931817Y38489935D01*
X116947817Y38489935D01*
X116947817Y37473935D01*
G36*
X128123817Y34933935D02*
G01*
X127107817Y34933935D01*
X127107817Y35949935D01*
X128123817Y35949935D01*
X128123817Y34933935D01*
G37*
X128123817Y34933935D02*
X127107817Y34933935D01*
X127107817Y35949935D01*
X128123817Y35949935D01*
X128123817Y34933935D01*
%TD*%
D12*
%TO.C,*%
X132777817Y14411938D03*
X131277817Y14411938D03*
%TD*%
D13*
%TO.C,D21*%
X124446301Y-22894514D03*
D14*
X126839807Y-17987099D03*
D13*
X125892925Y-19928494D03*
D15*
X123499419Y-24835909D03*
%TD*%
D14*
%TO.C,D12*%
X67637819Y45911938D03*
D16*
X62177819Y45911938D03*
X65477819Y45911938D03*
D17*
X60017819Y45911938D03*
%TD*%
D18*
%TO.C,S20*%
X99231411Y-6825366D03*
X95963041Y-11202324D03*
X96981900Y-16569067D03*
D19*
X101760543Y-12540783D03*
D18*
X95963041Y-11202324D03*
D20*
X102997774Y-7181748D03*
X100523312Y-17899818D03*
D21*
X95226326Y-14393386D03*
X99968125Y-3634304D03*
%TD*%
D14*
%TO.C,D6*%
X28960003Y34320998D03*
D22*
X23520780Y33845128D03*
D23*
X21368999Y33656872D03*
D22*
X26808222Y34132742D03*
%TD*%
D14*
%TO.C,D9*%
X49637820Y42511937D03*
D16*
X44177820Y42511937D03*
D17*
X42017820Y42511937D03*
D16*
X47477820Y42511937D03*
%TD*%
D18*
%TO.C,S21*%
X115113309Y-22069729D03*
X115327817Y-16611343D03*
D20*
X118264601Y-24163018D03*
D19*
X120675642Y-19219651D03*
D18*
X119497020Y-13081789D03*
D20*
X123086683Y-14276284D03*
D18*
X115327817Y-16611343D03*
D24*
X113892152Y-19554893D03*
X120932686Y-10138238D03*
%TD*%
D16*
%TO.C,D14*%
X80177820Y25511940D03*
D14*
X85637820Y25511940D03*
D17*
X78017820Y25511940D03*
D16*
X83477820Y25511940D03*
%TD*%
D20*
%TO.C,S12*%
X58327818Y50911937D03*
D18*
X58827818Y54661937D03*
X63827818Y56861937D03*
D20*
X69327818Y50911937D03*
D18*
X63827818Y56861937D03*
D19*
X63827818Y50911937D03*
D18*
X68827818Y54661937D03*
D25*
X60552818Y56861937D03*
X72102818Y54661937D03*
%TD*%
D26*
%TO.C,MCU1*%
X127869817Y30361935D03*
D27*
X129647817Y43061935D03*
D26*
X127869817Y48141935D03*
D28*
X116185817Y43061935D03*
X116185817Y45601935D03*
X116185817Y22741935D03*
D27*
X114407817Y22741935D03*
D28*
X116185817Y30361935D03*
D27*
X114407817Y48141935D03*
X114407817Y45601935D03*
X129647817Y22741935D03*
D29*
X129647817Y50681935D03*
D28*
X116185817Y40521935D03*
D26*
X127869817Y43061935D03*
D28*
X116185817Y25281935D03*
D27*
X129647817Y50681935D03*
D26*
X127869817Y27821935D03*
D27*
X129647817Y37981935D03*
X114407817Y30361935D03*
X114407817Y50681935D03*
X114407817Y35441935D03*
D26*
X127869817Y50681935D03*
D27*
X114407817Y25281935D03*
D28*
X116185817Y35441935D03*
D26*
X127869817Y37981935D03*
X127869817Y40521935D03*
D27*
X129647817Y30361935D03*
X114407817Y37981935D03*
X114407817Y40521935D03*
D26*
X127869817Y25281935D03*
D27*
X129647817Y25281935D03*
D28*
X116185817Y27821935D03*
X116185817Y37981935D03*
D26*
X127869817Y45601935D03*
D27*
X114407817Y43061935D03*
X129647817Y48141935D03*
X129647817Y27821935D03*
X114407817Y27821935D03*
D26*
X127869817Y35441935D03*
D27*
X129647817Y35441935D03*
D28*
X116185817Y32901935D03*
X116185817Y50681935D03*
D27*
X114407817Y32901935D03*
X129647817Y45601935D03*
D26*
X127869817Y32901935D03*
D27*
X129647817Y32901935D03*
D26*
X127869817Y22741935D03*
D28*
X116185817Y48141935D03*
D27*
X129647817Y40521935D03*
D30*
X117201817Y50681935D03*
X117201817Y48141935D03*
X117201817Y45601935D03*
X117201817Y43061935D03*
X117201817Y40521935D03*
X117201817Y37981935D03*
X117201817Y35441935D03*
X117201817Y32901935D03*
X117201817Y30361935D03*
X117201817Y27821935D03*
X117201817Y25281935D03*
X117201817Y22741935D03*
D31*
X126853817Y22741935D03*
X126853817Y25281935D03*
X126853817Y27821935D03*
X126853817Y30361935D03*
X126853817Y32901935D03*
X126853817Y35441935D03*
X126853817Y37981935D03*
X126853817Y40521935D03*
X126853817Y43061935D03*
X126853817Y45601935D03*
X126853817Y48141935D03*
X126853817Y50681935D03*
%TD*%
D18*
%TO.C,S18*%
X99827820Y51761940D03*
X94827820Y49561940D03*
D20*
X105327820Y45811940D03*
D18*
X99827820Y51761940D03*
X104827820Y49561940D03*
D19*
X99827820Y45811940D03*
D20*
X94327820Y45811940D03*
D25*
X96552820Y51761940D03*
X108102820Y49561940D03*
%TD*%
D14*
%TO.C,D19*%
X86827818Y-6478061D03*
D32*
X86827818Y-11938061D03*
D33*
X86827818Y-14098061D03*
D32*
X86827818Y-8638061D03*
%TD*%
D14*
%TO.C,D3*%
X11176663Y31058659D03*
D22*
X5737440Y30582789D03*
D23*
X3585659Y30394533D03*
D22*
X9024882Y30870403D03*
%TD*%
D20*
%TO.C,S2*%
X2947959Y18292902D03*
D18*
X3119222Y22072210D03*
X7908453Y24699617D03*
X7908453Y24699617D03*
X13081169Y22943768D03*
D20*
X13906101Y19251616D03*
D19*
X8427030Y18772259D03*
D34*
X4645916Y24414182D03*
X16343707Y23229203D03*
%TD*%
D18*
%TO.C,S9*%
X45827820Y53461938D03*
D20*
X51327820Y47511938D03*
D18*
X40827820Y51261938D03*
D20*
X40327820Y47511938D03*
D19*
X45827820Y47511938D03*
D18*
X45827820Y53461938D03*
X50827820Y51261938D03*
D25*
X42552820Y53461938D03*
X54102820Y51261938D03*
%TD*%
D35*
%TO.C,OLED1*%
X125827817Y20411938D03*
D36*
X123287817Y20411938D03*
X120747817Y20411938D03*
X118207817Y20411938D03*
%TD*%
D14*
%TO.C,D4*%
X31923298Y450375D03*
D22*
X26484075Y-25495D03*
D23*
X24332294Y-213751D03*
D22*
X29771517Y262119D03*
%TD*%
D37*
%TO.C,*%
X130327819Y11511938D03*
X133727819Y11511938D03*
%TD*%
D18*
%TO.C,S6*%
X19420913Y42269859D03*
D20*
X19249650Y38490551D03*
D18*
X24210144Y44897266D03*
D20*
X30207792Y39449265D03*
D18*
X24210144Y44897266D03*
D19*
X24728721Y38969908D03*
D18*
X29382860Y43141417D03*
D34*
X20947607Y44611831D03*
X32645398Y43426852D03*
%TD*%
D14*
%TO.C,D22*%
X124037820Y-188061D03*
D16*
X118577820Y-188061D03*
X121877820Y-188061D03*
D17*
X116417820Y-188061D03*
%TD*%
D18*
%TO.C,S1*%
X9390103Y7764306D03*
D20*
X15387751Y2316305D03*
D18*
X9390103Y7764306D03*
X14562819Y6008457D03*
X4600872Y5136899D03*
D19*
X9908680Y1836948D03*
D20*
X4429609Y1357591D03*
D34*
X6127566Y7478871D03*
X17825357Y6293892D03*
%TD*%
D14*
%TO.C,D11*%
X67637817Y28911940D03*
D16*
X62177817Y28911940D03*
D17*
X60017817Y28911940D03*
D16*
X65477817Y28911940D03*
%TD*%
D18*
%TO.C,S4*%
X22384207Y8399237D03*
X27173438Y11026644D03*
X27173438Y11026644D03*
D20*
X22212944Y4619929D03*
X33171086Y5578643D03*
D19*
X27692015Y5099286D03*
D18*
X32346154Y9270795D03*
D34*
X23910901Y10741209D03*
X35608692Y9556230D03*
%TD*%
D16*
%TO.C,D15*%
X80177819Y42511939D03*
D14*
X85637819Y42511939D03*
D17*
X78017819Y42511939D03*
D16*
X83477819Y42511939D03*
%TD*%
D22*
%TO.C,D5*%
X25002427Y16909819D03*
D14*
X30441650Y17385689D03*
D23*
X22850646Y16721563D03*
D22*
X28289869Y17197433D03*
%TD*%
D14*
%TO.C,D17*%
X103637819Y23811936D03*
D16*
X98177819Y23811936D03*
X101477819Y23811936D03*
D17*
X96017819Y23811936D03*
%TD*%
D14*
%TO.C,D8*%
X49637818Y25511938D03*
D16*
X44177818Y25511938D03*
X47477818Y25511938D03*
D17*
X42017818Y25511938D03*
%TD*%
D16*
%TO.C,D16*%
X98177820Y6811937D03*
D14*
X103637820Y6811937D03*
D17*
X96017820Y6811937D03*
D16*
X101477820Y6811937D03*
%TD*%
D20*
%TO.C,S8*%
X51327817Y30511940D03*
X40327817Y30511940D03*
D19*
X45827817Y30511940D03*
D18*
X45827817Y36461940D03*
X40827817Y34261940D03*
X45827817Y36461940D03*
X50827817Y34261940D03*
D25*
X42552817Y36461940D03*
X54102817Y34261940D03*
%TD*%
D18*
%TO.C,S17*%
X99827820Y34761939D03*
D20*
X105327820Y28811939D03*
D18*
X94827820Y32561939D03*
D20*
X94327820Y28811939D03*
D18*
X104827820Y32561939D03*
D19*
X99827820Y28811939D03*
D18*
X99827820Y34761939D03*
D25*
X96552820Y34761939D03*
X108102820Y32561939D03*
%TD*%
D38*
%TO.C,*%
X134457821Y8961939D03*
D39*
X133357821Y6811939D03*
D38*
X132247821Y8961939D03*
D39*
X133357821Y3811939D03*
D38*
X132247821Y1661939D03*
X134457821Y1661939D03*
D39*
X133357821Y6811939D03*
X133357821Y3811939D03*
D40*
X131597821Y7561939D03*
X131597821Y4561939D03*
X131597821Y3061939D03*
%TD*%
D14*
%TO.C,D10*%
X67637817Y11911938D03*
D16*
X62177817Y11911938D03*
X65477817Y11911938D03*
D17*
X60017817Y11911938D03*
%TD*%
D19*
%TO.C,S11*%
X63827819Y33911939D03*
D20*
X69327819Y33911939D03*
D18*
X68827819Y37661939D03*
X63827819Y39861939D03*
X63827819Y39861939D03*
X58827819Y37661939D03*
D20*
X58327819Y33911939D03*
D25*
X60552819Y39861939D03*
X72102819Y37661939D03*
%TD*%
D41*
%TO.C,REF\u002A\u002A*%
X125052819Y4511939D03*
D27*
X125052819Y14621939D03*
X125052819Y12081939D03*
X125052819Y9541939D03*
X125052819Y7001939D03*
X126277819Y17011939D03*
X124427819Y17011939D03*
%TD*%
D19*
%TO.C,S16*%
X99827820Y11811938D03*
D18*
X99827820Y17761938D03*
X99827820Y17761938D03*
D20*
X105327820Y11811938D03*
X94327820Y11811938D03*
D18*
X104827820Y15561938D03*
X94827820Y15561938D03*
D25*
X96552820Y17761938D03*
X108102820Y15561938D03*
%TD*%
D20*
%TO.C,S19*%
X81827821Y-15788060D03*
D18*
X75877821Y-10288060D03*
D20*
X81827821Y-4788060D03*
D18*
X78077821Y-15288060D03*
X75877821Y-10288060D03*
X78077821Y-5288060D03*
D19*
X81827821Y-10288060D03*
D42*
X75877821Y-13563060D03*
X78077821Y-2013060D03*
%TD*%
D22*
%TO.C,D2*%
X7219088Y13647483D03*
D14*
X12658311Y14123353D03*
D22*
X10506530Y13935097D03*
D23*
X5067307Y13459227D03*
%TD*%
D20*
%TO.C,S5*%
X20731300Y21555236D03*
D19*
X26210371Y22034593D03*
D20*
X31689442Y22513950D03*
D18*
X25691794Y27961951D03*
X25691794Y27961951D03*
X30864510Y26206102D03*
X20902563Y25334544D03*
D34*
X22429257Y27676516D03*
X34127048Y26491537D03*
%TD*%
D16*
%TO.C,D18*%
X98177818Y40811939D03*
D14*
X103637818Y40811939D03*
D16*
X101477818Y40811939D03*
D17*
X96017818Y40811939D03*
%TD*%
D18*
%TO.C,S14*%
X76827819Y34261935D03*
D20*
X76327819Y30511935D03*
D18*
X81827819Y36461935D03*
X81827819Y36461935D03*
X86827819Y34261935D03*
D19*
X81827819Y30511935D03*
D20*
X87327819Y30511935D03*
D25*
X78552819Y36461935D03*
X90102819Y34261935D03*
%TD*%
D43*
%TO.C,ROT1*%
X120607394Y2271825D03*
X120607394Y13471825D03*
D41*
X113607394Y5371825D03*
X113607394Y10371825D03*
D44*
X128107394Y5371825D03*
D45*
X128107394Y10371825D03*
X128107394Y7871825D03*
%TD*%
D14*
%TO.C,D7*%
X49637821Y8511938D03*
D16*
X44177821Y8511938D03*
X47477821Y8511938D03*
D17*
X42017821Y8511938D03*
%TD*%
D14*
%TO.C,D13*%
X85637821Y8511940D03*
D16*
X80177821Y8511940D03*
X83477821Y8511940D03*
D17*
X78017821Y8511940D03*
%TD*%
D18*
%TO.C,S15*%
X76827820Y51261935D03*
D19*
X81827820Y47511935D03*
D18*
X86827820Y51261935D03*
X81827820Y53461935D03*
D20*
X76327820Y47511935D03*
X87327820Y47511935D03*
D18*
X81827820Y53461935D03*
D25*
X78552820Y53461935D03*
X90102820Y51261935D03*
%TD*%
D18*
%TO.C,S10*%
X58827818Y20661938D03*
D19*
X63827818Y16911938D03*
D20*
X58327818Y16911938D03*
D18*
X63827818Y22861938D03*
X68827818Y20661938D03*
X63827818Y22861938D03*
D20*
X69327818Y16911938D03*
D25*
X60552818Y22861938D03*
X72102818Y20661938D03*
%TD*%
D46*
%TO.C,D20*%
X106261224Y-15273249D03*
D14*
X107489457Y-9953188D03*
D46*
X107003562Y-12057827D03*
D47*
X105775329Y-17377888D03*
%TD*%
D19*
%TO.C,S13*%
X81827818Y13511937D03*
D18*
X81827818Y19461937D03*
D20*
X76327818Y13511937D03*
D18*
X76827818Y17261937D03*
D20*
X87327818Y13511937D03*
D18*
X86827818Y17261937D03*
X81827818Y19461937D03*
D25*
X78552818Y19461937D03*
X90102818Y17261937D03*
%TD*%
D20*
%TO.C,S7*%
X40327817Y13511941D03*
D19*
X45827817Y13511941D03*
D18*
X45827817Y19461941D03*
X45827817Y19461941D03*
D20*
X51327817Y13511941D03*
D18*
X50827817Y17261941D03*
X40827817Y17261941D03*
D25*
X42552817Y19461941D03*
X54102817Y17261941D03*
%TD*%
D14*
%TO.C,D1*%
X14139959Y-2811958D03*
D22*
X8700736Y-3287828D03*
X11988178Y-3000214D03*
D23*
X6548955Y-3476084D03*
%TD*%
D20*
%TO.C,S3*%
X1466312Y35228214D03*
D18*
X11599522Y39879080D03*
D20*
X12424454Y36186928D03*
D18*
X1637575Y39007522D03*
X6426806Y41634929D03*
D19*
X6945383Y35707571D03*
D18*
X6426806Y41634929D03*
D34*
X3164269Y41349494D03*
X14862060Y40164515D03*
%TD*%
M02*
