%TF.GenerationSoftware,KiCad,Pcbnew,(6.0.6)*%
%TF.CreationDate,2022-07-14T02:02:08+02:00*%
%TF.ProjectId,main_wired2,6d61696e-5f77-4697-9265-64322e6b6963,v1.0.0*%
%TF.SameCoordinates,Original*%
%TF.FileFunction,Profile,NP*%
%FSLAX46Y46*%
G04 Gerber Fmt 4.6, Leading zero omitted, Abs format (unit mm)*
G04 Created by KiCad (PCBNEW (6.0.6)) date 2022-07-14 02:02:08*
%MOMM*%
%LPD*%
G01*
G04 APERTURE LIST*
%TA.AperFunction,Profile*%
%ADD10C,0.150000*%
%TD*%
G04 APERTURE END LIST*
D10*
X36827819Y57011883D02*
G75*
G03*
X35827817Y56011938I-19J-999983D01*
G01*
X35827817Y56011938D02*
X35827818Y50393570D01*
X-3757390Y43303668D02*
X-2275779Y26368807D01*
X72327819Y-23788060D02*
X72327819Y-3329681D01*
X134227818Y53561938D02*
X109827820Y53561939D01*
X90827822Y57011942D02*
X74827819Y57011941D01*
X-2275779Y26368807D02*
G75*
G03*
X-2275741Y26368359I25287J1919D01*
G01*
X134898323Y-11729970D02*
G75*
G03*
X135227819Y-10988061I-670423J741870D01*
G01*
X72327838Y-23788060D02*
G75*
G03*
X73327821Y-24788062I1000062J60D01*
G01*
X-794052Y9432603D02*
X687555Y-7502261D01*
X52827818Y57011882D02*
G75*
G03*
X53827818Y58011939I-18J1000018D01*
G01*
X14934989Y47649354D02*
X34914977Y49397376D01*
X72827818Y60411935D02*
X54827818Y60411938D01*
X34914975Y49397398D02*
G75*
G03*
X35827817Y50393569I-87275J996302D01*
G01*
X123296177Y-35517898D02*
X134898323Y-11729970D01*
X-794094Y9433049D02*
G75*
G03*
X-794053Y9432606I45311J3970D01*
G01*
X91827819Y55311933D02*
X91827818Y56011938D01*
X121959024Y-35978287D02*
G75*
G03*
X123296177Y-35517898I438376J898787D01*
G01*
X1770907Y-8411300D02*
X71240663Y-2333484D01*
X14934989Y47649354D02*
G75*
G03*
X14025953Y46566006I87171J-996204D01*
G01*
X135227821Y-10988060D02*
X135227819Y-10917613D01*
X90461894Y-24813690D02*
G75*
G03*
X90236941Y-24788064I-224894J-974010D01*
G01*
X108827817Y55311941D02*
X91827819Y55311933D01*
X687558Y-7502261D02*
G75*
G03*
X1770907Y-8411300I996182J87141D01*
G01*
X73827835Y59411936D02*
G75*
G03*
X72827818Y60411935I-999935J64D01*
G01*
X14025952Y46566007D02*
X14086958Y45868666D01*
X109827820Y53561939D02*
X109827820Y54311938D01*
X-794094Y9433049D02*
X-2275738Y26368361D01*
X90461893Y-24813694D02*
X106692350Y-28560788D01*
X73827819Y58011937D02*
X73827817Y59411936D01*
X73327821Y-24788062D02*
X90236941Y-24788064D01*
X73827841Y58011937D02*
G75*
G03*
X74827819Y57011941I1000059J63D01*
G01*
X135227821Y-10917613D02*
G75*
G03*
X135227818Y-10706560I-994621J105513D01*
G01*
X72327829Y-3329681D02*
G75*
G03*
X71240662Y-2333484I-999929J81D01*
G01*
X54827818Y60411882D02*
G75*
G03*
X53827818Y59411936I-18J-999982D01*
G01*
X52827818Y57011937D02*
X36827819Y57011936D01*
X135227838Y52561937D02*
G75*
G03*
X134227818Y53561938I-999938J63D01*
G01*
X106905771Y-28636365D02*
X121959009Y-35978318D01*
X106905767Y-28636374D02*
G75*
G03*
X106692350Y-28560788I-438467J-898926D01*
G01*
X-2848351Y44387021D02*
G75*
G03*
X-3757389Y43303668I87160J-996197D01*
G01*
X91827842Y56011938D02*
G75*
G03*
X90827822Y57011942I-999942J62D01*
G01*
X109827841Y54311938D02*
G75*
G03*
X108827817Y55311941I-999941J62D01*
G01*
X53827818Y59411936D02*
X53827818Y58011939D01*
X14086958Y45868666D02*
X-2848351Y44387021D01*
X135227818Y-10706560D02*
X135227819Y52561937D01*
%TO.C,REF\u002A\u002A*%
X109627819Y3511939D02*
X109627819Y17111939D01*
X109927819Y17411939D02*
X111727819Y17411939D01*
X112027819Y17111939D02*
X112027819Y3511939D01*
X111727819Y3211939D02*
X109927819Y3211939D01*
X111727819Y3211939D02*
G75*
G03*
X112027819Y3511939I0J300000D01*
G01*
X109927819Y17411939D02*
G75*
G03*
X109627819Y17111939I0J-300000D01*
G01*
X112027819Y17111939D02*
G75*
G03*
X111727819Y17411939I-300000J0D01*
G01*
X109627819Y3511939D02*
G75*
G03*
X109927819Y3211939I300000J0D01*
G01*
%TD*%
M02*
