%TF.GenerationSoftware,KiCad,Pcbnew,(6.0.6)*%
%TF.CreationDate,2022-07-14T02:02:07+02:00*%
%TF.ProjectId,main_wired2,6d61696e-5f77-4697-9265-64322e6b6963,v1.0.0*%
%TF.SameCoordinates,Original*%
%TF.FileFunction,Copper,L1,Top*%
%TF.FilePolarity,Positive*%
%FSLAX46Y46*%
G04 Gerber Fmt 4.6, Leading zero omitted, Abs format (unit mm)*
G04 Created by KiCad (PCBNEW (6.0.6)) date 2022-07-14 02:02:07*
%MOMM*%
%LPD*%
G01*
G04 APERTURE LIST*
G04 Aperture macros list*
%AMRotRect*
0 Rectangle, with rotation*
0 The origin of the aperture is its center*
0 $1 length*
0 $2 width*
0 $3 Rotation angle, in degrees counterclockwise*
0 Add horizontal line*
21,1,$1,$2,0,0,$3*%
%AMFreePoly0*
4,1,29,2.195502,0.119853,2.254624,0.081678,2.283753,0.017613,2.273655,-0.052035,2.227530,-0.105189,2.160000,-0.125000,0.000000,-0.125000,-0.035502,-0.119852,-0.047057,-0.112391,-0.062500,-0.108253,-0.078963,-0.091790,-0.094624,-0.081678,-0.099251,-0.071502,-0.108253,-0.062500,-0.115298,-0.036209,-0.123752,-0.017613,-0.122534,-0.009204,-0.125000,0.000000,-0.116718,0.030909,-0.113655,0.052035,
-0.109897,0.056366,-0.108253,0.062500,-0.080431,0.090323,-0.067530,0.105188,-0.064748,0.106005,-0.062500,0.108253,0.000000,0.125000,2.160000,0.125001,2.195502,0.119853,2.195502,0.119853,$1*%
%AMFreePoly1*
4,1,30,0.035502,0.119852,0.047057,0.112391,0.062500,0.108253,0.078963,0.091790,0.094624,0.081678,0.099251,0.071502,0.108253,0.062500,0.115298,0.036209,0.123752,0.017613,0.122534,0.009204,0.125000,0.000000,0.120281,-0.017613,0.116718,-0.030908,0.113655,-0.052035,0.109897,-0.056366,0.108253,-0.062500,0.080431,-0.090323,0.067530,-0.105188,0.064748,-0.106005,0.062500,-0.108253,
0.000000,-0.125000,-2.160000,-0.125001,-2.195502,-0.119853,-2.254624,-0.081678,-2.283753,-0.017613,-2.273655,0.052035,-2.227530,0.105189,-2.160000,0.125000,0.000000,0.125000,0.035502,0.119852,0.035502,0.119852,$1*%
%AMFreePoly2*
4,1,49,0.004774,0.123721,0.009154,0.124664,0.028953,0.117242,0.062500,0.108253,0.068237,0.102516,0.075052,0.099961,0.087614,0.083139,0.108253,0.062501,0.111178,0.051584,0.117161,0.043572,0.118539,0.024113,0.125000,0.000000,0.121239,-0.014035,0.122131,-0.026629,0.113759,-0.041951,0.108253,-0.062500,0.095644,-0.075109,0.088389,-0.088388,-0.375000,-0.551776,-0.375000,-9.948224,
0.588389,-10.911612,0.609852,-10.940356,0.624665,-11.009155,0.599961,-11.075053,0.543572,-11.117161,0.473371,-11.122131,0.411612,-11.088389,-0.588388,-10.088388,-0.601707,-10.070552,-0.605189,-10.067530,-0.605982,-10.064826,-0.609852,-10.059644,-0.616331,-10.029549,-0.625000,-10.000000,-0.625000,-0.500000,-0.621805,-0.477969,-0.622131,-0.473371,-0.620780,-0.470898,-0.619852,-0.464499,-0.603151,-0.438632,
-0.588388,-0.411612,-0.088388,0.088390,-0.064606,0.106147,-0.062501,0.108253,-0.061385,0.108552,-0.059644,0.109852,-0.043810,0.113261,0.000000,0.125000,0.004774,0.123721,0.004774,0.123721,$1*%
%AMFreePoly3*
4,1,41,15.235502,4.219852,15.294624,4.181678,15.323754,4.117613,15.313655,4.047965,15.267530,3.994811,15.200000,3.975000,4.151777,3.975000,0.088388,-0.088388,0.064607,-0.106146,0.062501,-0.108253,0.061385,-0.108552,0.059644,-0.109852,0.043810,-0.113261,0.000000,-0.125000,-0.004774,-0.123721,-0.009154,-0.124664,-0.028953,-0.117242,-0.062500,-0.108253,-0.068237,-0.102516,-0.075052,-0.099961,
-0.087614,-0.083139,-0.108253,-0.062501,-0.111178,-0.051584,-0.117161,-0.043572,-0.118539,-0.024113,-0.125000,0.000000,-0.121239,0.014035,-0.122131,0.026629,-0.113759,0.041953,-0.108253,0.062500,-0.095642,0.075111,-0.088388,0.088388,4.011612,4.188389,4.029449,4.201708,4.032470,4.205189,4.035173,4.205982,4.040357,4.209852,4.070457,4.216333,4.100000,4.225000,15.200000,4.224999,
15.235502,4.219852,15.235502,4.219852,$1*%
%AMFreePoly4*
4,1,5,0.125000,-0.500000,-0.125000,-0.500000,-0.125000,0.500000,0.125000,0.500000,0.125000,-0.500000,0.125000,-0.500000,$1*%
%AMFreePoly5*
4,1,6,0.600000,0.200000,0.000000,-0.400000,-0.600000,0.200000,-0.600000,0.400000,0.600000,0.400000,0.600000,0.200000,0.600000,0.200000,$1*%
%AMFreePoly6*
4,1,49,0.088388,4.152388,0.854389,3.386388,0.867708,3.368551,0.871189,3.365530,0.871982,3.362827,0.875852,3.357644,0.882333,3.327543,0.891000,3.298000,0.891000,0.766000,0.887805,0.743969,0.888131,0.739371,0.886780,0.736898,0.885852,0.730498,0.869154,0.704638,0.854389,0.677612,0.088388,-0.088388,0.064607,-0.106146,0.062500,-0.108253,0.061385,-0.108552,0.059644,-0.109852,
0.043810,-0.113261,0.000000,-0.125000,-0.004774,-0.123721,-0.009154,-0.124664,-0.028953,-0.117242,-0.062500,-0.108253,-0.068237,-0.102516,-0.075052,-0.099961,-0.087614,-0.083139,-0.108253,-0.062500,-0.111178,-0.051584,-0.117161,-0.043572,-0.118539,-0.024114,-0.125000,0.000000,-0.121239,0.014035,-0.122131,0.026629,-0.113759,0.041953,-0.108253,0.062500,-0.095642,0.075111,-0.088388,0.088388,
0.641000,0.817777,0.641000,3.246223,-0.088388,3.975612,-0.109852,4.004356,-0.124664,4.073154,-0.099961,4.139052,-0.043572,4.181161,0.026629,4.186131,0.088388,4.152388,0.088388,4.152388,$1*%
%AMFreePoly7*
4,1,6,0.600000,-0.250000,-0.600000,-0.250000,-0.600000,1.000000,0.000000,0.400000,0.600000,1.000000,0.600000,-0.250000,0.600000,-0.250000,$1*%
%AMFreePoly8*
4,1,49,0.088388,4.152388,0.850389,3.390388,0.863708,3.372551,0.867189,3.369530,0.867982,3.366827,0.871852,3.361644,0.878333,3.331543,0.887000,3.302000,0.887000,0.762000,0.883805,0.739969,0.884131,0.735371,0.882780,0.732898,0.881852,0.726498,0.865154,0.700638,0.850389,0.673612,0.088388,-0.088388,0.064607,-0.106146,0.062500,-0.108253,0.061385,-0.108552,0.059644,-0.109852,
0.043810,-0.113261,0.000000,-0.125000,-0.004774,-0.123721,-0.009154,-0.124664,-0.028953,-0.117242,-0.062500,-0.108253,-0.068237,-0.102516,-0.075052,-0.099961,-0.087614,-0.083139,-0.108253,-0.062500,-0.111178,-0.051584,-0.117161,-0.043572,-0.118539,-0.024114,-0.125000,0.000000,-0.121239,0.014035,-0.122131,0.026629,-0.113759,0.041953,-0.108253,0.062500,-0.095642,0.075111,-0.088388,0.088388,
0.637000,0.813777,0.637000,3.250223,-0.088388,3.975612,-0.109852,4.004356,-0.124664,4.073154,-0.099961,4.139052,-0.043572,4.181161,0.026629,4.186131,0.088388,4.152388,0.088388,4.152388,$1*%
G04 Aperture macros list end*
%TA.AperFunction,ComponentPad*%
%ADD10C,1.000000*%
%TD*%
%TA.AperFunction,SMDPad,CuDef*%
%ADD11FreePoly0,64.000000*%
%TD*%
%TA.AperFunction,SMDPad,CuDef*%
%ADD12FreePoly1,64.000000*%
%TD*%
%TA.AperFunction,ComponentPad*%
%ADD13C,1.905000*%
%TD*%
%TA.AperFunction,SMDPad,CuDef*%
%ADD14RotRect,0.900000X1.200000X64.000000*%
%TD*%
%TA.AperFunction,ComponentPad*%
%ADD15RotRect,1.778000X1.778000X64.000000*%
%TD*%
%TA.AperFunction,SMDPad,CuDef*%
%ADD16FreePoly0,0.000000*%
%TD*%
%TA.AperFunction,SMDPad,CuDef*%
%ADD17FreePoly1,0.000000*%
%TD*%
%TA.AperFunction,SMDPad,CuDef*%
%ADD18R,0.900000X1.200000*%
%TD*%
%TA.AperFunction,ComponentPad*%
%ADD19R,1.778000X1.778000*%
%TD*%
%TA.AperFunction,SMDPad,CuDef*%
%ADD20FreePoly2,77.000000*%
%TD*%
%TA.AperFunction,SMDPad,CuDef*%
%ADD21FreePoly3,77.000000*%
%TD*%
%TA.AperFunction,SMDPad,CuDef*%
%ADD22RotRect,2.600000X2.600000X77.000000*%
%TD*%
%TA.AperFunction,ComponentPad*%
%ADD23C,0.600000*%
%TD*%
%TA.AperFunction,SMDPad,CuDef*%
%ADD24FreePoly1,5.000000*%
%TD*%
%TA.AperFunction,SMDPad,CuDef*%
%ADD25FreePoly0,5.000000*%
%TD*%
%TA.AperFunction,SMDPad,CuDef*%
%ADD26RotRect,0.900000X1.200000X5.000000*%
%TD*%
%TA.AperFunction,ComponentPad*%
%ADD27RotRect,1.778000X1.778000X5.000000*%
%TD*%
%TA.AperFunction,SMDPad,CuDef*%
%ADD28FreePoly3,64.000000*%
%TD*%
%TA.AperFunction,SMDPad,CuDef*%
%ADD29FreePoly2,64.000000*%
%TD*%
%TA.AperFunction,SMDPad,CuDef*%
%ADD30RotRect,2.600000X2.600000X64.000000*%
%TD*%
%TA.AperFunction,SMDPad,CuDef*%
%ADD31FreePoly2,0.000000*%
%TD*%
%TA.AperFunction,SMDPad,CuDef*%
%ADD32FreePoly3,0.000000*%
%TD*%
%TA.AperFunction,SMDPad,CuDef*%
%ADD33R,2.600000X2.600000*%
%TD*%
%TA.AperFunction,ComponentPad*%
%ADD34C,1.600000*%
%TD*%
%TA.AperFunction,SMDPad,CuDef*%
%ADD35FreePoly4,90.000000*%
%TD*%
%TA.AperFunction,SMDPad,CuDef*%
%ADD36FreePoly5,270.000000*%
%TD*%
%TA.AperFunction,SMDPad,CuDef*%
%ADD37FreePoly4,270.000000*%
%TD*%
%TA.AperFunction,SMDPad,CuDef*%
%ADD38FreePoly5,90.000000*%
%TD*%
%TA.AperFunction,ComponentPad*%
%ADD39R,1.600000X1.600000*%
%TD*%
%TA.AperFunction,SMDPad,CuDef*%
%ADD40FreePoly6,270.000000*%
%TD*%
%TA.AperFunction,ComponentPad*%
%ADD41C,0.800000*%
%TD*%
%TA.AperFunction,SMDPad,CuDef*%
%ADD42FreePoly7,270.000000*%
%TD*%
%TA.AperFunction,SMDPad,CuDef*%
%ADD43FreePoly8,90.000000*%
%TD*%
%TA.AperFunction,SMDPad,CuDef*%
%ADD44FreePoly7,90.000000*%
%TD*%
%TA.AperFunction,SMDPad,CuDef*%
%ADD45FreePoly0,90.000000*%
%TD*%
%TA.AperFunction,SMDPad,CuDef*%
%ADD46FreePoly1,90.000000*%
%TD*%
%TA.AperFunction,SMDPad,CuDef*%
%ADD47R,1.200000X0.900000*%
%TD*%
%TA.AperFunction,SMDPad,CuDef*%
%ADD48FreePoly3,5.000000*%
%TD*%
%TA.AperFunction,SMDPad,CuDef*%
%ADD49FreePoly2,5.000000*%
%TD*%
%TA.AperFunction,SMDPad,CuDef*%
%ADD50RotRect,2.600000X2.600000X5.000000*%
%TD*%
%TA.AperFunction,ComponentPad*%
%ADD51R,1.700000X1.700000*%
%TD*%
%TA.AperFunction,ComponentPad*%
%ADD52O,1.700000X1.700000*%
%TD*%
%TA.AperFunction,SMDPad,CuDef*%
%ADD53R,0.900000X1.700000*%
%TD*%
%TA.AperFunction,SMDPad,CuDef*%
%ADD54R,1.000000X0.800000*%
%TD*%
%TA.AperFunction,SMDPad,CuDef*%
%ADD55R,0.700000X1.500000*%
%TD*%
%TA.AperFunction,SMDPad,CuDef*%
%ADD56FreePoly3,90.000000*%
%TD*%
%TA.AperFunction,SMDPad,CuDef*%
%ADD57FreePoly2,90.000000*%
%TD*%
%TA.AperFunction,ComponentPad*%
%ADD58R,3.200000X2.000000*%
%TD*%
%TA.AperFunction,ComponentPad*%
%ADD59C,1.500000*%
%TD*%
%TA.AperFunction,ComponentPad*%
%ADD60R,2.000000X2.000000*%
%TD*%
%TA.AperFunction,ComponentPad*%
%ADD61C,2.000000*%
%TD*%
%TA.AperFunction,SMDPad,CuDef*%
%ADD62FreePoly0,77.000000*%
%TD*%
%TA.AperFunction,SMDPad,CuDef*%
%ADD63FreePoly1,77.000000*%
%TD*%
%TA.AperFunction,SMDPad,CuDef*%
%ADD64RotRect,0.900000X1.200000X77.000000*%
%TD*%
%TA.AperFunction,ComponentPad*%
%ADD65RotRect,1.778000X1.778000X77.000000*%
%TD*%
%TA.AperFunction,ViaPad*%
%ADD66C,0.800000*%
%TD*%
%TA.AperFunction,Conductor*%
%ADD67C,0.250000*%
%TD*%
G04 APERTURE END LIST*
D10*
%TO.P,,1*%
%TO.N,pos*%
X132777817Y14411938D03*
%TO.P,,2*%
%TO.N,GND*%
X131277817Y14411938D03*
%TD*%
D11*
%TO.P,D21,*%
%TO.N,P7*%
X123499419Y-24835909D03*
D12*
%TO.N,inner_thumb*%
X126839807Y-17987099D03*
D13*
%TO.P,D21,1*%
X126839807Y-17987099D03*
D14*
%TO.N,P7*%
X124446301Y-22894514D03*
%TO.P,D21,2*%
%TO.N,inner_thumb*%
X125892925Y-19928494D03*
D15*
%TO.N,P7*%
X123499419Y-24835909D03*
%TD*%
D16*
%TO.P,D12,*%
%TO.N,P4*%
X60017819Y45911938D03*
D17*
%TO.N,middle_top*%
X67637819Y45911938D03*
D13*
%TO.P,D12,1*%
X67637819Y45911938D03*
D18*
%TO.N,P4*%
X62177819Y45911938D03*
%TO.P,D12,2*%
%TO.N,middle_top*%
X65477819Y45911938D03*
D19*
%TO.N,P4*%
X60017819Y45911938D03*
%TD*%
D20*
%TO.P,S20,*%
%TO.N,home_thumb*%
X96699756Y-8011262D03*
D21*
%TO.N,P15*%
X96245185Y-19760129D03*
D22*
%TO.P,S20,1*%
%TO.N,home_thumb*%
X96699756Y-8011262D03*
D23*
%TO.N,P15*%
X95686395Y-3954327D03*
D22*
%TO.P,S20,2*%
X96245185Y-19760129D03*
%TD*%
D24*
%TO.P,D6,*%
%TO.N,pinky_top*%
X28960003Y34320998D03*
D25*
%TO.N,P4*%
X21368999Y33656872D03*
D13*
%TO.P,D6,1*%
%TO.N,pinky_top*%
X28960003Y34320998D03*
D26*
%TO.N,P4*%
X23520780Y33845128D03*
D27*
%TO.P,D6,2*%
X21368999Y33656872D03*
D26*
%TO.N,pinky_top*%
X26808222Y34132742D03*
%TD*%
D16*
%TO.P,D9,*%
%TO.N,P4*%
X42017820Y42511937D03*
D17*
%TO.N,ring_top*%
X49637820Y42511937D03*
D18*
%TO.P,D9,1*%
%TO.N,P4*%
X44177820Y42511937D03*
D13*
%TO.N,ring_top*%
X49637820Y42511937D03*
D18*
%TO.P,D9,2*%
X47477820Y42511937D03*
D19*
%TO.N,P4*%
X42017820Y42511937D03*
%TD*%
D28*
%TO.P,S21,*%
%TO.N,P14*%
X113677643Y-25013280D03*
D29*
%TO.N,inner_thumb*%
X116763483Y-13667792D03*
D23*
%TO.P,S21,1*%
%TO.N,P14*%
X116688707Y-9486879D03*
D30*
%TO.N,inner_thumb*%
X116763483Y-13667792D03*
%TO.P,S21,2*%
%TO.N,P14*%
X113677643Y-25013280D03*
%TD*%
D17*
%TO.P,D14,*%
%TO.N,index_home*%
X85637820Y25511940D03*
D16*
%TO.N,P5*%
X78017820Y25511940D03*
D13*
%TO.P,D14,1*%
%TO.N,index_home*%
X85637820Y25511940D03*
D18*
%TO.N,P5*%
X80177820Y25511940D03*
%TO.P,D14,2*%
%TO.N,index_home*%
X83477820Y25511940D03*
D19*
%TO.N,P5*%
X78017820Y25511940D03*
%TD*%
D31*
%TO.P,S12,*%
%TO.N,middle_top*%
X67102818Y56861937D03*
D32*
%TO.N,P18*%
X55552818Y54661937D03*
D23*
%TO.P,S12,1*%
X70827818Y58761937D03*
D33*
%TO.N,middle_top*%
X67102818Y56861937D03*
%TO.P,S12,2*%
%TO.N,P18*%
X55552818Y54661937D03*
%TD*%
D34*
%TO.P,MCU1,*%
%TO.N,*%
X129647817Y43061935D03*
D35*
X115677817Y22741935D03*
D36*
X127869817Y37981935D03*
X127869817Y40521935D03*
D35*
X115677817Y32901935D03*
D34*
X114407817Y22741935D03*
D37*
X128377817Y32901935D03*
D34*
X114407817Y48141935D03*
D38*
X116185817Y35441935D03*
X116185817Y45601935D03*
D34*
X114407817Y45601935D03*
X129647817Y22741935D03*
D36*
X127869817Y45601935D03*
X127869817Y30361935D03*
D37*
X128377817Y48141935D03*
X128377817Y50681935D03*
D35*
X115677817Y35441935D03*
D34*
X129647817Y50681935D03*
D38*
X116185817Y25281935D03*
D37*
X128377817Y40521935D03*
D35*
X115677817Y25281935D03*
D37*
X128377817Y30361935D03*
D34*
X129647817Y37981935D03*
X114407817Y30361935D03*
D35*
X115677817Y45601935D03*
D34*
X114407817Y50681935D03*
X114407817Y35441935D03*
D36*
X127869817Y50681935D03*
D37*
X128377817Y22741935D03*
D34*
X114407817Y25281935D03*
D35*
X115677817Y50681935D03*
D37*
X128377817Y45601935D03*
X128377817Y25281935D03*
D38*
X116185817Y40521935D03*
D34*
X129647817Y30361935D03*
X114407817Y37981935D03*
X114407817Y40521935D03*
D36*
X127869817Y27821935D03*
D38*
X116185817Y30361935D03*
D36*
X127869817Y32901935D03*
X127869817Y35441935D03*
X127869817Y43061935D03*
D34*
X129647817Y25281935D03*
D36*
X127869817Y48141935D03*
D38*
X116185817Y48141935D03*
D34*
X114407817Y43061935D03*
D35*
X115677817Y40521935D03*
D34*
X129647817Y48141935D03*
X129647817Y27821935D03*
X114407817Y27821935D03*
D37*
X128377817Y35441935D03*
D38*
X116185817Y37981935D03*
D35*
X115677817Y43061935D03*
D39*
X114407817Y50681935D03*
D34*
X129647817Y35441935D03*
D35*
X115677817Y27821935D03*
D38*
X116185817Y32901935D03*
D35*
X115677817Y48141935D03*
D38*
X116185817Y27821935D03*
D37*
X128377817Y37981935D03*
D36*
X127869817Y22741935D03*
D38*
X116185817Y50681935D03*
D35*
X115677817Y30361935D03*
D38*
X116185817Y43061935D03*
D34*
X114407817Y32901935D03*
X129647817Y45601935D03*
D38*
X116185817Y22741935D03*
D37*
X128377817Y27821935D03*
D34*
X129647817Y32901935D03*
D36*
X127869817Y25281935D03*
D37*
X128377817Y43061935D03*
D34*
X129647817Y40521935D03*
D35*
X115677817Y37981935D03*
D40*
%TO.P,MCU1,1*%
%TO.N,RAW*%
X122789817Y50681935D03*
D41*
X122789817Y50681935D03*
D42*
X126853817Y50681935D03*
D41*
%TO.P,MCU1,2*%
%TO.N,GND*%
X122789817Y48141935D03*
D40*
X122789817Y48141935D03*
D42*
X126853817Y48141935D03*
%TO.P,MCU1,3*%
%TO.N,RST*%
X126853817Y45601935D03*
D41*
X122789817Y45601935D03*
D40*
X122789817Y45601935D03*
D41*
%TO.P,MCU1,4*%
%TO.N,VCC*%
X122789817Y43061935D03*
D40*
X122789817Y43061935D03*
D42*
X126853817Y43061935D03*
D41*
%TO.P,MCU1,5*%
%TO.N,P21*%
X122789817Y40521935D03*
D40*
X122789817Y40521935D03*
D42*
X126853817Y40521935D03*
%TO.P,MCU1,6*%
%TO.N,P20*%
X126853817Y37981935D03*
D41*
X122789817Y37981935D03*
D40*
X122789817Y37981935D03*
D41*
%TO.P,MCU1,7*%
%TO.N,P19*%
X122789817Y35441935D03*
D42*
X126853817Y35441935D03*
D40*
X122789817Y35441935D03*
%TO.P,MCU1,8*%
%TO.N,P18*%
X122789817Y32901935D03*
D41*
X122789817Y32901935D03*
D42*
X126853817Y32901935D03*
D41*
%TO.P,MCU1,9*%
%TO.N,P15*%
X122789817Y30361935D03*
D42*
X126853817Y30361935D03*
D40*
X122789817Y30361935D03*
%TO.P,MCU1,10*%
%TO.N,P14*%
X122789817Y27821935D03*
D42*
X126853817Y27821935D03*
D41*
X122789817Y27821935D03*
D42*
%TO.P,MCU1,11*%
%TO.N,P16*%
X126853817Y25281935D03*
D40*
X122789817Y25281935D03*
D41*
X122789817Y25281935D03*
D42*
%TO.P,MCU1,12*%
%TO.N,P10*%
X126853817Y22741935D03*
D41*
X122789817Y22741935D03*
D40*
X122789817Y22741935D03*
D41*
%TO.P,MCU1,13*%
%TO.N,P9*%
X121265817Y22741935D03*
D43*
X121265817Y22741935D03*
D44*
X117201817Y22741935D03*
D43*
%TO.P,MCU1,14*%
%TO.N,P8*%
X121265817Y25281935D03*
D44*
X117201817Y25281935D03*
D41*
X121265817Y25281935D03*
D43*
%TO.P,MCU1,15*%
%TO.N,P7*%
X121265817Y27821935D03*
D44*
X117201817Y27821935D03*
D41*
X121265817Y27821935D03*
D43*
%TO.P,MCU1,16*%
%TO.N,P6*%
X121265817Y30361935D03*
D41*
X121265817Y30361935D03*
D44*
X117201817Y30361935D03*
%TO.P,MCU1,17*%
%TO.N,P5*%
X117201817Y32901935D03*
D43*
X121265817Y32901935D03*
D41*
X121265817Y32901935D03*
D44*
%TO.P,MCU1,18*%
%TO.N,P4*%
X117201817Y35441935D03*
D43*
X121265817Y35441935D03*
D41*
X121265817Y35441935D03*
%TO.P,MCU1,19*%
%TO.N,P3*%
X121265817Y37981935D03*
D44*
X117201817Y37981935D03*
D43*
X121265817Y37981935D03*
D44*
%TO.P,MCU1,20*%
%TO.N,P2*%
X117201817Y40521935D03*
D41*
X121265817Y40521935D03*
D43*
X121265817Y40521935D03*
D41*
%TO.P,MCU1,21*%
%TO.N,GND*%
X121265817Y43061935D03*
D44*
X117201817Y43061935D03*
D43*
X121265817Y43061935D03*
D44*
%TO.P,MCU1,22*%
X117201817Y45601935D03*
D43*
X121265817Y45601935D03*
D41*
X121265817Y45601935D03*
D44*
%TO.P,MCU1,23*%
%TO.N,P0*%
X117201817Y48141935D03*
D43*
X121265817Y48141935D03*
D41*
X121265817Y48141935D03*
D44*
%TO.P,MCU1,24*%
%TO.N,P1*%
X117201817Y50681935D03*
D41*
X121265817Y50681935D03*
D43*
X121265817Y50681935D03*
%TD*%
D31*
%TO.P,S18,*%
%TO.N,inner_top*%
X103102820Y51761940D03*
D32*
%TO.N,P14*%
X91552820Y49561940D03*
D33*
%TO.P,S18,1*%
%TO.N,inner_top*%
X103102820Y51761940D03*
D23*
%TO.N,P14*%
X106827820Y53661940D03*
D33*
%TO.P,S18,2*%
X91552820Y49561940D03*
%TD*%
D45*
%TO.P,D19,*%
%TO.N,P7*%
X86827818Y-14098061D03*
D46*
%TO.N,outer_thumb*%
X86827818Y-6478061D03*
D13*
%TO.P,D19,1*%
X86827818Y-6478061D03*
D47*
%TO.N,P7*%
X86827818Y-11938061D03*
%TO.P,D19,2*%
%TO.N,outer_thumb*%
X86827818Y-8638061D03*
D19*
%TO.N,P7*%
X86827818Y-14098061D03*
%TD*%
D25*
%TO.P,D3,*%
%TO.N,P4*%
X3585659Y30394533D03*
D24*
%TO.N,outer_top*%
X11176663Y31058659D03*
D13*
%TO.P,D3,1*%
X11176663Y31058659D03*
D26*
%TO.N,P4*%
X5737440Y30582789D03*
D27*
%TO.P,D3,2*%
X3585659Y30394533D03*
D26*
%TO.N,outer_top*%
X9024882Y30870403D03*
%TD*%
D48*
%TO.P,S2,*%
%TO.N,P21*%
X-143315Y21786775D03*
D49*
%TO.N,outer_home*%
X11170991Y24985053D03*
D50*
%TO.P,S2,1*%
X11170991Y24985053D03*
D23*
%TO.N,P21*%
X14716220Y27202478D03*
D50*
%TO.P,S2,2*%
X-143315Y21786775D03*
%TD*%
D31*
%TO.P,S9,*%
%TO.N,ring_top*%
X49102820Y53461938D03*
D32*
%TO.N,P19*%
X37552820Y51261938D03*
D23*
%TO.P,S9,1*%
X52827820Y55361938D03*
D33*
%TO.N,ring_top*%
X49102820Y53461938D03*
%TO.P,S9,2*%
%TO.N,P19*%
X37552820Y51261938D03*
%TD*%
D51*
%TO.P,OLED1,1*%
%TO.N,GND*%
X125827817Y20411938D03*
D52*
%TO.P,OLED1,2*%
%TO.N,VCC*%
X123287817Y20411938D03*
%TO.P,OLED1,3*%
%TO.N,P3*%
X120747817Y20411938D03*
%TO.P,OLED1,4*%
%TO.N,P2*%
X118207817Y20411938D03*
%TD*%
D25*
%TO.P,D4,*%
%TO.N,P6*%
X24332294Y-213751D03*
D24*
%TO.N,pinky_bottom*%
X31923298Y450375D03*
D26*
%TO.P,D4,1*%
%TO.N,P6*%
X26484075Y-25495D03*
D13*
%TO.N,pinky_bottom*%
X31923298Y450375D03*
D26*
%TO.P,D4,2*%
X29771517Y262119D03*
D27*
%TO.N,P6*%
X24332294Y-213751D03*
%TD*%
D53*
%TO.P,,1*%
%TO.N,RST*%
X133727819Y11511938D03*
%TO.P,,2*%
%TO.N,GND*%
X130327819Y11511938D03*
%TD*%
D48*
%TO.P,S6,*%
%TO.N,P20*%
X16158376Y41984424D03*
D49*
%TO.N,pinky_top*%
X27472682Y45182702D03*
D23*
%TO.P,S6,1*%
%TO.N,P20*%
X31017911Y47400127D03*
D50*
%TO.N,pinky_top*%
X27472682Y45182702D03*
%TO.P,S6,2*%
%TO.N,P20*%
X16158376Y41984424D03*
%TD*%
D17*
%TO.P,D22,*%
%TO.N,enc_diode*%
X124037820Y-188061D03*
D16*
%TO.N,P6*%
X116417820Y-188061D03*
D13*
%TO.P,D22,1*%
%TO.N,enc_diode*%
X124037820Y-188061D03*
D18*
%TO.N,P6*%
X118577820Y-188061D03*
%TO.P,D22,2*%
%TO.N,enc_diode*%
X121877820Y-188061D03*
D19*
%TO.N,P6*%
X116417820Y-188061D03*
%TD*%
D48*
%TO.P,S1,*%
%TO.N,P21*%
X1338335Y4851464D03*
D49*
%TO.N,outer_bottom*%
X12652641Y8049742D03*
D23*
%TO.P,S1,1*%
%TO.N,P21*%
X16197870Y10267167D03*
D50*
%TO.N,outer_bottom*%
X12652641Y8049742D03*
%TO.P,S1,2*%
%TO.N,P21*%
X1338335Y4851464D03*
%TD*%
D17*
%TO.P,D11,*%
%TO.N,middle_home*%
X67637817Y28911940D03*
D16*
%TO.N,P5*%
X60017817Y28911940D03*
D18*
%TO.P,D11,1*%
X62177817Y28911940D03*
D13*
%TO.N,middle_home*%
X67637817Y28911940D03*
D19*
%TO.P,D11,2*%
%TO.N,P5*%
X60017817Y28911940D03*
D18*
%TO.N,middle_home*%
X65477817Y28911940D03*
%TD*%
D48*
%TO.P,S4,*%
%TO.N,P20*%
X19121670Y8113802D03*
D49*
%TO.N,pinky_bottom*%
X30435976Y11312080D03*
D23*
%TO.P,S4,1*%
%TO.N,P20*%
X33981205Y13529505D03*
D50*
%TO.N,pinky_bottom*%
X30435976Y11312080D03*
%TO.P,S4,2*%
%TO.N,P20*%
X19121670Y8113802D03*
%TD*%
D16*
%TO.P,D15,*%
%TO.N,P4*%
X78017819Y42511939D03*
D17*
%TO.N,index_top*%
X85637819Y42511939D03*
D18*
%TO.P,D15,1*%
%TO.N,P4*%
X80177819Y42511939D03*
D13*
%TO.N,index_top*%
X85637819Y42511939D03*
D18*
%TO.P,D15,2*%
X83477819Y42511939D03*
D19*
%TO.N,P4*%
X78017819Y42511939D03*
%TD*%
D24*
%TO.P,D5,*%
%TO.N,pinky_home*%
X30441650Y17385689D03*
D25*
%TO.N,P5*%
X22850646Y16721563D03*
D13*
%TO.P,D5,1*%
%TO.N,pinky_home*%
X30441650Y17385689D03*
D26*
%TO.N,P5*%
X25002427Y16909819D03*
%TO.P,D5,2*%
%TO.N,pinky_home*%
X28289869Y17197433D03*
D27*
%TO.N,P5*%
X22850646Y16721563D03*
%TD*%
D17*
%TO.P,D17,*%
%TO.N,inner_home*%
X103637819Y23811936D03*
D16*
%TO.N,P5*%
X96017819Y23811936D03*
D18*
%TO.P,D17,1*%
X98177819Y23811936D03*
D13*
%TO.N,inner_home*%
X103637819Y23811936D03*
D18*
%TO.P,D17,2*%
X101477819Y23811936D03*
D19*
%TO.N,P5*%
X96017819Y23811936D03*
%TD*%
D17*
%TO.P,D8,*%
%TO.N,ring_home*%
X49637818Y25511938D03*
D16*
%TO.N,P5*%
X42017818Y25511938D03*
D13*
%TO.P,D8,1*%
%TO.N,ring_home*%
X49637818Y25511938D03*
D18*
%TO.N,P5*%
X44177818Y25511938D03*
%TO.P,D8,2*%
%TO.N,ring_home*%
X47477818Y25511938D03*
D19*
%TO.N,P5*%
X42017818Y25511938D03*
%TD*%
D16*
%TO.P,D16,*%
%TO.N,P6*%
X96017820Y6811937D03*
D17*
%TO.N,inner_bottom*%
X103637820Y6811937D03*
D18*
%TO.P,D16,1*%
%TO.N,P6*%
X98177820Y6811937D03*
D13*
%TO.N,inner_bottom*%
X103637820Y6811937D03*
D19*
%TO.P,D16,2*%
%TO.N,P6*%
X96017820Y6811937D03*
D18*
%TO.N,inner_bottom*%
X101477820Y6811937D03*
%TD*%
D31*
%TO.P,S8,*%
%TO.N,ring_home*%
X49102817Y36461940D03*
D32*
%TO.N,P19*%
X37552817Y34261940D03*
D33*
%TO.P,S8,1*%
%TO.N,ring_home*%
X49102817Y36461940D03*
D23*
%TO.N,P19*%
X52827817Y38361940D03*
D33*
%TO.P,S8,2*%
X37552817Y34261940D03*
%TD*%
D32*
%TO.P,S17,*%
%TO.N,P14*%
X91552820Y32561939D03*
D31*
%TO.N,inner_home*%
X103102820Y34761939D03*
D23*
%TO.P,S17,1*%
%TO.N,P14*%
X106827820Y36661939D03*
D33*
%TO.N,inner_home*%
X103102820Y34761939D03*
%TO.P,S17,2*%
%TO.N,P14*%
X91552820Y32561939D03*
%TD*%
D54*
%TO.P,,*%
%TO.N,*%
X134457821Y8961939D03*
X132247821Y8961939D03*
X134457821Y1661939D03*
X132247821Y1661939D03*
D55*
%TO.P,,1*%
%TO.N,pos*%
X131597821Y3061939D03*
%TO.P,,2*%
%TO.N,RAW*%
X131597821Y6061939D03*
%TO.P,,3*%
%TO.N,N/C*%
X131597821Y7561939D03*
%TD*%
D17*
%TO.P,D10,*%
%TO.N,middle_bottom*%
X67637817Y11911938D03*
D16*
%TO.N,P6*%
X60017817Y11911938D03*
D18*
%TO.P,D10,1*%
X62177817Y11911938D03*
D13*
%TO.N,middle_bottom*%
X67637817Y11911938D03*
D18*
%TO.P,D10,2*%
X65477817Y11911938D03*
D19*
%TO.N,P6*%
X60017817Y11911938D03*
%TD*%
D32*
%TO.P,S11,*%
%TO.N,P18*%
X55552819Y37661939D03*
D31*
%TO.N,middle_home*%
X67102819Y39861939D03*
D23*
%TO.P,S11,1*%
%TO.N,P18*%
X70827819Y41761939D03*
D33*
%TO.N,middle_home*%
X67102819Y39861939D03*
%TO.P,S11,2*%
%TO.N,P18*%
X55552819Y37661939D03*
%TD*%
D34*
%TO.P,REF\u002A\u002A,A*%
%TO.N,P8*%
X125052819Y14621939D03*
%TO.P,REF\u002A\u002A,B*%
%TO.N,P9*%
X125052819Y12081939D03*
%TO.P,REF\u002A\u002A,C*%
%TO.N,GND*%
X125052819Y9541939D03*
%TO.P,REF\u002A\u002A,D*%
%TO.N,N/C*%
X125052819Y7001939D03*
%TO.P,REF\u002A\u002A,S1*%
%TO.N,P10*%
X126277819Y17011939D03*
%TO.P,REF\u002A\u002A,S2*%
%TO.N,enc_diode*%
X124427819Y17011939D03*
%TD*%
D32*
%TO.P,S16,*%
%TO.N,P14*%
X91552820Y15561938D03*
D31*
%TO.N,inner_bottom*%
X103102820Y17761938D03*
D33*
%TO.P,S16,1*%
X103102820Y17761938D03*
D23*
%TO.N,P14*%
X106827820Y19661938D03*
D33*
%TO.P,S16,2*%
X91552820Y15561938D03*
%TD*%
D56*
%TO.P,S19,*%
%TO.N,P18*%
X78077821Y-18563060D03*
D57*
%TO.N,outer_thumb*%
X75877821Y-7013060D03*
D33*
%TO.P,S19,1*%
X75877821Y-7013060D03*
D23*
%TO.N,P18*%
X73977821Y-3288060D03*
D33*
%TO.P,S19,2*%
X78077821Y-18563060D03*
%TD*%
D25*
%TO.P,D2,*%
%TO.N,P5*%
X5067307Y13459227D03*
D24*
%TO.N,outer_home*%
X12658311Y14123353D03*
D26*
%TO.P,D2,1*%
%TO.N,P5*%
X7219088Y13647483D03*
D13*
%TO.N,outer_home*%
X12658311Y14123353D03*
D26*
%TO.P,D2,2*%
X10506530Y13935097D03*
D27*
%TO.N,P5*%
X5067307Y13459227D03*
%TD*%
D49*
%TO.P,S5,*%
%TO.N,pinky_home*%
X28954332Y28247387D03*
D48*
%TO.N,P20*%
X17640026Y25049109D03*
D23*
%TO.P,S5,1*%
X32499561Y30464812D03*
D50*
%TO.N,pinky_home*%
X28954332Y28247387D03*
%TO.P,S5,2*%
%TO.N,P20*%
X17640026Y25049109D03*
%TD*%
D17*
%TO.P,D18,*%
%TO.N,inner_top*%
X103637818Y40811939D03*
D16*
%TO.N,P4*%
X96017818Y40811939D03*
D18*
%TO.P,D18,1*%
X98177818Y40811939D03*
D13*
%TO.N,inner_top*%
X103637818Y40811939D03*
D18*
%TO.P,D18,2*%
X101477818Y40811939D03*
D19*
%TO.N,P4*%
X96017818Y40811939D03*
%TD*%
D32*
%TO.P,S14,*%
%TO.N,P15*%
X73552819Y34261935D03*
D31*
%TO.N,index_home*%
X85102819Y36461935D03*
D33*
%TO.P,S14,1*%
X85102819Y36461935D03*
D23*
%TO.N,P15*%
X88827819Y38361935D03*
D33*
%TO.P,S14,2*%
X73552819Y34261935D03*
%TD*%
D58*
%TO.P,ROT1,*%
%TO.N,*%
X120607394Y2271825D03*
X120607394Y13471825D03*
D59*
%TO.P,ROT1,1*%
%TO.N,P10*%
X113607394Y5371825D03*
%TO.P,ROT1,2*%
%TO.N,enc_diode*%
X113607394Y10371825D03*
D60*
%TO.P,ROT1,A*%
%TO.N,P8*%
X128107394Y5371825D03*
D61*
%TO.P,ROT1,B*%
%TO.N,GND*%
X128107394Y10371825D03*
%TO.P,ROT1,C*%
%TO.N,P9*%
X128107394Y7871825D03*
%TD*%
D16*
%TO.P,D7,*%
%TO.N,P6*%
X42017821Y8511938D03*
D17*
%TO.N,ring_bottom*%
X49637821Y8511938D03*
D13*
%TO.P,D7,1*%
X49637821Y8511938D03*
D18*
%TO.N,P6*%
X44177821Y8511938D03*
D19*
%TO.P,D7,2*%
X42017821Y8511938D03*
D18*
%TO.N,ring_bottom*%
X47477821Y8511938D03*
%TD*%
D16*
%TO.P,D13,*%
%TO.N,P6*%
X78017821Y8511940D03*
D17*
%TO.N,index_bottom*%
X85637821Y8511940D03*
D13*
%TO.P,D13,1*%
X85637821Y8511940D03*
D18*
%TO.N,P6*%
X80177821Y8511940D03*
%TO.P,D13,2*%
%TO.N,index_bottom*%
X83477821Y8511940D03*
D19*
%TO.N,P6*%
X78017821Y8511940D03*
%TD*%
D31*
%TO.P,S15,*%
%TO.N,index_top*%
X85102820Y53461935D03*
D32*
%TO.N,P15*%
X73552820Y51261935D03*
D23*
%TO.P,S15,1*%
X88827820Y55361935D03*
D33*
%TO.N,index_top*%
X85102820Y53461935D03*
%TO.P,S15,2*%
%TO.N,P15*%
X73552820Y51261935D03*
%TD*%
D31*
%TO.P,S10,*%
%TO.N,middle_bottom*%
X67102818Y22861938D03*
D32*
%TO.N,P18*%
X55552818Y20661938D03*
D33*
%TO.P,S10,1*%
%TO.N,middle_bottom*%
X67102818Y22861938D03*
D23*
%TO.N,P18*%
X70827818Y24761938D03*
D33*
%TO.P,S10,2*%
X55552818Y20661938D03*
%TD*%
D62*
%TO.P,D20,*%
%TO.N,P7*%
X105775329Y-17377888D03*
D63*
%TO.N,home_thumb*%
X107489457Y-9953188D03*
D13*
%TO.P,D20,1*%
X107489457Y-9953188D03*
D64*
%TO.N,P7*%
X106261224Y-15273249D03*
%TO.P,D20,2*%
%TO.N,home_thumb*%
X107003562Y-12057827D03*
D65*
%TO.N,P7*%
X105775329Y-17377888D03*
%TD*%
D32*
%TO.P,S13,*%
%TO.N,P15*%
X73552818Y17261937D03*
D31*
%TO.N,index_bottom*%
X85102818Y19461937D03*
D23*
%TO.P,S13,1*%
%TO.N,P15*%
X88827818Y21361937D03*
D33*
%TO.N,index_bottom*%
X85102818Y19461937D03*
%TO.P,S13,2*%
%TO.N,P15*%
X73552818Y17261937D03*
%TD*%
D31*
%TO.P,S7,*%
%TO.N,ring_bottom*%
X49102817Y19461941D03*
D32*
%TO.N,P19*%
X37552817Y17261941D03*
D33*
%TO.P,S7,1*%
%TO.N,ring_bottom*%
X49102817Y19461941D03*
D23*
%TO.N,P19*%
X52827817Y21361941D03*
D33*
%TO.P,S7,2*%
X37552817Y17261941D03*
%TD*%
D24*
%TO.P,D1,*%
%TO.N,outer_bottom*%
X14139959Y-2811958D03*
D25*
%TO.N,P6*%
X6548955Y-3476084D03*
D13*
%TO.P,D1,1*%
%TO.N,outer_bottom*%
X14139959Y-2811958D03*
D26*
%TO.N,P6*%
X8700736Y-3287828D03*
%TO.P,D1,2*%
%TO.N,outer_bottom*%
X11988178Y-3000214D03*
D27*
%TO.N,P6*%
X6548955Y-3476084D03*
%TD*%
D49*
%TO.P,S3,*%
%TO.N,outer_top*%
X9689344Y41920365D03*
D48*
%TO.N,P21*%
X-1624962Y38722087D03*
D50*
%TO.P,S3,1*%
%TO.N,outer_top*%
X9689344Y41920365D03*
D23*
%TO.N,P21*%
X13234573Y44137790D03*
D50*
%TO.P,S3,2*%
X-1624962Y38722087D03*
%TD*%
D66*
%TO.N,P4*%
X109200000Y36700000D03*
%TO.N,P5*%
X109325500Y30300000D03*
%TO.N,RST*%
X132000000Y11600000D03*
%TD*%
D67*
%TO.N,P2*%
X130113808Y39106935D02*
X122680817Y39106935D01*
X131250000Y37970743D02*
X130113808Y39106935D01*
X127923334Y18786938D02*
X131250000Y22113604D01*
X122680817Y39106935D02*
X121265817Y40521935D01*
X119832817Y18786938D02*
X127923334Y18786938D01*
X131250000Y22113604D02*
X131250000Y37970743D01*
X118207817Y20411938D02*
X119832817Y18786938D01*
%TO.N,P4*%
X97329757Y39500000D02*
X106400000Y39500000D01*
X106400000Y39500000D02*
X109200000Y36700000D01*
X96017818Y40811939D02*
X97329757Y39500000D01*
%TO.N,P5*%
X97329755Y22500000D02*
X96017819Y23811936D01*
X105646940Y22628920D02*
X105518020Y22500000D01*
X105518020Y22500000D02*
X97329755Y22500000D01*
X108810544Y22628920D02*
X105646940Y22628920D01*
X109600000Y30025500D02*
X109600000Y23418376D01*
X109325500Y30300000D02*
X109600000Y30025500D01*
X109600000Y23418376D02*
X108810544Y22628920D01*
%TO.N,P21*%
X20669389Y10658375D02*
X16197871Y10267168D01*
X22672367Y13045432D02*
X20669389Y10658375D01*
X31241289Y13795118D02*
X22672367Y13045432D01*
X38275753Y22178466D02*
X31241289Y13795118D01*
X38619112Y22521825D02*
X38275753Y22178466D01*
X52748963Y22521825D02*
X38619112Y22521825D01*
X56606057Y26378920D02*
X52748963Y22521825D01*
X71367514Y26378920D02*
X56606057Y26378920D01*
X74317512Y23428919D02*
X71367514Y26378920D01*
X89638038Y23428921D02*
X74317512Y23428919D01*
X91016959Y22050000D02*
X89638038Y23428921D01*
X105704416Y22050000D02*
X91016959Y22050000D01*
X108996940Y22178920D02*
X105833336Y22178920D01*
X110050000Y23231980D02*
X108996940Y22178920D01*
X110050000Y38081029D02*
X110050000Y23231980D01*
X121439931Y41871825D02*
X113840793Y41871822D01*
X113840793Y41871822D02*
X110050000Y38081029D01*
X122789818Y40521938D02*
X121439931Y41871825D01*
X105833336Y22178920D02*
X105704416Y22050000D01*
%TO.N,P20*%
X33756924Y16093060D02*
X33981208Y13529505D01*
X38595165Y21859051D02*
X33756924Y16093060D01*
X52935357Y22071824D02*
X38807938Y22071824D01*
X56792453Y25928919D02*
X52935357Y22071824D01*
X71181116Y25928919D02*
X56792453Y25928919D01*
X74131114Y22978921D02*
X71181116Y25928919D01*
X89451641Y22978921D02*
X74131114Y22978921D01*
X90830563Y21600000D02*
X89451641Y22978921D01*
X110500000Y23045584D02*
X109183336Y21728920D01*
X110500000Y36389431D02*
X110500000Y23045584D01*
X113304507Y39193938D02*
X110500000Y36389431D01*
X109183336Y21728920D02*
X106019732Y21728920D01*
X105890812Y21600000D02*
X90830563Y21600000D01*
X122789815Y37981938D02*
X121577816Y39193938D01*
X121577816Y39193938D02*
X113304507Y39193938D01*
X106019732Y21728920D02*
X105890812Y21600000D01*
X38807938Y22071824D02*
X38595165Y21859051D01*
%TO.N,P19*%
X121577818Y36653937D02*
X122789817Y35441936D01*
X113053869Y36653939D02*
X121577818Y36653937D01*
X110950000Y34550070D02*
X113053869Y36653939D01*
X110950000Y22859188D02*
X110950000Y34550070D01*
X109369732Y21278920D02*
X110950000Y22859188D01*
X106206128Y21278920D02*
X109369732Y21278920D01*
X106077208Y21150000D02*
X106206128Y21278920D01*
X90644167Y21150000D02*
X106077208Y21150000D01*
X89265245Y22528920D02*
X90644167Y21150000D01*
X70994720Y25478920D02*
X71452818Y25020822D01*
X71452818Y25004951D02*
X73928850Y22528919D01*
X52861870Y21361941D02*
X56978848Y25478921D01*
X56978848Y25478921D02*
X70994720Y25478920D01*
X52827817Y21361939D02*
X52861870Y21361941D01*
X71452818Y25020822D02*
X71452818Y25004951D01*
X73928850Y22528919D02*
X89265245Y22528920D01*
%TO.N,P18*%
X113378850Y34278919D02*
X121412834Y34278919D01*
X111400000Y32300069D02*
X113378850Y34278919D01*
X111400000Y22672792D02*
X111400000Y32300069D01*
X109556128Y20828920D02*
X111400000Y22672792D01*
X89078849Y22078920D02*
X90457771Y20700000D01*
X73578847Y22078918D02*
X89078849Y22078920D01*
X90457771Y20700000D02*
X106263604Y20700000D01*
X106392524Y20828920D02*
X109556128Y20828920D01*
X121412834Y34278919D02*
X122789816Y32901936D01*
X70895833Y24761937D02*
X73578847Y22078918D01*
X70827818Y24761940D02*
X70895833Y24761937D01*
X106263604Y20700000D02*
X106392524Y20828920D01*
%TO.N,P15*%
X121577817Y31573937D02*
X122789817Y30361937D01*
X114028825Y31573935D02*
X121577817Y31573937D01*
X111850000Y22486396D02*
X111850000Y29395110D01*
X111850000Y29395110D02*
X114028825Y31573935D01*
X109742524Y20378920D02*
X111850000Y22486396D01*
X106578920Y20378920D02*
X109742524Y20378920D01*
X106450000Y20250000D02*
X106578920Y20378920D01*
X88827821Y21361939D02*
X89939760Y20250000D01*
X89939760Y20250000D02*
X106450000Y20250000D01*
%TO.N,P14*%
X121577816Y29033937D02*
X122789818Y27821934D01*
X114028826Y29033937D02*
X121577816Y29033937D01*
X109661936Y19661936D02*
X112300000Y22300000D01*
X112300000Y22300000D02*
X112300000Y27305111D01*
X112300000Y27305111D02*
X114028826Y29033937D01*
X106827819Y19661936D02*
X109661936Y19661936D01*
%TO.N,P7*%
X120140817Y26696935D02*
X121265818Y27821938D01*
X114196935Y26696935D02*
X120140817Y26696935D01*
X112750000Y25250000D02*
X114196935Y26696935D01*
X112750000Y22140812D02*
X112750000Y25250000D01*
X118700000Y16190812D02*
X112750000Y22140812D01*
X118700000Y14796825D02*
X118700000Y16190812D01*
X118682394Y7954002D02*
X118682394Y14779219D01*
X133256767Y-6620371D02*
X118682394Y7954002D01*
X118682394Y14779219D02*
X118700000Y14796825D01*
X133256767Y-8411706D02*
X133256767Y-6620371D01*
X125598702Y-24113068D02*
X133256767Y-8411706D01*
X123499416Y-24835910D02*
X125598702Y-24113068D01*
%TO.N,P8*%
X120045191Y24061309D02*
X121265817Y25281935D01*
X114061309Y24061309D02*
X120045191Y24061309D01*
X113200000Y23200000D02*
X114061309Y24061309D01*
X113200000Y22327208D02*
X113200000Y23200000D01*
X120627208Y14900000D02*
X113200000Y22327208D01*
X122463604Y14900000D02*
X120627208Y14900000D01*
X123900000Y13463604D02*
X122463604Y14900000D01*
X123900000Y11500000D02*
X123900000Y13463604D01*
X124500000Y10900000D02*
X123900000Y11500000D01*
X125500000Y10900000D02*
X124500000Y10900000D01*
X126200000Y13474758D02*
X126200000Y11600000D01*
X126200000Y11600000D02*
X125500000Y10900000D01*
X125052819Y14621939D02*
X126200000Y13474758D01*
%TO.N,P9*%
X116550000Y19613604D02*
X116550000Y22090118D01*
X120813604Y15350000D02*
X116550000Y19613604D01*
X122650000Y15350000D02*
X120813604Y15350000D01*
X125052819Y12947181D02*
X122650000Y15350000D01*
X125052819Y12081939D02*
X125052819Y12947181D01*
X116550000Y22090118D02*
X117108619Y22648737D01*
X117108619Y22648737D02*
X116810817Y22648737D01*
%TO.N,P3*%
X122640570Y36607182D02*
X121265817Y37981935D01*
X130092818Y36607182D02*
X122640570Y36607182D01*
X130800000Y22300000D02*
X130800000Y35900000D01*
X130800000Y35900000D02*
X130092818Y36607182D01*
X121922817Y19236938D02*
X127736938Y19236938D01*
X127736938Y19236938D02*
X130800000Y22300000D01*
X120747817Y20411938D02*
X121922817Y19236938D01*
%TO.N,P10*%
X121847882Y21800000D02*
X122789817Y22741935D01*
X117000000Y20865822D02*
X117934178Y21800000D01*
X117934178Y21800000D02*
X121847882Y21800000D01*
X117000000Y19800000D02*
X117000000Y20865822D01*
X125065880Y15800000D02*
X121000000Y15800000D01*
X126277819Y17011939D02*
X125065880Y15800000D01*
X121000000Y15800000D02*
X117000000Y19800000D01*
%TO.N,RAW*%
X131761939Y6061939D02*
X131597821Y6061939D01*
X132300000Y6600000D02*
X131761939Y6061939D01*
X132300000Y7300000D02*
X132300000Y6600000D01*
X133400000Y9300000D02*
X133400000Y8400000D01*
X134502819Y14490059D02*
X134502819Y10402819D01*
X132600000Y16392878D02*
X134502819Y14490059D01*
X132600000Y46780743D02*
X132600000Y16392878D01*
X133400000Y8400000D02*
X132300000Y7300000D01*
X129823808Y49556935D02*
X132600000Y46780743D01*
X123914817Y49556935D02*
X129823808Y49556935D01*
X122789817Y50681935D02*
X123914817Y49556935D01*
X134502819Y10402819D02*
X133400000Y9300000D01*
%TO.N,pos*%
X130800000Y3300000D02*
X131038061Y3061939D01*
X131038061Y3061939D02*
X131597821Y3061939D01*
X130800000Y10150000D02*
X130800000Y3300000D01*
X131100000Y12734121D02*
X131102819Y12731302D01*
X131102819Y12731302D02*
X131102819Y10452819D01*
X131102819Y10452819D02*
X130800000Y10150000D01*
X132777817Y14411938D02*
X131100000Y12734121D01*
%TO.N,RST*%
X123914817Y44476935D02*
X122789817Y45601935D01*
X133602817Y14753665D02*
X132150000Y16206482D01*
X132150000Y42150743D02*
X129823808Y44476935D01*
X132600000Y12639757D02*
X133602817Y13642574D01*
X133602817Y13642574D02*
X133602817Y14753665D01*
X133727819Y11511938D02*
X132600000Y12639757D01*
X132150000Y16206482D02*
X132150000Y42150743D01*
X129823808Y44476935D02*
X123914817Y44476935D01*
X132088061Y11511939D02*
X133727820Y11511939D01*
X132000000Y11600000D02*
X132088061Y11511939D01*
%TO.N,enc_diode*%
X123250000Y599759D02*
X124037820Y-188061D01*
X123250000Y2750000D02*
X123250000Y599759D01*
X115628175Y10371825D02*
X123250000Y2750000D01*
X113607394Y10371825D02*
X115628175Y10371825D01*
%TO.N,RAW*%
X131597821Y6061939D02*
X131422821Y6236939D01*
%TO.N,GND*%
X122481817Y41845935D02*
X121265817Y43061935D01*
X131700000Y40060743D02*
X129914808Y41845935D01*
X131700000Y14834121D02*
X131700000Y40060743D01*
X129914808Y41845935D02*
X122481817Y41845935D01*
X131277817Y14411938D02*
X131700000Y14834121D01*
X130327819Y13461939D02*
X131277817Y14411938D01*
X127277508Y9541939D02*
X128107394Y10371825D01*
X125052819Y9541939D02*
X127277508Y9541939D01*
%TO.N,P6*%
X61368704Y10561054D02*
X60017819Y11911938D01*
X109768589Y2961052D02*
X109502139Y3227504D01*
X60017819Y11911938D02*
X54831603Y11911937D01*
X42017820Y8511937D02*
X40429832Y8511937D01*
X96017820Y6811941D02*
X95668705Y7161052D01*
X109493564Y3248207D02*
X107280717Y5461052D01*
X14712365Y-4124246D02*
X8019260Y-4709820D01*
X50093592Y7161051D02*
X43368707Y7161054D01*
X50915320Y7982781D02*
X50093592Y7161051D01*
X107280717Y5461052D02*
X97368702Y5461054D01*
X97368702Y5461054D02*
X96017819Y6811938D01*
X32528615Y-859033D02*
X40409149Y8532618D01*
X25802601Y-1447482D02*
X32528615Y-859033D01*
X75968704Y10561054D02*
X61368704Y10561054D01*
X43368707Y7161054D02*
X42017820Y8511940D01*
X50915321Y7995657D02*
X50915320Y7982781D01*
X24332295Y-213751D02*
X17491465Y-812245D01*
X79368703Y7161050D02*
X75968704Y10561054D01*
X95668705Y7161052D02*
X79368703Y7161050D01*
X40429832Y8511937D02*
X40409149Y8532618D01*
X8019260Y-4709820D02*
X6548953Y-3476085D01*
X17491465Y-812245D02*
X14712365Y-4124246D01*
X116417819Y-188063D02*
X113268706Y2961052D01*
X54831603Y11911937D02*
X50915321Y7995657D01*
X109502139Y3227504D02*
X109493564Y3248207D01*
X24332295Y-213751D02*
X25802601Y-1447482D01*
X113268706Y2961052D02*
X109768589Y2961052D01*
%TO.N,P5*%
X50915318Y24982777D02*
X50093591Y24161053D01*
X22850645Y16721558D02*
X24320953Y15487828D01*
X50915318Y24995654D02*
X50915318Y24982777D01*
X42984271Y24161055D02*
X42017817Y25127501D01*
X50093591Y24161053D02*
X42984271Y24161055D01*
X42017817Y25127501D02*
X42017819Y25511937D01*
X13224360Y12810504D02*
X6537613Y12225494D01*
X79368702Y24161053D02*
X75968704Y27561052D01*
X31146588Y16084990D02*
X38816332Y25225436D01*
X22850646Y16494674D02*
X22850645Y16721558D01*
X75968704Y27561052D02*
X61368703Y27561054D01*
X96017817Y23811939D02*
X95668705Y24161055D01*
X60017820Y28911938D02*
X54831602Y28911941D01*
X42017818Y25511936D02*
X39102830Y25511935D01*
X39102830Y25511935D02*
X38816332Y25225436D01*
X6537613Y12225494D02*
X5067308Y13459226D01*
X16003459Y16122506D02*
X13224360Y12810504D01*
X95668705Y24161055D02*
X79368702Y24161053D01*
X22850645Y16721558D02*
X16003459Y16122506D01*
X24320953Y15487828D02*
X31146588Y16084990D01*
X61368703Y27561054D02*
X60017820Y28911938D01*
X38816332Y25225436D02*
X38953208Y25388562D01*
X54831602Y28911941D02*
X50915318Y24995654D01*
%TO.N,P4*%
X61361608Y44568150D02*
X60017821Y45911938D01*
X50100687Y41168149D02*
X43361609Y41168147D01*
X50915319Y41982781D02*
X50100687Y41168149D01*
X37537696Y42511938D02*
X37533764Y42508006D01*
X79361609Y41168148D02*
X75961607Y44568148D01*
X29565320Y33011585D02*
X37533764Y42508006D01*
X14486795Y32997354D02*
X11759681Y29747301D01*
X50915318Y42006297D02*
X50915319Y41982781D01*
X96017819Y40811939D02*
X95661610Y41168150D01*
X22839307Y32423136D02*
X29565320Y33011585D01*
X54820964Y45911938D02*
X50915318Y42006297D01*
X60017821Y45911938D02*
X54820964Y45911938D01*
X5055963Y29160803D02*
X3585660Y30394538D01*
X21317018Y33594920D02*
X14486795Y32997354D01*
X21368997Y33656867D02*
X21317018Y33594920D01*
X43361609Y41168147D02*
X42017822Y42511939D01*
X95661610Y41168150D02*
X79361609Y41168148D01*
X21368997Y33656867D02*
X22839307Y32423136D01*
X11759681Y29747301D02*
X5055963Y29160803D01*
X42017822Y42511939D02*
X37537696Y42511938D01*
X75961607Y44568148D02*
X61361608Y44568150D01*
%TO.N,P7*%
X87980719Y-20438947D02*
X86827818Y-19286052D01*
X105777173Y-17379731D02*
X105775330Y-17377888D01*
X123499420Y-24835913D02*
X121227650Y-29493725D01*
X86827818Y-19286052D02*
X86827820Y-14098060D01*
X121227650Y-29493725D02*
X119970958Y-29926437D01*
X105253013Y-23520317D02*
X108196757Y-24183777D01*
X91567126Y-20412112D02*
X87980719Y-20438947D01*
X119970958Y-29926437D02*
X108196757Y-24183777D01*
X104578536Y-22440927D02*
X103499147Y-23115407D01*
X104611135Y-22420555D02*
X104578536Y-22440927D01*
X103499147Y-23115407D02*
X91567126Y-20412112D01*
X104578536Y-22440927D02*
X105253013Y-23520317D01*
X105775331Y-17377887D02*
X104611135Y-22420555D01*
%TO.N,GND*%
X130327819Y11511938D02*
X130327819Y13461939D01*
X130327819Y11511938D02*
X128887817Y11511938D01*
X128887817Y11511938D02*
X127647819Y10271936D01*
%TO.N,P8*%
X128107394Y5371825D02*
X127812221Y5666998D01*
%TO.N,P9*%
X128107394Y7871825D02*
X127609647Y8369572D01*
%TD*%
M02*
