%TF.GenerationSoftware,KiCad,Pcbnew,(6.0.6)*%
%TF.CreationDate,2022-07-17T13:15:28+02:00*%
%TF.ProjectId,main_wired,6d61696e-5f77-4697-9265-642e6b696361,v1.0.0*%
%TF.SameCoordinates,Original*%
%TF.FileFunction,Soldermask,Top*%
%TF.FilePolarity,Negative*%
%FSLAX46Y46*%
G04 Gerber Fmt 4.6, Leading zero omitted, Abs format (unit mm)*
G04 Created by KiCad (PCBNEW (6.0.6)) date 2022-07-17 13:15:28*
%MOMM*%
%LPD*%
G01*
G04 APERTURE LIST*
G04 Aperture macros list*
%AMRoundRect*
0 Rectangle with rounded corners*
0 $1 Rounding radius*
0 $2 $3 $4 $5 $6 $7 $8 $9 X,Y pos of 4 corners*
0 Add a 4 corners polygon primitive as box body*
4,1,4,$2,$3,$4,$5,$6,$7,$8,$9,$2,$3,0*
0 Add four circle primitives for the rounded corners*
1,1,$1+$1,$2,$3*
1,1,$1+$1,$4,$5*
1,1,$1+$1,$6,$7*
1,1,$1+$1,$8,$9*
0 Add four rect primitives between the rounded corners*
20,1,$1+$1,$2,$3,$4,$5,0*
20,1,$1+$1,$4,$5,$6,$7,0*
20,1,$1+$1,$6,$7,$8,$9,0*
20,1,$1+$1,$8,$9,$2,$3,0*%
G04 Aperture macros list end*
%ADD10C,1.100000*%
%ADD11C,3.100000*%
%ADD12C,1.801800*%
%ADD13C,3.529000*%
%ADD14RoundRect,0.050000X-0.850000X-0.850000X0.850000X-0.850000X0.850000X0.850000X-0.850000X0.850000X0*%
%ADD15O,1.800000X1.800000*%
%ADD16RoundRect,0.050000X-0.600000X0.450000X-0.600000X-0.450000X0.600000X-0.450000X0.600000X0.450000X0*%
%ADD17C,2.005000*%
%ADD18RoundRect,0.050000X-0.889000X0.889000X-0.889000X-0.889000X0.889000X-0.889000X0.889000X0.889000X0*%
%ADD19C,1.000000*%
%ADD20RoundRect,0.050000X-0.500000X-0.400000X0.500000X-0.400000X0.500000X0.400000X-0.500000X0.400000X0*%
%ADD21RoundRect,0.050000X-0.350000X-0.750000X0.350000X-0.750000X0.350000X0.750000X-0.350000X0.750000X0*%
%ADD22C,1.600000*%
%ADD23O,1.700000X2.300000*%
%ADD24RoundRect,0.050000X0.600000X-0.450000X0.600000X0.450000X-0.600000X0.450000X-0.600000X-0.450000X0*%
%ADD25RoundRect,0.050000X0.889000X-0.889000X0.889000X0.889000X-0.889000X0.889000X-0.889000X-0.889000X0*%
%ADD26C,1.700000*%
%ADD27RoundRect,0.050000X-0.450000X-0.600000X0.450000X-0.600000X0.450000X0.600000X-0.450000X0.600000X0*%
%ADD28RoundRect,0.050000X-0.889000X-0.889000X0.889000X-0.889000X0.889000X0.889000X-0.889000X0.889000X0*%
%ADD29RoundRect,0.050000X-1.000000X1.600000X-1.000000X-1.600000X1.000000X-1.600000X1.000000X1.600000X0*%
%ADD30RoundRect,0.050000X-1.000000X1.000000X-1.000000X-1.000000X1.000000X-1.000000X1.000000X1.000000X0*%
%ADD31C,2.100000*%
%ADD32RoundRect,0.050000X-0.500581X-0.558497X0.395994X-0.636937X0.500581X0.558497X-0.395994X0.636937X0*%
%ADD33RoundRect,0.050000X-0.963099X-0.808136X0.808136X-0.963099X0.963099X0.808136X-0.808136X0.963099X0*%
%ADD34RoundRect,0.050000X-0.685850X0.303496X-0.483394X-0.573437X0.685850X-0.303496X0.483394X0.573437X0*%
%ADD35RoundRect,0.050000X-1.066196X0.666234X-0.666234X-1.066196X1.066196X-0.666234X0.666234X1.066196X0*%
%ADD36RoundRect,0.050000X-0.395994X-0.636937X0.500581X-0.558497X0.395994X0.636937X-0.500581X0.558497X0*%
%ADD37RoundRect,0.050000X-0.808136X-0.963099X0.963099X-0.808136X0.808136X0.963099X-0.963099X0.808136X0*%
%ADD38RoundRect,0.050000X0.342009X-0.667480X0.736543X0.141435X-0.342009X0.667480X-0.736543X-0.141435X0*%
%ADD39RoundRect,0.050000X0.409316X-1.188740X1.188740X0.409316X-0.409316X1.188740X-1.188740X-0.409316X0*%
%ADD40RoundRect,0.050000X-0.450000X-0.850000X0.450000X-0.850000X0.450000X0.850000X-0.450000X0.850000X0*%
%ADD41RoundRect,0.050000X-0.876300X0.876300X-0.876300X-0.876300X0.876300X-0.876300X0.876300X0.876300X0*%
%ADD42C,1.852600*%
%ADD43RoundRect,0.050000X0.483394X-0.573437X0.685850X0.303496X-0.483394X0.573437X-0.685850X-0.303496X0*%
%ADD44RoundRect,0.050000X0.666234X-1.066196X1.066196X0.666234X-0.666234X1.066196X-1.066196X-0.666234X0*%
%ADD45RoundRect,0.050000X-0.736543X0.141435X-0.342009X-0.667480X0.736543X-0.141435X0.342009X0.667480X0*%
%ADD46RoundRect,0.050000X-1.188740X0.409316X-0.409316X-1.188740X1.188740X-0.409316X0.409316X1.188740X0*%
G04 APERTURE END LIST*
%TO.C,REF\u002A\u002A*%
G36*
X123773592Y-91678533D02*
G01*
X123794607Y-91540534D01*
X123833305Y-91408437D01*
X123834777Y-91404481D01*
X123891459Y-91279981D01*
X123964581Y-91163996D01*
X124052707Y-91058192D01*
X124154403Y-90964228D01*
X124268238Y-90883769D01*
X124299883Y-90865132D01*
X124396069Y-90816028D01*
X124492767Y-90778112D01*
X124594285Y-90750213D01*
X124704936Y-90731164D01*
X124829033Y-90719792D01*
X124837384Y-90719306D01*
X124909431Y-90715903D01*
X124971019Y-90714894D01*
X125026736Y-90716760D01*
X125081165Y-90721983D01*
X125138894Y-90731047D01*
X125204506Y-90744431D01*
X125282590Y-90762620D01*
X125307647Y-90768721D01*
X125368261Y-90783328D01*
X125414542Y-90793610D01*
X125450669Y-90800116D01*
X125480818Y-90803393D01*
X125509169Y-90803990D01*
X125539900Y-90802453D01*
X125555470Y-90801225D01*
X125602000Y-90796317D01*
X125637679Y-90789249D01*
X125670796Y-90777743D01*
X125709641Y-90759524D01*
X125712482Y-90758094D01*
X125751786Y-90736796D01*
X125792020Y-90711854D01*
X125833926Y-90682495D01*
X125878241Y-90647948D01*
X125925709Y-90607440D01*
X125977066Y-90560199D01*
X126033055Y-90505451D01*
X126094416Y-90442426D01*
X126161889Y-90370350D01*
X126236212Y-90288452D01*
X126318129Y-90195957D01*
X126408377Y-90092097D01*
X126507699Y-89976096D01*
X126616833Y-89847183D01*
X126736520Y-89704584D01*
X126833342Y-89588567D01*
X126949862Y-89448472D01*
X127054584Y-89322050D01*
X127148124Y-89208409D01*
X127231097Y-89106652D01*
X127304118Y-89015885D01*
X127367804Y-88935215D01*
X127422770Y-88863744D01*
X127469631Y-88800580D01*
X127509005Y-88744826D01*
X127541505Y-88695588D01*
X127567749Y-88651971D01*
X127588351Y-88613081D01*
X127603927Y-88578022D01*
X127615093Y-88545901D01*
X127622465Y-88515821D01*
X127626658Y-88486888D01*
X127628287Y-88458208D01*
X127628205Y-88445942D01*
X127628121Y-88433444D01*
X127621436Y-88361558D01*
X127605267Y-88273951D01*
X127589669Y-88211137D01*
X130312041Y-88211137D01*
X130315406Y-88244270D01*
X130333427Y-88286282D01*
X130366442Y-88338072D01*
X130392629Y-88372991D01*
X130418414Y-88408478D01*
X130442529Y-88445932D01*
X130458105Y-88474051D01*
X130482341Y-88537857D01*
X130500944Y-88614578D01*
X130513259Y-88698648D01*
X130518626Y-88784498D01*
X130516387Y-88866559D01*
X130510374Y-88916224D01*
X130502460Y-88950023D01*
X130488874Y-88994836D01*
X130471701Y-89044183D01*
X130457448Y-89080932D01*
X130433493Y-89143170D01*
X130418684Y-89191445D01*
X130412704Y-89228437D01*
X130415235Y-89256821D01*
X130425963Y-89279275D01*
X130432964Y-89287717D01*
X130452754Y-89305529D01*
X130469661Y-89309295D01*
X130489899Y-89298989D01*
X130504549Y-89287443D01*
X130543760Y-89245603D01*
X130581531Y-89187939D01*
X130616483Y-89117767D01*
X130647236Y-89038403D01*
X130672410Y-88953164D01*
X130690623Y-88865366D01*
X130695998Y-88827425D01*
X130700648Y-88742126D01*
X130692889Y-88659374D01*
X130671884Y-88575984D01*
X130636792Y-88488773D01*
X130586774Y-88394558D01*
X130577884Y-88379543D01*
X130545829Y-88328151D01*
X130517952Y-88289036D01*
X130490224Y-88257183D01*
X130458619Y-88227576D01*
X130449965Y-88220210D01*
X130408459Y-88188394D01*
X130376203Y-88171236D01*
X130350912Y-88168117D01*
X130330298Y-88178422D01*
X130323002Y-88185983D01*
X130312041Y-88211137D01*
X127589669Y-88211137D01*
X127579806Y-88171415D01*
X127545248Y-88054741D01*
X127509350Y-87946452D01*
X127468252Y-87819004D01*
X127437841Y-87704212D01*
X127417719Y-87599132D01*
X127407490Y-87500815D01*
X127406757Y-87406313D01*
X127415123Y-87312677D01*
X127419782Y-87281650D01*
X127449036Y-87159713D01*
X127495604Y-87038952D01*
X127557702Y-86921815D01*
X127633546Y-86810749D01*
X127721351Y-86708197D01*
X127819333Y-86616608D01*
X127925708Y-86538429D01*
X127989290Y-86500869D01*
X128055128Y-86467030D01*
X128114647Y-86440854D01*
X128172678Y-86421001D01*
X128234046Y-86406132D01*
X128303581Y-86394907D01*
X128386109Y-86385987D01*
X128411363Y-86383791D01*
X128476421Y-86378589D01*
X128526704Y-86375360D01*
X128566477Y-86374140D01*
X128600009Y-86374962D01*
X128631565Y-86377859D01*
X128665413Y-86382865D01*
X128683211Y-86385937D01*
X128820815Y-86419770D01*
X128951363Y-86470608D01*
X129073488Y-86537219D01*
X129185815Y-86618373D01*
X129286974Y-86712840D01*
X129375595Y-86819391D01*
X129450305Y-86936793D01*
X129509732Y-87063819D01*
X129540747Y-87155178D01*
X129549972Y-87193145D01*
X129560245Y-87245852D01*
X129570827Y-87308981D01*
X129580973Y-87378213D01*
X129586949Y-87424154D01*
X129597284Y-87503918D01*
X129607539Y-87566542D01*
X129619505Y-87613931D01*
X129634973Y-87647997D01*
X129655736Y-87670643D01*
X129683583Y-87683782D01*
X129720307Y-87689320D01*
X129767699Y-87689164D01*
X129827550Y-87685222D01*
X129831750Y-87684894D01*
X129981229Y-87677158D01*
X130116093Y-87678944D01*
X130238521Y-87690595D01*
X130350694Y-87712456D01*
X130454794Y-87744869D01*
X130552999Y-87788181D01*
X130581318Y-87803175D01*
X130698345Y-87878243D01*
X130803853Y-87967776D01*
X130896896Y-88070285D01*
X130976532Y-88184278D01*
X131041817Y-88308267D01*
X131091807Y-88440761D01*
X131125556Y-88580272D01*
X131139212Y-88683552D01*
X131144804Y-88794827D01*
X131140541Y-88895359D01*
X131125991Y-88991061D01*
X131112868Y-89045946D01*
X131068428Y-89174982D01*
X131006891Y-89297577D01*
X130929687Y-89412099D01*
X130838247Y-89516913D01*
X130734000Y-89610388D01*
X130618377Y-89690889D01*
X130492808Y-89756784D01*
X130488722Y-89758598D01*
X130421176Y-89786109D01*
X130356287Y-89807066D01*
X130288487Y-89822782D01*
X130212213Y-89834571D01*
X130131037Y-89842967D01*
X130070458Y-89847757D01*
X130019044Y-89850412D01*
X129972350Y-89850661D01*
X129925930Y-89848239D01*
X129875340Y-89842875D01*
X129816135Y-89834303D01*
X129743870Y-89822253D01*
X129720571Y-89818199D01*
X129621340Y-89803167D01*
X129521037Y-89792265D01*
X129424708Y-89785847D01*
X129337396Y-89784263D01*
X129274139Y-89786975D01*
X129230470Y-89790922D01*
X129199209Y-89795721D01*
X129173671Y-89803523D01*
X129147167Y-89816479D01*
X129113012Y-89836742D01*
X129105946Y-89841078D01*
X129075013Y-89861444D01*
X129042723Y-89885680D01*
X129007871Y-89915010D01*
X128969252Y-89950660D01*
X128925661Y-89993859D01*
X128875893Y-90045829D01*
X128818744Y-90107799D01*
X128753009Y-90180994D01*
X128677482Y-90266639D01*
X128597374Y-90358567D01*
X128461569Y-90516070D01*
X128326944Y-90674144D01*
X128194862Y-90831118D01*
X128066686Y-90985326D01*
X127943776Y-91135099D01*
X127827498Y-91278768D01*
X127719211Y-91414665D01*
X127620279Y-91541122D01*
X127532063Y-91656472D01*
X127475566Y-91732230D01*
X127413044Y-91818433D01*
X127362224Y-91892561D01*
X127322545Y-91957237D01*
X127293449Y-92015087D01*
X127274380Y-92068736D01*
X127264777Y-92120808D01*
X127264084Y-92173929D01*
X127271741Y-92230723D01*
X127287192Y-92293813D01*
X127309876Y-92365827D01*
X127329073Y-92421018D01*
X127365769Y-92526885D01*
X127395596Y-92619447D01*
X127419681Y-92702786D01*
X127439151Y-92780984D01*
X127455136Y-92858124D01*
X127464359Y-92910659D01*
X127483023Y-93065098D01*
X127486221Y-93208857D01*
X127473752Y-93342809D01*
X127445415Y-93467824D01*
X127401007Y-93584774D01*
X127340327Y-93694528D01*
X127263172Y-93797959D01*
X127257209Y-93804917D01*
X127156896Y-93906454D01*
X127044099Y-93993982D01*
X126920390Y-94066487D01*
X126787343Y-94122957D01*
X126740865Y-94138141D01*
X126695899Y-94149287D01*
X126637324Y-94160241D01*
X126570443Y-94170353D01*
X126500565Y-94178975D01*
X126432991Y-94185459D01*
X126373028Y-94189156D01*
X126325980Y-94189419D01*
X126322629Y-94189255D01*
X126227504Y-94180591D01*
X126142576Y-94164737D01*
X126059714Y-94140016D01*
X126029124Y-94128739D01*
X125913522Y-94074422D01*
X125802637Y-94003163D01*
X125698197Y-93916928D01*
X125601928Y-93817679D01*
X125515562Y-93707383D01*
X125440823Y-93588002D01*
X125379442Y-93461503D01*
X125336517Y-93341410D01*
X125325502Y-93296464D01*
X125315690Y-93238977D01*
X125306730Y-93166610D01*
X125299779Y-93094578D01*
X125293486Y-93026204D01*
X125287530Y-92974427D01*
X125280953Y-92936746D01*
X125272799Y-92910661D01*
X125262111Y-92893672D01*
X125247929Y-92883279D01*
X125229298Y-92876979D01*
X125215357Y-92874083D01*
X125188023Y-92871660D01*
X125149422Y-92871493D01*
X125107295Y-92873586D01*
X125101749Y-92874043D01*
X124931954Y-92882096D01*
X124773853Y-92875811D01*
X124627733Y-92855228D01*
X124493883Y-92820392D01*
X124372593Y-92771342D01*
X124363143Y-92766655D01*
X124240003Y-92694493D01*
X124129126Y-92608633D01*
X124031556Y-92510320D01*
X123948328Y-92400799D01*
X123880483Y-92281313D01*
X123829062Y-92153103D01*
X123817016Y-92113208D01*
X123784760Y-91966342D01*
X123778084Y-91899238D01*
X123770297Y-91820959D01*
X123771989Y-91747823D01*
X124373855Y-91747823D01*
X124376561Y-91846879D01*
X124390493Y-91945365D01*
X124414521Y-92040774D01*
X124447514Y-92130599D01*
X124488337Y-92212331D01*
X124535862Y-92283465D01*
X124588954Y-92341490D01*
X124646483Y-92383901D01*
X124665344Y-92393626D01*
X124693248Y-92406310D01*
X124713117Y-92414911D01*
X124719826Y-92417355D01*
X124728988Y-92412678D01*
X124747469Y-92401499D01*
X124749547Y-92400187D01*
X124767658Y-92385001D01*
X124775297Y-92371133D01*
X124775278Y-92370323D01*
X124767463Y-92343099D01*
X124748789Y-92304696D01*
X124721020Y-92258321D01*
X124685919Y-92207184D01*
X124684959Y-92205869D01*
X124624045Y-92112333D01*
X124580017Y-92020356D01*
X124551442Y-91925935D01*
X124536891Y-91825067D01*
X124534783Y-91785553D01*
X124535015Y-91715769D01*
X124541769Y-91657135D01*
X124556712Y-91602284D01*
X124581515Y-91543850D01*
X124596071Y-91514932D01*
X124628665Y-91444907D01*
X124648745Y-91384517D01*
X124656187Y-91334791D01*
X124650869Y-91296757D01*
X124632667Y-91271441D01*
X124625902Y-91267120D01*
X124610795Y-91260279D01*
X124597300Y-91259807D01*
X124579536Y-91266996D01*
X124551622Y-91283137D01*
X124550890Y-91283577D01*
X124500334Y-91324997D01*
X124457712Y-91383093D01*
X124423366Y-91456969D01*
X124397638Y-91545733D01*
X124380868Y-91648487D01*
X124373855Y-91747823D01*
X123771989Y-91747823D01*
X123773592Y-91678533D01*
G37*
%TD*%
D10*
%TO.C,*%
X210113557Y-61956210D03*
X208613557Y-61956210D03*
%TD*%
D11*
%TO.C,S26*%
X330688814Y-65433601D03*
D12*
X330860077Y-69212909D03*
X319901935Y-68254195D03*
D13*
X325381006Y-68733552D03*
D11*
X325899583Y-62806194D03*
%TD*%
D13*
%TO.C,S42*%
X230915733Y-109987800D03*
D11*
X236478066Y-112837878D03*
D12*
X233326774Y-114931167D03*
X228504692Y-105044433D03*
D11*
X236263558Y-107379492D03*
%TD*%
D14*
%TO.C,REF\u002A\u002A*%
X299763557Y-106056210D03*
D15*
X299763557Y-103516210D03*
X299763557Y-100976210D03*
X299763557Y-98436210D03*
X299763557Y-95896210D03*
%TD*%
D16*
%TO.C,D40*%
X264763557Y-99406210D03*
D17*
X264763557Y-104866210D03*
D18*
X264763557Y-97246210D03*
D16*
X264763557Y-102706210D03*
%TD*%
D13*
%TO.C,S28*%
X305763557Y-77256210D03*
D11*
X310763557Y-73506210D03*
D12*
X300263557Y-77256210D03*
D11*
X305763557Y-71306210D03*
D12*
X311263557Y-77256210D03*
%TD*%
D19*
%TO.C,*%
X216433557Y-56456210D03*
D20*
X217543557Y-58606210D03*
D19*
X216433557Y-53456210D03*
X216433557Y-56456210D03*
D20*
X215333557Y-58606210D03*
X215333557Y-51306210D03*
D19*
X216433557Y-53456210D03*
D20*
X217543557Y-51306210D03*
D21*
X218193557Y-52706210D03*
X218193557Y-55706210D03*
X218193557Y-57206210D03*
%TD*%
D12*
%TO.C,S22*%
X336203627Y-88451840D03*
D11*
X346990506Y-85631246D03*
D13*
X341682698Y-88931197D03*
D12*
X347161769Y-89410554D03*
D11*
X342201275Y-83003839D03*
%TD*%
D22*
%TO.C,REF\u002A\u002A*%
X209063557Y-39056210D03*
X209063557Y-46056210D03*
D23*
X211363557Y-48756210D03*
X206763557Y-48756210D03*
X206763557Y-47656210D03*
X211363557Y-47656210D03*
X206763557Y-43656210D03*
X211363557Y-43656210D03*
X211363557Y-40656210D03*
X206763557Y-40656210D03*
%TD*%
D13*
%TO.C,S8*%
X122363557Y-60256210D03*
D11*
X122363557Y-54306210D03*
X127363557Y-56506210D03*
D12*
X127863557Y-60256210D03*
X116863557Y-60256210D03*
%TD*%
D17*
%TO.C,D19*%
X163363557Y-97246210D03*
D24*
X163363557Y-102706210D03*
D25*
X163363557Y-104866210D03*
D24*
X163363557Y-99406210D03*
%TD*%
D22*
%TO.C,REF\u002A\u002A*%
X227038557Y-86256210D03*
D26*
X227038557Y-76146210D03*
X227038557Y-78686210D03*
X227038557Y-81226210D03*
X227038557Y-83766210D03*
X225813557Y-73756210D03*
X227663557Y-73756210D03*
%TD*%
D13*
%TO.C,S11*%
X140363557Y-56856210D03*
D11*
X145363557Y-53106210D03*
D12*
X134863557Y-56856210D03*
X145863557Y-56856210D03*
D11*
X140363557Y-50906210D03*
%TD*%
D27*
%TO.C,D32*%
X286113557Y-61856210D03*
D17*
X291573557Y-61856210D03*
D27*
X289413557Y-61856210D03*
D28*
X283953557Y-61856210D03*
%TD*%
D17*
%TO.C,D13*%
X162173557Y-82256210D03*
D27*
X156713557Y-82256210D03*
D28*
X154553557Y-82256210D03*
D27*
X160013557Y-82256210D03*
%TD*%
D17*
%TO.C,D29*%
X309573557Y-65256210D03*
D27*
X304113557Y-65256210D03*
X307413557Y-65256210D03*
D28*
X301953557Y-65256210D03*
%TD*%
D29*
%TO.C,ROT2*%
X284203557Y-100936210D03*
X295403557Y-100936210D03*
D22*
X292303557Y-107936210D03*
X287303557Y-107936210D03*
D30*
X292303557Y-93436210D03*
D31*
X287303557Y-93436210D03*
X289803557Y-93436210D03*
%TD*%
D14*
%TO.C,OLED2*%
X232473557Y-71306210D03*
D15*
X229933557Y-71306210D03*
X227393557Y-71306210D03*
X224853557Y-71306210D03*
%TD*%
D32*
%TO.C,D22*%
X339603198Y-93768363D03*
D17*
X345042421Y-94244233D03*
D33*
X337451417Y-93580107D03*
D32*
X342890640Y-94055977D03*
%TD*%
D34*
%TO.C,D41*%
X244587813Y-102825974D03*
D17*
X245816046Y-108146035D03*
D34*
X245330151Y-106041396D03*
D35*
X244101918Y-100721335D03*
%TD*%
D27*
%TO.C,D36*%
X268113557Y-48256210D03*
D17*
X273573557Y-48256210D03*
D28*
X265953557Y-48256210D03*
D27*
X271413557Y-48256210D03*
%TD*%
D14*
%TO.C,OLED1*%
X203273557Y-71306210D03*
D15*
X200733557Y-71306210D03*
X198193557Y-71306210D03*
X195653557Y-71306210D03*
%TD*%
D11*
%TO.C,S5*%
X102227531Y-62806194D03*
X107400247Y-64562043D03*
D12*
X108225179Y-68254195D03*
X97267037Y-69212909D03*
D13*
X102746108Y-68733552D03*
%TD*%
D10*
%TO.C,*%
X218013557Y-61956210D03*
X219513557Y-61956210D03*
%TD*%
D27*
%TO.C,D37*%
X250113557Y-83956210D03*
D17*
X255573557Y-83956210D03*
D27*
X253413557Y-83956210D03*
D28*
X247953557Y-83956210D03*
%TD*%
D27*
%TO.C,D38*%
X250113557Y-66956210D03*
D17*
X255573557Y-66956210D03*
D27*
X253413557Y-66956210D03*
D28*
X247953557Y-66956210D03*
%TD*%
D17*
%TO.C,D24*%
X348005716Y-60373613D03*
D32*
X342566493Y-59897743D03*
D33*
X340414712Y-59709487D03*
D32*
X345853935Y-60185357D03*
%TD*%
D27*
%TO.C,D34*%
X268113557Y-82256210D03*
D17*
X273573557Y-82256210D03*
D27*
X271413557Y-82256210D03*
D28*
X265953557Y-82256210D03*
%TD*%
D11*
%TO.C,S9*%
X127363557Y-39506210D03*
D12*
X127863557Y-43256210D03*
X116863557Y-43256210D03*
D11*
X122363557Y-37306210D03*
D13*
X122363557Y-43256210D03*
%TD*%
D27*
%TO.C,D28*%
X304113557Y-82256210D03*
D17*
X309573557Y-82256210D03*
D27*
X307413557Y-82256210D03*
D28*
X301953557Y-82256210D03*
%TD*%
D32*
%TO.C,D25*%
X321819858Y-90506029D03*
D17*
X327259081Y-90981899D03*
D33*
X319668077Y-90317773D03*
D32*
X325107300Y-90793643D03*
%TD*%
D11*
%TO.C,S39*%
X251763557Y-39006210D03*
D12*
X246263557Y-44956210D03*
D13*
X251763557Y-44956210D03*
D11*
X256763557Y-41206210D03*
D12*
X257263557Y-44956210D03*
%TD*%
D17*
%TO.C,D14*%
X162173557Y-65256210D03*
D27*
X156713557Y-65256210D03*
D28*
X154553557Y-65256210D03*
D27*
X160013557Y-65256210D03*
%TD*%
D17*
%TO.C,D16*%
X180173557Y-83956210D03*
D27*
X174713557Y-83956210D03*
D28*
X172553557Y-83956210D03*
D27*
X178013557Y-83956210D03*
%TD*%
D12*
%TO.C,S21*%
X199622421Y-105044433D03*
X194800339Y-114931167D03*
D11*
X196032758Y-103849938D03*
D13*
X197211380Y-109987800D03*
D11*
X191863555Y-107379492D03*
%TD*%
D22*
%TO.C,REF\u002A\u002A*%
X219013557Y-39056210D03*
X219013557Y-46056210D03*
D23*
X221313557Y-48756210D03*
X216713557Y-48756210D03*
X221313557Y-47656210D03*
X216713557Y-47656210D03*
X216713557Y-43656210D03*
X221313557Y-43656210D03*
X221313557Y-40656210D03*
X216713557Y-40656210D03*
%TD*%
D13*
%TO.C,S10*%
X140363557Y-73856210D03*
D11*
X145363557Y-70106210D03*
X140363557Y-67906210D03*
D12*
X145863557Y-73856210D03*
X134863557Y-73856210D03*
%TD*%
D17*
%TO.C,D46*%
X281763557Y-104866210D03*
D16*
X281763557Y-99406210D03*
X281763557Y-102706210D03*
D18*
X281763557Y-97246210D03*
%TD*%
D12*
%TO.C,S38*%
X257263557Y-61956210D03*
D13*
X251763557Y-61956210D03*
D12*
X246263557Y-61956210D03*
D11*
X256763557Y-58206210D03*
X251763557Y-56006210D03*
%TD*%
D17*
%TO.C,D44*%
X232473557Y-88956210D03*
D27*
X227013557Y-88956210D03*
D28*
X224853557Y-88956210D03*
D27*
X230313557Y-88956210D03*
%TD*%
D11*
%TO.C,S33*%
X287763557Y-33906210D03*
D12*
X293263557Y-39856210D03*
D11*
X292763557Y-36106210D03*
D12*
X282263557Y-39856210D03*
D13*
X287763557Y-39856210D03*
%TD*%
D17*
%TO.C,D2*%
X89194049Y-76644797D03*
D36*
X83754826Y-77120667D03*
X87042268Y-76833053D03*
D37*
X81603045Y-77308923D03*
%TD*%
D12*
%TO.C,S1*%
X80965345Y-89410554D03*
D13*
X86444416Y-88931197D03*
D11*
X91098555Y-84759688D03*
D12*
X91923487Y-88451840D03*
D11*
X85925839Y-83003839D03*
%TD*%
D29*
%TO.C,ROT1*%
X205103557Y-82336210D03*
X193903557Y-82336210D03*
D22*
X202003557Y-89336210D03*
X197003557Y-89336210D03*
D30*
X202003557Y-74836210D03*
D31*
X197003557Y-74836210D03*
X199503557Y-74836210D03*
%TD*%
D17*
%TO.C,D11*%
X144173557Y-61856210D03*
D27*
X138713557Y-61856210D03*
D28*
X136553557Y-61856210D03*
D27*
X142013557Y-61856210D03*
%TD*%
D36*
%TO.C,D1*%
X85236473Y-94055977D03*
D17*
X90675696Y-93580107D03*
D36*
X88523915Y-93768363D03*
D37*
X83084692Y-94244233D03*
%TD*%
D17*
%TO.C,D21*%
X203375544Y-108755250D03*
D38*
X200982038Y-113662665D03*
D39*
X200035156Y-115604060D03*
D38*
X202428662Y-110696645D03*
%TD*%
D40*
%TO.C,*%
X219463557Y-74956210D03*
X216063557Y-74956210D03*
%TD*%
D12*
%TO.C,S12*%
X134863557Y-39856210D03*
D13*
X140363557Y-39856210D03*
D12*
X145863557Y-39856210D03*
D11*
X140363557Y-33906210D03*
X145363557Y-36106210D03*
%TD*%
D17*
%TO.C,D26*%
X328740729Y-74046589D03*
D32*
X323301506Y-73570719D03*
D33*
X321149725Y-73382463D03*
D32*
X326588948Y-73858333D03*
%TD*%
D13*
%TO.C,S20*%
X178296281Y-103308930D03*
D11*
X172498779Y-101970471D03*
D12*
X179533512Y-97949895D03*
X177059050Y-108667965D03*
D11*
X175767149Y-97593513D03*
%TD*%
D27*
%TO.C,D31*%
X286113557Y-78856210D03*
D17*
X291573557Y-78856210D03*
D28*
X283953557Y-78856210D03*
D27*
X289413557Y-78856210D03*
%TD*%
D11*
%TO.C,S25*%
X329207166Y-82368911D03*
X324417935Y-79741504D03*
D12*
X329378429Y-86148219D03*
X318420287Y-85189505D03*
D13*
X323899358Y-85668862D03*
%TD*%
D17*
%TO.C,D30*%
X309573557Y-48256210D03*
D27*
X304113557Y-48256210D03*
D28*
X301953557Y-48256210D03*
D27*
X307413557Y-48256210D03*
%TD*%
D13*
%TO.C,S36*%
X269763557Y-43256210D03*
D12*
X275263557Y-43256210D03*
D11*
X269763557Y-37306210D03*
D12*
X264263557Y-43256210D03*
D11*
X274763557Y-39506210D03*
%TD*%
D27*
%TO.C,D12*%
X138713557Y-44856210D03*
D17*
X144173557Y-44856210D03*
D28*
X136553557Y-44856210D03*
D27*
X142013557Y-44856210D03*
%TD*%
D17*
%TO.C,D15*%
X162173557Y-48256210D03*
D27*
X156713557Y-48256210D03*
X160013557Y-48256210D03*
D28*
X154553557Y-48256210D03*
%TD*%
D17*
%TO.C,D5*%
X106977388Y-73382463D03*
D36*
X101538165Y-73858333D03*
X104825607Y-73570719D03*
D37*
X99386384Y-74046589D03*
%TD*%
D27*
%TO.C,D17*%
X174713557Y-66956210D03*
D17*
X180173557Y-66956210D03*
D28*
X172553557Y-66956210D03*
D27*
X178013557Y-66956210D03*
%TD*%
D17*
%TO.C,D9*%
X126173557Y-48256210D03*
D27*
X120713557Y-48256210D03*
X124013557Y-48256210D03*
D28*
X118553557Y-48256210D03*
%TD*%
D11*
%TO.C,S6*%
X105918599Y-47626733D03*
D13*
X101264460Y-51798242D03*
D11*
X100745883Y-45870884D03*
D12*
X95785389Y-52277599D03*
X106743531Y-51318885D03*
%TD*%
D11*
%TO.C,S7*%
X127363557Y-73506210D03*
X122363557Y-71306210D03*
D12*
X116863557Y-77256210D03*
X127863557Y-77256210D03*
D13*
X122363557Y-77256210D03*
%TD*%
D19*
%TO.C,*%
X211693557Y-56456210D03*
D20*
X212793557Y-51306210D03*
D19*
X211693557Y-56456210D03*
D20*
X212793557Y-58606210D03*
D19*
X211693557Y-53456210D03*
D20*
X210583557Y-58606210D03*
D19*
X211693557Y-53456210D03*
D20*
X210583557Y-51306210D03*
D21*
X209933557Y-57206210D03*
X209933557Y-54206210D03*
X209933557Y-52706210D03*
%TD*%
D27*
%TO.C,D18*%
X174713557Y-49956210D03*
D17*
X180173557Y-49956210D03*
D27*
X178013557Y-49956210D03*
D28*
X172553557Y-49956210D03*
%TD*%
D11*
%TO.C,S41*%
X255628334Y-101970471D03*
D12*
X251068063Y-108667965D03*
D13*
X249830832Y-103308930D03*
D12*
X248593601Y-97949895D03*
D11*
X254609475Y-107337214D03*
%TD*%
D27*
%TO.C,D39*%
X250113557Y-49956210D03*
D17*
X255573557Y-49956210D03*
D27*
X253413557Y-49956210D03*
D28*
X247953557Y-49956210D03*
%TD*%
D11*
%TO.C,S19*%
X154613557Y-96056210D03*
D12*
X158363557Y-106556210D03*
D13*
X158363557Y-101056210D03*
D11*
X152413557Y-101056210D03*
D12*
X158363557Y-95556210D03*
%TD*%
D22*
%TO.C,REF\u002A\u002A*%
X132063557Y-97431210D03*
D26*
X142173557Y-97431210D03*
X139633557Y-97431210D03*
X137093557Y-97431210D03*
X134553557Y-97431210D03*
X144563557Y-96206210D03*
X144563557Y-98056210D03*
%TD*%
D17*
%TO.C,D7*%
X126173557Y-82256210D03*
D27*
X120713557Y-82256210D03*
X124013557Y-82256210D03*
D28*
X118553557Y-82256210D03*
%TD*%
D17*
%TO.C,D6*%
X105495741Y-56447153D03*
D36*
X100056518Y-56923023D03*
X103343960Y-56635409D03*
D37*
X97904737Y-57111279D03*
%TD*%
D13*
%TO.C,S37*%
X251763557Y-78956210D03*
D12*
X257263557Y-78956210D03*
D11*
X256763557Y-75206210D03*
X251763557Y-73006210D03*
D12*
X246263557Y-78956210D03*
%TD*%
D17*
%TO.C,D45*%
X147363557Y-97246210D03*
D24*
X147363557Y-102706210D03*
D25*
X147363557Y-104866210D03*
D24*
X147363557Y-99406210D03*
%TD*%
D11*
%TO.C,S40*%
X273513557Y-106056210D03*
D13*
X269763557Y-101056210D03*
D11*
X275713557Y-101056210D03*
D12*
X269763557Y-106556210D03*
X269763557Y-95556210D03*
%TD*%
%TO.C,S24*%
X350125064Y-55539934D03*
D11*
X349953801Y-51760626D03*
D12*
X339166922Y-54581220D03*
D13*
X344645993Y-55060577D03*
D11*
X345164570Y-49133219D03*
%TD*%
D12*
%TO.C,S31*%
X282263557Y-73856210D03*
D11*
X292763557Y-70106210D03*
D13*
X287763557Y-73856210D03*
D11*
X287763557Y-67906210D03*
D12*
X293263557Y-73856210D03*
%TD*%
D40*
%TO.C,*%
X212063557Y-74956210D03*
X208663557Y-74956210D03*
%TD*%
D17*
%TO.C,D10*%
X144173557Y-78856210D03*
D27*
X138713557Y-78856210D03*
X142013557Y-78856210D03*
D28*
X136553557Y-78856210D03*
%TD*%
D17*
%TO.C,D43*%
X203273557Y-91956210D03*
D27*
X197813557Y-91956210D03*
D28*
X195653557Y-91956210D03*
D27*
X201113557Y-91956210D03*
%TD*%
D12*
%TO.C,S4*%
X109706826Y-85189505D03*
D11*
X108881894Y-81497353D03*
D12*
X98748684Y-86148219D03*
D11*
X103709178Y-79741504D03*
D13*
X104227755Y-85668862D03*
%TD*%
D12*
%TO.C,S32*%
X282263557Y-56856210D03*
D11*
X292763557Y-53106210D03*
X287763557Y-50906210D03*
D12*
X293263557Y-56856210D03*
D13*
X287763557Y-56856210D03*
%TD*%
D32*
%TO.C,D27*%
X324783154Y-56635409D03*
D17*
X330222377Y-57111279D03*
D33*
X322631373Y-56447153D03*
D32*
X328070596Y-56923023D03*
%TD*%
D41*
%TO.C,MCU2*%
X224143557Y-40986210D03*
D42*
X224143557Y-43526210D03*
X224143557Y-46066210D03*
X224143557Y-48606210D03*
X224143557Y-51146210D03*
X224143557Y-53686210D03*
X224143557Y-56226210D03*
X224143557Y-58766210D03*
X224143557Y-61306210D03*
X224143557Y-63846210D03*
X224143557Y-66386210D03*
X224143557Y-68926210D03*
X239383557Y-40986210D03*
X239383557Y-43526210D03*
X239383557Y-46066210D03*
X239383557Y-48606210D03*
X239383557Y-51146210D03*
X239383557Y-53686210D03*
X239383557Y-56226210D03*
X239383557Y-58766210D03*
X239383557Y-61306210D03*
X239383557Y-63846210D03*
X239383557Y-66386210D03*
X239383557Y-68926210D03*
%TD*%
D12*
%TO.C,S13*%
X152863557Y-77256210D03*
X163863557Y-77256210D03*
D11*
X163363557Y-73506210D03*
X158363557Y-71306210D03*
D13*
X158363557Y-77256210D03*
%TD*%
D43*
%TO.C,D20*%
X182796963Y-106041396D03*
D17*
X184025196Y-100721335D03*
D44*
X182311068Y-108146035D03*
D43*
X183539301Y-102825974D03*
%TD*%
D36*
%TO.C,D3*%
X82273178Y-60185357D03*
D17*
X87712401Y-59709487D03*
D37*
X80121397Y-60373613D03*
D36*
X85560620Y-59897743D03*
%TD*%
D32*
%TO.C,D23*%
X341084846Y-76833053D03*
D17*
X346524069Y-77308923D03*
D33*
X338933065Y-76644797D03*
D32*
X344372288Y-77120667D03*
%TD*%
D12*
%TO.C,S30*%
X311263557Y-43256210D03*
D13*
X305763557Y-43256210D03*
D11*
X310763557Y-39506210D03*
D12*
X300263557Y-43256210D03*
D11*
X305763557Y-37306210D03*
%TD*%
D27*
%TO.C,D33*%
X286113557Y-44856210D03*
D17*
X291573557Y-44856210D03*
D27*
X289413557Y-44856210D03*
D28*
X283953557Y-44856210D03*
%TD*%
D13*
%TO.C,S3*%
X83481120Y-55060577D03*
D11*
X82962543Y-49133219D03*
D12*
X78002049Y-55539934D03*
D11*
X88135259Y-50889068D03*
D12*
X88960191Y-54581220D03*
%TD*%
D36*
%TO.C,D4*%
X103019813Y-90793643D03*
D17*
X108459036Y-90317773D03*
D36*
X106307255Y-90506029D03*
D37*
X100868032Y-90981899D03*
%TD*%
D12*
%TO.C,S2*%
X79483697Y-72475244D03*
D13*
X84962768Y-71995887D03*
D11*
X89616907Y-67824378D03*
D12*
X90441839Y-71516530D03*
D11*
X84444191Y-66068529D03*
%TD*%
D12*
%TO.C,S34*%
X275263557Y-77256210D03*
D11*
X269763557Y-71306210D03*
D12*
X264263557Y-77256210D03*
D11*
X274763557Y-73506210D03*
D13*
X269763557Y-77256210D03*
%TD*%
D11*
%TO.C,S35*%
X274763557Y-56506210D03*
D12*
X275263557Y-60256210D03*
X264263557Y-60256210D03*
D11*
X269763557Y-54306210D03*
D13*
X269763557Y-60256210D03*
%TD*%
D27*
%TO.C,D8*%
X120713557Y-65256210D03*
D17*
X126173557Y-65256210D03*
D28*
X118553557Y-65256210D03*
D27*
X124013557Y-65256210D03*
%TD*%
D13*
%TO.C,S16*%
X176363557Y-78956210D03*
D11*
X176363557Y-73006210D03*
X181363557Y-75206210D03*
D12*
X181863557Y-78956210D03*
X170863557Y-78956210D03*
%TD*%
D45*
%TO.C,D42*%
X225698451Y-110696645D03*
D17*
X228091957Y-115604060D03*
D45*
X227145075Y-113662665D03*
D46*
X224751569Y-108755250D03*
%TD*%
D13*
%TO.C,S17*%
X176363557Y-61956210D03*
D12*
X170863557Y-61956210D03*
D11*
X176363557Y-56006210D03*
X181363557Y-58206210D03*
D12*
X181863557Y-61956210D03*
%TD*%
D13*
%TO.C,S15*%
X158363557Y-43256210D03*
D11*
X163363557Y-39506210D03*
X158363557Y-37306210D03*
D12*
X163863557Y-43256210D03*
X152863557Y-43256210D03*
%TD*%
D11*
%TO.C,S23*%
X343682923Y-66068529D03*
D12*
X348643417Y-72475244D03*
D11*
X348472154Y-68695936D03*
D12*
X337685275Y-71516530D03*
D13*
X343164346Y-71995887D03*
%TD*%
D27*
%TO.C,D35*%
X268113557Y-65256210D03*
D17*
X273573557Y-65256210D03*
D28*
X265953557Y-65256210D03*
D27*
X271413557Y-65256210D03*
%TD*%
D12*
%TO.C,S27*%
X321383582Y-51318885D03*
D11*
X332170461Y-48498291D03*
X327381230Y-45870884D03*
D12*
X332341724Y-52277599D03*
D13*
X326862653Y-51798242D03*
%TD*%
D12*
%TO.C,S18*%
X170863557Y-44956210D03*
D11*
X181363557Y-41206210D03*
X176363557Y-39006210D03*
D13*
X176363557Y-44956210D03*
D12*
X181863557Y-44956210D03*
%TD*%
D13*
%TO.C,S29*%
X305763557Y-60256210D03*
D11*
X310763557Y-56506210D03*
D12*
X300263557Y-60256210D03*
D11*
X305763557Y-54306210D03*
D12*
X311263557Y-60256210D03*
%TD*%
D41*
%TO.C,MCU1*%
X188743557Y-40986210D03*
D42*
X188743557Y-43526210D03*
X188743557Y-46066210D03*
X188743557Y-48606210D03*
X188743557Y-51146210D03*
X188743557Y-53686210D03*
X188743557Y-56226210D03*
X188743557Y-58766210D03*
X188743557Y-61306210D03*
X188743557Y-63846210D03*
X188743557Y-66386210D03*
X188743557Y-68926210D03*
X203983557Y-40986210D03*
X203983557Y-43526210D03*
X203983557Y-46066210D03*
X203983557Y-48606210D03*
X203983557Y-51146210D03*
X203983557Y-53686210D03*
X203983557Y-56226210D03*
X203983557Y-58766210D03*
X203983557Y-61306210D03*
X203983557Y-63846210D03*
X203983557Y-66386210D03*
X203983557Y-68926210D03*
%TD*%
D11*
%TO.C,S14*%
X163363557Y-56506210D03*
D13*
X158363557Y-60256210D03*
D11*
X158363557Y-54306210D03*
D12*
X163863557Y-60256210D03*
X152863557Y-60256210D03*
%TD*%
M02*
