%TF.GenerationSoftware,KiCad,Pcbnew,(6.0.6)*%
%TF.CreationDate,2022-07-17T13:12:23+02:00*%
%TF.ProjectId,main_wired,6d61696e-5f77-4697-9265-642e6b696361,v1.0.0*%
%TF.SameCoordinates,Original*%
%TF.FileFunction,Paste,Top*%
%TF.FilePolarity,Positive*%
%FSLAX46Y46*%
G04 Gerber Fmt 4.6, Leading zero omitted, Abs format (unit mm)*
G04 Created by KiCad (PCBNEW (6.0.6)) date 2022-07-17 13:12:23*
%MOMM*%
%LPD*%
G01*
G04 APERTURE LIST*
G04 Aperture macros list*
%AMRotRect*
0 Rectangle, with rotation*
0 The origin of the aperture is its center*
0 $1 length*
0 $2 width*
0 $3 Rotation angle, in degrees counterclockwise*
0 Add horizontal line*
21,1,$1,$2,0,0,$3*%
G04 Aperture macros list end*
%ADD10R,1.200000X0.900000*%
%ADD11R,1.000000X0.800000*%
%ADD12R,0.700000X1.500000*%
%ADD13R,0.900000X1.200000*%
%ADD14RotRect,0.900000X1.200000X355.000000*%
%ADD15RotRect,0.900000X1.200000X283.000000*%
%ADD16RotRect,0.900000X1.200000X5.000000*%
%ADD17RotRect,0.900000X1.200000X64.000000*%
%ADD18R,0.900000X1.700000*%
%ADD19RotRect,0.900000X1.200000X77.000000*%
%ADD20RotRect,0.900000X1.200000X296.000000*%
G04 APERTURE END LIST*
D10*
%TO.C,D40*%
X264763557Y-99406210D03*
X264763557Y-102706210D03*
%TD*%
D11*
%TO.C,*%
X217543557Y-58606210D03*
X215333557Y-58606210D03*
X215333557Y-51306210D03*
X217543557Y-51306210D03*
D12*
X218193557Y-52706210D03*
X218193557Y-55706210D03*
X218193557Y-57206210D03*
%TD*%
D10*
%TO.C,D19*%
X163363557Y-102706210D03*
X163363557Y-99406210D03*
%TD*%
D13*
%TO.C,D32*%
X286113557Y-61856210D03*
X289413557Y-61856210D03*
%TD*%
%TO.C,D13*%
X156713557Y-82256210D03*
X160013557Y-82256210D03*
%TD*%
%TO.C,D29*%
X304113557Y-65256210D03*
X307413557Y-65256210D03*
%TD*%
D14*
%TO.C,D22*%
X339603198Y-93768363D03*
X342890640Y-94055977D03*
%TD*%
D15*
%TO.C,D41*%
X244587813Y-102825974D03*
X245330151Y-106041396D03*
%TD*%
D13*
%TO.C,D36*%
X268113557Y-48256210D03*
X271413557Y-48256210D03*
%TD*%
%TO.C,D37*%
X250113557Y-83956210D03*
X253413557Y-83956210D03*
%TD*%
%TO.C,D38*%
X250113557Y-66956210D03*
X253413557Y-66956210D03*
%TD*%
D14*
%TO.C,D24*%
X342566493Y-59897743D03*
X345853935Y-60185357D03*
%TD*%
D13*
%TO.C,D34*%
X268113557Y-82256210D03*
X271413557Y-82256210D03*
%TD*%
%TO.C,D28*%
X304113557Y-82256210D03*
X307413557Y-82256210D03*
%TD*%
D14*
%TO.C,D25*%
X321819858Y-90506029D03*
X325107300Y-90793643D03*
%TD*%
D13*
%TO.C,D14*%
X156713557Y-65256210D03*
X160013557Y-65256210D03*
%TD*%
%TO.C,D16*%
X174713557Y-83956210D03*
X178013557Y-83956210D03*
%TD*%
D10*
%TO.C,D46*%
X281763557Y-99406210D03*
X281763557Y-102706210D03*
%TD*%
D13*
%TO.C,D44*%
X227013557Y-88956210D03*
X230313557Y-88956210D03*
%TD*%
D16*
%TO.C,D2*%
X83754826Y-77120667D03*
X87042268Y-76833053D03*
%TD*%
D13*
%TO.C,D11*%
X138713557Y-61856210D03*
X142013557Y-61856210D03*
%TD*%
D16*
%TO.C,D1*%
X85236473Y-94055977D03*
X88523915Y-93768363D03*
%TD*%
D17*
%TO.C,D21*%
X200982038Y-113662665D03*
X202428662Y-110696645D03*
%TD*%
D18*
%TO.C,*%
X219463557Y-74956210D03*
X216063557Y-74956210D03*
%TD*%
D14*
%TO.C,D26*%
X323301506Y-73570719D03*
X326588948Y-73858333D03*
%TD*%
D13*
%TO.C,D31*%
X286113557Y-78856210D03*
X289413557Y-78856210D03*
%TD*%
%TO.C,D30*%
X304113557Y-48256210D03*
X307413557Y-48256210D03*
%TD*%
%TO.C,D12*%
X138713557Y-44856210D03*
X142013557Y-44856210D03*
%TD*%
%TO.C,D15*%
X156713557Y-48256210D03*
X160013557Y-48256210D03*
%TD*%
D16*
%TO.C,D5*%
X101538165Y-73858333D03*
X104825607Y-73570719D03*
%TD*%
D13*
%TO.C,D17*%
X174713557Y-66956210D03*
X178013557Y-66956210D03*
%TD*%
%TO.C,D9*%
X120713557Y-48256210D03*
X124013557Y-48256210D03*
%TD*%
D11*
%TO.C,*%
X212793557Y-51306210D03*
X212793557Y-58606210D03*
X210583557Y-58606210D03*
X210583557Y-51306210D03*
D12*
X209933557Y-57206210D03*
X209933557Y-54206210D03*
X209933557Y-52706210D03*
%TD*%
D13*
%TO.C,D18*%
X174713557Y-49956210D03*
X178013557Y-49956210D03*
%TD*%
%TO.C,D39*%
X250113557Y-49956210D03*
X253413557Y-49956210D03*
%TD*%
%TO.C,D7*%
X120713557Y-82256210D03*
X124013557Y-82256210D03*
%TD*%
D16*
%TO.C,D6*%
X100056518Y-56923023D03*
X103343960Y-56635409D03*
%TD*%
D10*
%TO.C,D45*%
X147363557Y-102706210D03*
X147363557Y-99406210D03*
%TD*%
D18*
%TO.C,*%
X212063557Y-74956210D03*
X208663557Y-74956210D03*
%TD*%
D13*
%TO.C,D10*%
X138713557Y-78856210D03*
X142013557Y-78856210D03*
%TD*%
%TO.C,D43*%
X197813557Y-91956210D03*
X201113557Y-91956210D03*
%TD*%
D14*
%TO.C,D27*%
X324783154Y-56635409D03*
X328070596Y-56923023D03*
%TD*%
D19*
%TO.C,D20*%
X182796963Y-106041396D03*
X183539301Y-102825974D03*
%TD*%
D16*
%TO.C,D3*%
X82273178Y-60185357D03*
X85560620Y-59897743D03*
%TD*%
D14*
%TO.C,D23*%
X341084846Y-76833053D03*
X344372288Y-77120667D03*
%TD*%
D13*
%TO.C,D33*%
X286113557Y-44856210D03*
X289413557Y-44856210D03*
%TD*%
D16*
%TO.C,D4*%
X103019813Y-90793643D03*
X106307255Y-90506029D03*
%TD*%
D13*
%TO.C,D8*%
X120713557Y-65256210D03*
X124013557Y-65256210D03*
%TD*%
D20*
%TO.C,D42*%
X225698451Y-110696645D03*
X227145075Y-113662665D03*
%TD*%
D13*
%TO.C,D35*%
X268113557Y-65256210D03*
X271413557Y-65256210D03*
%TD*%
M02*
